{
.appVersion = "3151";
.formatVersion = 3;
axes = (
{
name = Weight;
tag = wght;
}
);
classes = (
{
automatic = 1;
code = "A Aacute Abreve Acircumflex Adieresis Agrave Amacron Aogonek Aring Atilde AE B C Cacute Ccaron Ccedilla Ccircumflex Cdotaccent D Eth Dcaron Dcroat E Eacute Ecaron Ecircumflex Edieresis Edotaccent Egrave Emacron Eogonek Etilde Schwa F G Gbreve Gcircumflex Gcommaaccent Gdotaccent Gmacron H Hbar Hcircumflex I IJ Iacute Icircumflex Idieresis Idotaccent Igrave Imacron Iogonek Itilde J Jacute Jcircumflex K Kcommaaccent L Lacute Lcaron Lcommaaccent Lslash M N Nacute Ncaron Ncommaaccent Ntilde O Oacute Ocircumflex Odieresis Ograve Ohungarumlaut Omacron Oslash Otilde OE P Thorn Q R Racute Rcaron Rcommaaccent S Sacute Saltillo Scaron Scedilla Scircumflex Scommaaccent Germandbls T Tcaron Tcedilla Tcommaaccent U Uacute Ubreve Ucircumflex Udieresis Ugrave Uhungarumlaut Umacron Uogonek Uring Utilde V W Wacute Wcircumflex Wdieresis Wgrave X Y Yacute Ycircumflex Ydieresis Ygrave Ytilde Z Zacute Zcaron Zdotaccent Lslash.001 Lcommaaccent.loclMAH Ncommaaccent.loclMAH A-cy Be-cy Ve-cy Ge-cy Gje-cy Geupturn-cy De-cy Ie-cy Iegrave-cy Io-cy Zhe-cy Ze-cy Ii-cy Iishort-cy Iigrave-cy Ka-cy Kje-cy El-cy Em-cy En-cy O-cy Pe-cy Er-cy Es-cy Te-cy U-cy Ushort-cy Ef-cy Ha-cy Che-cy Tse-cy Sha-cy Shcha-cy Dzhe-cy Softsign-cy Yeru-cy Hardsign-cy Lje-cy Nje-cy Dze-cy E-cy Ereversed-cy I-cy Yi-cy Je-cy Tshe-cy Yu-cy Ya-cy Dje-cy De-cy.loclBGR El-cy.loclBGR Ef-cy.loclBGR Alpha Beta Gamma Delta Epsilon Zeta Eta Theta Iota Kappa Lambda Mu Nu Xi Omicron Pi Rho Sigma Tau Upsilon Phi Chi Psi Omega Alphatonos Epsilontonos Etatonos Iotatonos Omicrontonos Upsilontonos Omegatonos Iotadieresis Upsilondieresis KaiSymbol";
name = Uppercase;
}
);
date = "2023-11-27 17:11:44 +0000";
familyName = "Arcticons Sans";
featurePrefixes = (
{
automatic = 1;
code = "languagesystem DFLT dflt;
languagesystem DFLT MAH;

languagesystem latn dflt;
languagesystem latn AZE;
languagesystem latn CRT;

glyphs = (
{
glyphname = A;
kernLeft = A;
kernRight = A;
lastChange = "2023-12-21 12:57:15 +0000";
layers = (
{
anchors = (
{
name = bottom;
pos = (366,50);
},
{
name = ogonek;
pos = (682,100);
},
{
name = top;
pos = (366,900);
}
);
layerId = m01;
shapes = (
{
attr = {
lineCapEnd = 1;
lineCapStart = 1;
strokeWidth = 100;
};
closed = 0;
nodes = (
(543,315,l),
(189,315,l)
);
},
{
attr = {
lineCapEnd = 1;
lineCapStart = 1;
strokeWidth = 101.594;
};
closed = 0;
nodes = (
(101,50,l),
(366,850,l)
);
},
{
attr = {
lineCapEnd = 1;
lineCapStart = 1;
strokeWidth = 101.594;
};
closed = 0;
nodes = (
(631,50,l),
(366,850,l)
);
}
);
width = 732;
}
);
unicode = 65;
},
{
glyphname = AE;
lastChange = "2023-12-18 20:49:54 +0000";
layers = (
{
anchors = (
{
name = bottom;
pos = (556,0);
},
{
name = top;
pos = (556,900);
}
);
layerId = m01;
shapes = (
{
attr = {
lineCapEnd = 1;
lineCapStart = 1;
strokeWidth = 100;
};
closed = 0;
nodes = (
(621,450,l),
(882,450,l)
);
},
{
attr = {
lineCapEnd = 1;
lineCapStart = 1;
strokeWidth = 100;
};
closed = 0;
nodes = (
(1021,50,l),
(621,50,l)
);
},
{
attr = {
lineCapEnd = 1;
lineCapStart = 1;
strokeWidth = 100;
};
closed = 0;
nodes = (
(621,50,l),
(621,850,l)
);
},
{
attr = {
lineCapEnd = 1;
lineCapStart = 1;
strokeWidth = 101.594;
};
closed = 0;
nodes = (
(91,50,l),
(446,829,ls),
(452,843,o),
(465,850,o),
(479,850,cs),
(1021,850,l)
);
},
{
attr = {
lineCapEnd = 1;
lineCapStart = 1;
strokeWidth = 100;
};
closed = 0;
nodes = (
(218,327,l),
(621,327,l)
);
}
);
width = 1112;
}
);
unicode = 198;
},
{
glyphname = B;
kernLeft = uppdercaseStraight;
lastChange = "2023-12-21 12:58:07 +0000";
layers = (
{
anchors = (
{
name = bottom;
pos = (365,50);
},
{
name = center;
pos = (365,475);
},
{
name = top;
pos = (365,900);
}
);
layerId = m01;
shapes = (
{
attr = {
lineCapEnd = 1;
lineCapStart = 1;
strokeWidth = 100;
};
closed = 0;
nodes = (
(100,850,l),
(430,850,l),
(541,850,o),
(630,760,o),
(630,650,c),
(630,540,o),
(541,450,o),
(430,450,c),
(430,450,l)
);
},
{
attr = {
lineCapEnd = 1;
lineCapStart = 1;
strokeWidth = 100;
};
closed = 0;
nodes = (
(430,450,l),
(100,450,l)
);
},
{
attr = {
lineCapEnd = 1;
lineCapStart = 1;
strokeWidth = 100;
};
closed = 0;
nodes = (
(100,50,l),
(100,850,l)
);
},
{
attr = {
lineCapEnd = 1;
lineCapStart = 1;
strokeWidth = 100;
};
closed = 0;
nodes = (
(430,450,l),
(541,450,o),
(630,360,o),
(630,250,c),
(630,140,o),
(541,50,o),
(430,50,c),
(100,50,l)
);
}
);
width = 730;
}
);
unicode = 66;
},
{
glyphname = C;
kernLeft = uppercaseRound;
kernRight = uppercaseRound;
lastChange = "2023-12-19 17:07:21 +0000";
layers = (
{
anchors = (
{
name = bottom;
pos = (365,50);
},
{
name = top;
pos = (365,900);
}
);
layerId = m01;
shapes = (
{
attr = {
lineCapEnd = 1;
lineCapStart = 1;
strokeWidth = 100;
};
closed = 0;
nodes = (
(630,318,l),
(630,315,l),
(630,169,o),
(512,50,o),
(365,50,c),
(219,50,o),
(100,169,o),
(100,315,c),
(100,585,l),
(100,731,o),
(219,850,o),
(365,850,c),
(512,850,o),
(630,731,o),
(630,585,c),
(630,582,l)
);
}
);
width = 730;
}
);
unicode = 67;
},
{
glyphname = D;
kernLeft = uppdercaseStraight;
kernRight = uppercaseRound;
lastChange = "2023-12-18 20:49:54 +0000";
layers = (
{
anchors = (
{
name = bottom;
pos = (365,50);
},
{
name = center;
pos = (365,475);
},
{
name = top;
pos = (280,900);
}
);
layerId = m01;
shapes = (
{
attr = {
lineCapEnd = 1;
lineCapStart = 1;
strokeWidth = 100;
};
closed = 0;
nodes = (
(100,850,l),
(280,850,l),
(473,850,o),
(630,694,o),
(630,500,c),
(630,400,l),
(630,207,o),
(473,50,o),
(280,50,c),
(100,50,l)
);
},
{
attr = {
lineCapEnd = 1;
lineCapStart = 1;
strokeWidth = 100;
};
closed = 0;
nodes = (
(100,50,l),
(100,850,l)
);
}
);
width = 730;
}
);
unicode = 68;
},
{
glyphname = Eth;
kernRight = uppercaseRound;
lastChange = "2023-12-18 20:43:42 +0000";
layers = (
{
layerId = m01;
shapes = (
{
attr = {
lineCapEnd = 1;
lineCapStart = 1;
strokeWidth = 100;
};
closed = 0;
nodes = (
(100,450,l),
(400,450,l)
);
},
{
pos = (130,0);
ref = D;
}
);
width = 860;
}
);
metricRight = D;
unicode = 208;
},
{
glyphname = E;
kernLeft = uppdercaseStraight;
lastChange = "2023-12-18 20:49:54 +0000";
layers = (
{
anchors = (
{
name = bottom;
pos = (300,50);
},
{
name = ogonek;
pos = (550,100);
},
{
name = top;
pos = (300,900);
},
{
name = topleft;
pos = (20,900);
}
);
layerId = m01;
shapes = (
{
attr = {
lineCapEnd = 1;
lineCapStart = 1;
strokeWidth = 100;
};
closed = 0;
nodes = (
(100,450,l),
(361,450,l)
);
},
{
attr = {
lineCapEnd = 1;
lineCapStart = 1;
strokeWidth = 100;
};
closed = 0;
nodes = (
(100,850,l),
(500,850,l)
);
},
{
attr = {
lineCapEnd = 1;
lineCapStart = 1;
strokeWidth = 100;
};
closed = 0;
nodes = (
(500,50,l),
(100,50,l)
);
},
{
attr = {
lineCapEnd = 1;
lineCapStart = 1;
strokeWidth = 100;
};
closed = 0;
nodes = (
(100,50,l),
(100,850,l)
);
}
);
width = 600;
}
);
unicode = 69;
},
{
glyphname = Schwa;
kernLeft = uppercaseRound;
kernRight = uppercaseRound;
lastChange = "2023-12-18 20:49:54 +0000";
layers = (
{
anchors = (
{
name = bottom;
pos = (402,0);
},
{
name = top;
pos = (402,900);
}
);
layerId = m01;
shapes = (
{
attr = {
lineCapEnd = 1;
lineCapStart = 1;
strokeWidth = 100;
};
closed = 0;
nodes = (
(100,450,l),
(703,450,l)
);
},
{
attr = {
lineCapEnd = 1;
lineCapStart = 1;
strokeWidth = 100;
};
closed = 0;
nodes = (
(139,698,l),
(191,788,o),
(289,850,o),
(402,850,c),
(568,850,o),
(703,714,o),
(703,548,c),
(703,351,l),
(703,185,o),
(568,50,o),
(402,50,c),
(235,50,o),
(100,185,o),
(100,351,c),
(100,450,l)
);
}
);
width = 803;
}
);
unicode = 399;
},
{
glyphname = F;
kernLeft = uppdercaseStraight;
lastChange = "2023-12-18 20:49:54 +0000";
layers = (
{
anchors = (
{
name = bottom;
pos = (300,50);
},
{
name = top;
pos = (300,900);
}
);
layerId = m01;
shapes = (
{
attr = {
lineCapEnd = 1;
lineCapStart = 1;
strokeWidth = 100;
};
closed = 0;
nodes = (
(100,450,l),
(360,450,l)
);
},
{
attr = {
lineCapEnd = 1;
lineCapStart = 1;
strokeWidth = 100;
};
closed = 0;
nodes = (
(100,50,l),
(100,850,l)
);
},
{
attr = {
lineCapEnd = 1;
lineCapStart = 1;
strokeWidth = 100;
};
closed = 0;
nodes = (
(100,850,l),
(500,850,l)
);
}
);
width = 600;
}
);
unicode = 70;
},
{
glyphname = G;
kernLeft = uppercaseRound;
kernRight = uppercaseRound;
lastChange = "2023-12-18 20:58:59 +0000";
layers = (
{
anchors = (
{
name = bottom;
pos = (365,50);
},
{
name = top;
pos = (365,900);
}
);
layerId = m01;
shapes = (
{
attr = {
lineCapEnd = 1;
lineCapStart = 1;
strokeWidth = 100;
};
closed = 0;
nodes = (
(630,315,l),
(630,169,o),
(511,50,o),
(365,50,c),
(218,50,o),
(100,169,o),
(100,315,c),
(100,585,l),
(100,732,o),
(218,850,o),
(365,850,c),
(511,850,o),
(630,732,o),
(630,585,c)
);
},
{
attr = {
lineCapEnd = 1;
lineCapStart = 1;
strokeWidth = 100;
};
closed = 0;
nodes = (
(365,315,l),
(630,315,l)
);
}
);
width = 730;
}
);
unicode = 71;
},
{
glyphname = H;
kernLeft = uppdercaseStraight;
kernRight = uppdercaseStraight;
lastChange = "2023-12-21 15:55:10 +0000";
layers = (
{
anchors = (
{
name = bottom;
pos = (355,50);
},
{
name = center;
pos = (355,475);
},
{
name = top;
pos = (355,900);
},
{
name = topleft;
pos = (20,900);
}
);
layerId = m01;
shapes = (
{
attr = {
lineCapEnd = 1;
lineCapStart = 1;
strokeWidth = 100;
};
closed = 0;
nodes = (
(100,850,l),
(100,50,l)
);
},
{
attr = {
lineCapEnd = 1;
lineCapStart = 1;
strokeWidth = 100;
};
closed = 0;
nodes = (
(610,850,l),
(610,50,l)
);
},
{
attr = {
lineCapEnd = 1;
lineCapStart = 1;
strokeWidth = 100;
};
closed = 0;
nodes = (
(100,452,l),
(610,452,l)
);
}
);
width = 710;
}
);
unicode = 72;
},
{
glyphname = Hbar;
lastChange = "2023-12-18 20:43:42 +0000";
layers = (
{
layerId = m01;
shapes = (
{
ref = H;
},
{
attr = {
lineCapEnd = "1";
lineCapStart = "1";
strokeHeight = 100;
strokeWidth = 100;
};
closed = 0;
nodes = (
(20,680,l),
(690,680,l)
);
}
);
width = 710;
}
);
unicode = 294;
},
{
glyphname = I;
kernLeft = uppdercaseStraight;
lastChange = "2023-12-18 20:49:54 +0000";
layers = (
{
anchors = (
{
name = bottom;
pos = (110,50);
},
{
name = ogonek;
pos = (160,100);
},
{
name = top;
pos = (110,900);
},
{
name = topleft;
pos = (20,900);
}
);
layerId = m01;
shapes = (
{
attr = {
lineCapEnd = 1;
lineCapStart = 1;
strokeWidth = 100;
};
closed = 0;
nodes = (
(110,850,l),
(110,50,l)
);
}
);
width = 220;
}
);
unicode = 73;
},
{
glyphname = J;
lastChange = "2023-12-18 20:49:54 +0000";
layers = (
{
anchors = (
{
name = bottom;
pos = (300,50);
},
{
name = top;
pos = (500,900);
}
);
layerId = m01;
shapes = (
{
attr = {
lineCapEnd = 1;
lineCapStart = 1;
strokeWidth = 100;
};
closed = 0;
nodes = (
(100,316,l),
(100,250,l),
(100,140,o),
(190,50,o),
(300,50,c),
(411,50,o),
(500,140,o),
(500,250,c),
(500,850,l)
);
}
);
width = 600;
}
);
unicode = 74;
},
{
glyphname = K;
kernLeft = uppdercaseStraight;
lastChange = "2023-12-18 20:49:54 +0000";
layers = (
{
anchors = (
{
name = bottom;
pos = (315,50);
},
{
name = top;
pos = (315,900);
}
);
layerId = m01;
shapes = (
{
attr = {
lineCapEnd = 1;
lineCapStart = 1;
strokeWidth = 100;
};
closed = 0;
nodes = (
(100,850,l),
(100,50,l)
);
},
{
attr = {
lineCapEnd = 1;
lineCapStart = 1;
strokeWidth = 100;
};
closed = 0;
nodes = (
(100,328,l),
(530,847,l)
);
},
{
attr = {
lineCapEnd = 1;
lineCapStart = 1;
strokeWidth = 100;
};
closed = 0;
nodes = (
(530,50,l),
(201,450,l)
);
}
);
width = 630;
}
);
unicode = 75;
},
{
glyphname = L;
kernLeft = uppdercaseStraight;
lastChange = "2023-12-18 20:49:54 +0000";
layers = (
{
anchors = (
{
name = bottom;
pos = (300,50);
},
{
name = center;
pos = (300,475);
},
{
name = top;
pos = (300,900);
},
{
name = topright;
pos = (253,630);
}
);
layerId = m01;
shapes = (
{
attr = {
lineCapEnd = 1;
lineCapStart = 1;
strokeWidth = 100;
};
closed = 0;
nodes = (
(100,850,l),
(100,50,l)
);
},
{
attr = {
lineCapEnd = 1;
lineCapStart = 1;
strokeWidth = 100;
};
closed = 0;
nodes = (
(100,50,l),
(500,50,l)
);
}
);
width = 600;
}
);
unicode = 76;
},
{
glyphname = Lslash;
lastChange = "2023-12-18 20:43:42 +0000";
layers = (
{
layerId = m01;
shapes = (
{
ref = L;
},
{
attr = {
lineCapEnd = "1";
lineCapStart = "1";
strokeHeight = 100;
strokeWidth = 100;
};
closed = 0;
nodes = (
(280,580,l),
(0,450,l)
);
}
);
width = 600;
}
);
unicode = 321;
},
{
glyphname = M;
kernLeft = uppdercaseStraight;
kernRight = uppdercaseStraight;
lastChange = "2023-12-18 20:49:54 +0000";
layers = (
{
anchors = (
{
name = bottom;
pos = (500,50);
},
{
name = top;
pos = (500,900);
}
);
layerId = m01;
shapes = (
{
attr = {
lineCapEnd = 1;
lineCapStart = 1;
strokeWidth = 100;
};
closed = 0;
nodes = (
(500,50,l),
(900,849,l)
);
},
{
attr = {
lineCapEnd = 1;
lineCapStart = 1;
strokeWidth = 100;
};
closed = 0;
nodes = (
(100,51,l),
(100,850,l)
);
},
{
attr = {
lineCapEnd = 1;
lineCapStart = 1;
strokeWidth = 100;
};
closed = 0;
nodes = (
(900,849,l),
(900,50,l)
);
},
{
attr = {
lineCapEnd = 1;
lineCapStart = 1;
strokeWidth = 100;
};
closed = 0;
nodes = (
(100,850,l),
(500,50,l)
);
}
);
width = 1000;
}
);
unicode = 77;
},
{
glyphname = N;
kernLeft = uppdercaseStraight;
kernRight = uppdercaseStraight;
lastChange = "2023-12-18 20:49:54 +0000";
layers = (
{
anchors = (
{
name = bottom;
pos = (365,50);
},
{
name = top;
pos = (365,900);
}
);
layerId = m01;
shapes = (
{
attr = {
lineCapEnd = 1;
lineCapStart = 1;
strokeWidth = 100;
};
closed = 0;
nodes = (
(100,850,l),
(630,50,l)
);
},
{
attr = {
lineCapEnd = 1;
lineCapStart = 1;
strokeWidth = 100;
};
closed = 0;
nodes = (
(630,50,l),
(630,850,l)
);
},
{
attr = {
lineCapEnd = 1;
lineCapStart = 1;
strokeWidth = 100;
};
closed = 0;
nodes = (
(100,50,l),
(100,850,l)
);
}
);
width = 730;
}
);
unicode = 78;
},
{
glyphname = O;
kernLeft = uppercaseRound;
kernRight = uppercaseRound;
lastChange = "2023-12-19 17:08:52 +0000";
layers = (
{
anchors = (
{
name = bottom;
pos = (365,50);
},
{
name = center;
pos = (365,475);
},
{
name = ogonek;
pos = (528,125);
},
{
name = top;
pos = (365,900);
},
{
name = topleft;
pos = (20,900);
},
{
name = topright;
pos = (710,900);
}
);
layerId = m01;
shapes = (
{
attr = {
strokeWidth = 100;
};
closed = 1;
nodes = (
(630,169,o),
(511,50,o),
(365,50,c),
(219,50,o),
(100,169,o),
(100,315,c),
(100,585,l),
(100,731,o),
(219,850,o),
(365,850,c),
(511,850,o),
(630,731,o),
(630,585,c),
(630,315,l)
);
}
);
width = 730;
}
);
unicode = 79;
},
{
glyphname = Oslash;
kernLeft = uppercaseRound;
kernRight = uppercaseRound;
lastChange = "2023-12-18 20:49:54 +0000";
layers = (
{
anchors = (
{
name = bottom;
pos = (365,0);
},
{
name = top;
pos = (365,900);
}
);
layerId = m01;
shapes = (
{
ref = O;
},
{
attr = {
lineCapEnd = 1;
lineCapStart = 1;
strokeWidth = 100;
};
closed = 0;
nodes = (
(100,50,l),
(630,850,l)
);
}
);
width = 730;
}
);
metricLeft = O;
metricRight = O;
unicode = 216;
},
{
glyphname = OE;
kernLeft = uppercaseRound;
lastChange = "2023-12-18 20:49:54 +0000";
layers = (
{
anchors = (
{
name = bottom;
pos = (565,0);
},
{
name = top;
pos = (565,900);
}
);
layerId = m01;
shapes = (
{
attr = {
strokeWidth = 100;
};
closed = 1;
nodes = (
(630,169,o),
(512,50,o),
(365,50,c),
(219,50,o),
(100,169,o),
(100,315,c),
(100,585,l),
(100,731,o),
(219,850,o),
(365,850,c),
(512,850,o),
(630,731,o),
(630,585,c),
(630,315,l)
);
},
{
attr = {
lineCapEnd = 1;
lineCapStart = 1;
strokeWidth = 100;
};
closed = 0;
nodes = (
(630,450,l),
(891,450,l)
);
},
{
attr = {
lineCapEnd = 1;
lineCapStart = 1;
strokeWidth = 100;
};
closed = 0;
nodes = (
(630,850,l),
(1030,850,l)
);
},
{
attr = {
lineCapEnd = 1;
lineCapStart = 1;
strokeWidth = 100;
};
closed = 0;
nodes = (
(1030,50,l),
(630,50,l)
);
},
{
attr = {
lineCapEnd = 1;
lineCapStart = 1;
strokeWidth = 100;
};
closed = 0;
nodes = (
(630,50,l),
(630,850,l)
);
}
);
width = 1130;
}
);
unicode = 338;
},
{
glyphname = P;
kernLeft = uppdercaseStraight;
lastChange = "2023-12-21 15:55:11 +0000";
layers = (
{
anchors = (
{
name = bottom;
pos = (365,50);
},
{
name = top;
pos = (365,900);
}
);
layerId = m01;
shapes = (
{
attr = {
lineCapEnd = 1;
lineCapStart = 1;
strokeWidth = 100;
};
closed = 0;
nodes = (
(100,50,l),
(100,850,l)
);
},
{
attr = {
lineCapEnd = 1;
lineCapStart = 1;
strokeWidth = 100;
};
closed = 0;
nodes = (
(100,320,l),
(365,320,l),
(511,320,o),
(630,439,o),
(630,585,c),
(630,731,o),
(511,850,o),
(365,850,c),
(100,850,l)
);
}
);
width = 730;
}
);
unicode = 80;
},
{
glyphname = Thorn;
lastChange = "2023-12-18 20:49:54 +0000";
layers = (
{
anchors = (
{
name = bottom;
pos = (365,0);
},
{
name = top;
pos = (365,900);
}
);
layerId = m01;
shapes = (
{
ref = P;
},
{
attr = {
lineCapEnd = 1;
lineCapStart = 1;
strokeHeight = 100;
strokeWidth = 100;
};
closed = 0;
nodes = (
(100,850,l),
(100,1015,l)
);
}
);
width = 730;
}
);
unicode = 222;
},
{
glyphname = Q;
kernLeft = uppercaseRound;
lastChange = "2023-12-18 20:49:54 +0000";
layers = (
{
anchors = (
{
name = bottom;
pos = (365,50);
},
{
name = top;
pos = (365,900);
}
);
layerId = m01;
shapes = (
{
attr = {
lineCapEnd = 1;
lineCapStart = 1;
strokeWidth = 100;
};
closed = 0;
nodes = (
(630,50,l),
(365,312,l)
);
},
{
attr = {
strokeWidth = 100;
};
closed = 1;
nodes = (
(630,169,o),
(511,50,o),
(365,50,c),
(219,50,o),
(100,169,o),
(100,315,c),
(100,585,l),
(100,731,o),
(219,850,o),
(365,850,c),
(511,850,o),
(630,731,o),
(630,585,c),
(630,315,l)
);
}
);
width = 730;
}
);
unicode = 81;
},
{
glyphname = R;
kernLeft = uppdercaseStraight;
lastChange = "2023-12-18 20:49:54 +0000";
layers = (
{
anchors = (
{
name = bottom;
pos = (365,50);
},
{
name = top;
pos = (365,900);
}
);
layerId = m01;
shapes = (
{
attr = {
lineCapEnd = 1;
lineCapStart = 1;
strokeWidth = 100;
};
closed = 0;
nodes = (
(355,320,l),
(624,50,l)
);
},
{
attr = {
lineCapEnd = 1;
lineCapStart = 1;
strokeWidth = 100;
};
closed = 0;
nodes = (
(100,50,l),
(100,850,l)
);
},
{
attr = {
lineCapEnd = 1;
lineCapStart = 1;
strokeWidth = 100;
};
closed = 0;
nodes = (
(100,320,l),
(365,320,l),
(511,320,o),
(630,439,o),
(630,585,c),
(630,731,o),
(511,850,o),
(365,850,c),
(100,850,l)
);
}
);
width = 730;
}
);
unicode = 82;
},
{
glyphname = S;
lastChange = "2023-12-21 15:55:08 +0000";
layers = (
{
anchors = (
{
name = bottom;
pos = (365,50);
},
{
name = top;
pos = (365,900);
}
);
layerId = m01;
shapes = (
{
attr = {
lineCapEnd = 1;
lineCapStart = 1;
strokeWidth = 100;
};
closed = 0;
nodes = (
(116,138,l),
(165,74,o),
(226,50,o),
(312,50,c),
(430,50,l),
(541,50,o),
(630,139,o),
(630,250,c),
(630,250,l),
(630,361,o),
(541,450,o),
(430,450,c),
(300,450,l),
(189,450,o),
(100,539,o),
(100,650,c),
(100,650,l),
(100,760,o),
(190,850,o),
(300,850,c),
(418,850,l),
(504,850,o),
(565,826,o),
(614,762,c)
);
}
);
width = 730;
}
);
unicode = 83;
},
{
glyphname = Germandbls;
lastChange = "2023-12-18 20:49:54 +0000";
layers = (
{
anchors = (
{
name = bottom;
pos = (390,0);
},
{
name = top;
pos = (390,900);
}
);
layerId = m01;
shapes = (
{
attr = {
lineCapEnd = 1;
lineCapStart = 1;
strokeWidth = 100;
};
closed = 0;
nodes = (
(100,850,l),
(630,850,l)
);
},
{
attr = {
lineCapEnd = 1;
lineCapStart = 1;
strokeWidth = 100;
};
closed = 0;
nodes = (
(415,580,l),
(561,580,o),
(680,461,o),
(680,315,c),
(680,169,o),
(561,50,o),
(415,50,c),
(379,50,o),
(344,57,o),
(313,70,c)
);
},
{
attr = {
lineCapEnd = 1;
lineCapStart = 1;
strokeWidth = 100;
};
closed = 0;
nodes = (
(630,850,l),
(415,580,l)
);
},
{
attr = {
lineCapEnd = 1;
lineCapStart = 1;
strokeWidth = 100;
};
closed = 0;
nodes = (
(100,50,l),
(100,850,l)
);
}
);
width = 780;
}
);
unicode = 7838;
},
{
glyphname = T;
lastChange = "2023-12-18 20:49:54 +0000";
layers = (
{
anchors = (
{
name = bottom;
pos = (365,50);
},
{
name = center;
pos = (365,475);
},
{
name = top;
pos = (365,900);
}
);
layerId = m01;
shapes = (
{
attr = {
lineCapEnd = 1;
lineCapStart = 1;
strokeWidth = 100;
};
closed = 0;
nodes = (
(100,850,l),
(630,850,l)
);
},
{
attr = {
lineCapEnd = 1;
lineCapStart = 1;
strokeWidth = 100;
};
closed = 0;
nodes = (
(365,50,l),
(365,850,l)
);
}
);
width = 730;
}
);
unicode = 84;
},
{
glyphname = U;
lastChange = "2023-12-18 20:49:54 +0000";
layers = (
{
anchors = (
{
name = bottom;
pos = (365,50);
},
{
name = ogonek;
pos = (528,123);
},
{
name = top;
pos = (365,900);
},
{
name = topright;
pos = (710,900);
}
);
layerId = m01;
shapes = (
{
attr = {
lineCapEnd = 1;
lineCapStart = 1;
strokeWidth = 100;
};
closed = 0;
nodes = (
(100,850,l),
(100,315,l),
(100,169,o),
(219,50,o),
(365,50,c),
(511,50,o),
(630,169,o),
(630,315,c),
(630,850,l)
);
}
);
width = 730;
}
);
unicode = 85;
},
{
glyphname = Uogonek;
lastChange = "2023-12-18 20:43:42 +0000";
layers = (
{
layerId = m01;
shapes = (
{
ref = U;
},
{
pos = (178,73);
ref = ogonekcomb;
},
{
attr = {
lineCapEnd = 1;
lineCapStart = 1;
strokeHeight = 100;
strokeWidth = 100;
};
closed = 0;
nodes = (
(630,315,l)
);
}
);
width = 730;
}
);
unicode = 370;
},
{
glyphname = V;
lastChange = "2023-12-19 17:07:12 +0000";
layers = (
{
anchors = (
{
name = bottom;
pos = (365,50);
},
{
name = top;
pos = (365,900);
}
);
layerId = m01;
shapes = (
{
attr = {
lineCapEnd = 1;
lineCapStart = 1;
strokeWidth = 100;
};
closed = 0;
nodes = (
(630,850,l),
(365,50,l)
);
},
{
attr = {
lineCapEnd = 1;
lineCapStart = 1;
strokeWidth = 100;
};
closed = 0;
nodes = (
(365,50,l),
(100,850,l)
);
}
);
width = 730;
}
);
unicode = 86;
},
{
glyphname = W;
lastChange = "2023-12-19 17:01:53 +0000";
layers = (
{
anchors = (
{
name = bottom;
pos = (500,50);
},
{
name = top;
pos = (500,900);
}
);
layerId = m01;
shapes = (
{
attr = {
lineCapEnd = 1;
lineCapStart = 1;
strokeWidth = 100;
};
closed = 0;
nodes = (
(900,850,l),
(700,50,l)
);
},
{
attr = {
lineCapEnd = 1;
lineCapStart = 1;
strokeWidth = 100;
};
closed = 0;
nodes = (
(300,50,l),
(100,850,l)
);
},
{
attr = {
lineCapEnd = 1;
lineCapStart = 1;
strokeWidth = 100;
};
closed = 0;
nodes = (
(500,850,l),
(300,50,l)
);
},
{
attr = {
lineCapEnd = 1;
lineCapStart = 1;
strokeWidth = 100;
};
closed = 0;
nodes = (
(700,50,l),
(500,850,l)
);
}
);
width = 1000;
}
);
unicode = 87;
},
{
glyphname = X;
lastChange = "2023-12-19 17:06:53 +0000";
layers = (
{
anchors = (
{
name = bottom;
pos = (365,50);
},
{
name = top;
pos = (365,900);
}
);
layerId = m01;
shapes = (
{
attr = {
lineCapEnd = 1;
lineCapStart = 1;
strokeWidth = 100;
};
closed = 0;
nodes = (
(100,850,l),
(630,50,l)
);
},
{
attr = {
lineCapEnd = 1;
lineCapStart = 1;
strokeWidth = 100;
};
closed = 0;
nodes = (
(630,850,l),
(100,50,l)
);
}
);
width = 730;
}
);
unicode = 88;
},
{
glyphname = Y;
lastChange = "2023-12-21 15:55:03 +0000";
layers = (
{
anchors = (
{
name = bottom;
pos = (365,50);
},
{
name = top;
pos = (365,900);
},
{
name = topleft;
pos = (20,900);
}
);
layerId = m01;
shapes = (
{
attr = {
lineCapEnd = 1;
lineCapStart = 1;
strokeWidth = 100;
};
closed = 0;
nodes = (
(630,850,l),
(365,450,l)
);
},
{
attr = {
lineCapEnd = 1;
lineCapStart = 1;
strokeWidth = 100;
};
closed = 0;
nodes = (
(365,50,l),
(365,450,l)
);
},
{
attr = {
lineCapEnd = 1;
lineCapStart = 1;
strokeWidth = 100;
};
closed = 0;
nodes = (
(365,450,l),
(100,850,l)
);
}
);
width = 730;
}
);
unicode = 89;
},
{
glyphname = Z;
lastChange = "2023-12-18 20:49:54 +0000";
layers = (
{
anchors = (
{
name = bottom;
pos = (365,50);
},
{
name = center;
pos = (365,475);
},
{
name = top;
pos = (365,900);
}
);
layerId = m01;
shapes = (
{
attr = {
lineCapEnd = 1;
lineCapStart = 1;
strokeWidth = 100;
};
closed = 0;
nodes = (
(630,850,l),
(100,50,l)
);
},
{
attr = {
lineCapEnd = 1;
lineCapStart = 1;
strokeWidth = 100;
};
closed = 0;
nodes = (
(100,850,l),
(630,850,l)
);
},
{
attr = {
lineCapEnd = 1;
lineCapStart = 1;
strokeWidth = 100;
};
closed = 0;
nodes = (
(100,50,l),
(630,50,l)
);
}
);
width = 730;
}
);
unicode = 90;
},
{
glyphname = Lslash.001;
lastChange = "2023-12-18 20:43:42 +0000";
layers = (
{
layerId = m01;
shapes = (
{
ref = L;
},
{
attr = {
lineCapEnd = "1";
lineCapStart = "1";
strokeHeight = 100;
strokeWidth = 100;
};
closed = 0;
nodes = (
(280,580,l),
(0,450,l)
);
}
);
width = 600;
}
);
},
{
glyphname = a;
kernLeft = lowercaseRound;
kernRight = lowercaseStraight;
lastChange = "2023-12-19 16:57:03 +0000";
layers = (
{
anchors = (
{
name = bottom;
pos = (300,0);
},
{
name = ogonek;
pos = (540,10);
},
{
name = top;
pos = (300,630);
}
);
layerId = m01;
shapes = (
{
attr = {
lineCapEnd = 1;
lineCapStart = 1;
strokeWidth = 100;
};
closed = 0;
nodes = (
(500,50,l),
(500,580,l)
);
},
{
attr = {
lineCapEnd = 1;
lineCapStart = 1;
strokeWidth = 100;
};
closed = 0;
nodes = (
(500,250,l),
(500,140,o),
(410,50,o),
(300,50,c),
(189,50,o),
(100,140,o),
(100,250,c),
(100,380,l),
(100,490,o),
(189,580,o),
(300,580,c),
(410,580,o),
(500,490,o),
(500,380,c)
);
}
);
width = 600;
}
);
unicode = 97;
},
{
glyphname = ae;
kernLeft = lowercaseRound;
kernRight = lowercaseRound;
lastChange = "2023-12-18 20:49:54 +0000";
layers = (
{
anchors = (
{
name = bottom;
pos = (500,0);
},
{
name = top;
pos = (500,630);
}
);
layerId = m01;
shapes = (
{
attr = {
lineCapEnd = 1;
lineCapStart = 1;
strokeWidth = 100;
};
closed = 0;
nodes = (
(874,151,l),
(839,91,o),
(774,50,o),
(700,50,c),
(700,50,l),
(590,50,o),
(500,140,o),
(500,250,c),
(500,380,l),
(500,490,o),
(590,580,o),
(700,580,c),
(700,580,l),
(811,580,o),
(900,490,o),
(900,380,c),
(900,315,l)
);
},
{
attr = {
lineCapEnd = 1;
lineCapStart = 1;
strokeWidth = 100;
};
closed = 0;
nodes = (
(500,250,l),
(500,140,o),
(411,50,o),
(301,50,c),
(231,50,l),
(159,50,o),
(100,109,o),
(100,183,c),
(100,256,o),
(159,315,o),
(231,315,c),
(500,315,l)
);
},
{
attr = {
lineCapEnd = 1;
lineCapStart = 1;
strokeWidth = 100;
};
closed = 0;
nodes = (
(150,528,l),
(198,576,o),
(232,580,o),
(325,580,c),
(431,580,o),
(500,534,o),
(500,408,c),
(500,315,l)
);
},
{
attr = {
lineCapEnd = 1;
lineCapStart = 1;
strokeWidth = 100;
};
closed = 0;
nodes = (
(900,315,l),
(500,315,l)
);
}
);
width = 1000;
}
);
unicode = 230;
},
{
glyphname = b;
kernLeft = lowercaseStraightAscender;
kernRight = lowercaseRound;
lastChange = "2023-12-20 09:13:27 +0000";
layers = (
{
anchors = (
{
name = bottom;
pos = (300,0);
},
{
name = center;
pos = (300,315);
},
{
name = top;
pos = (300,630);
}
);
layerId = m01;
shapes = (
{
attr = {
lineCapEnd = 1;
lineCapStart = 1;
strokeWidth = 100;
};
closed = 0;
nodes = (
(100,50,l),
(100,850,l)
);
},
{
attr = {
lineCapEnd = 1;
lineCapStart = 1;
strokeWidth = 100;
};
closed = 0;
nodes = (
(100,380,l),
(100,490,o),
(190,580,o),
(300,580,c),
(410,580,o),
(500,490,o),
(500,380,c),
(500,250,l),
(500,140,o),
(410,50,o),
(300,50,c),
(190,50,o),
(100,140,o),
(100,250,c)
);
}
);
width = 600;
}
);
unicode = 98;
},
{
glyphname = c;
kernLeft = lowercaseRound;
lastChange = "2023-12-21 13:18:52 +0000";
layers = (
{
anchors = (
{
name = bottom;
pos = (300,50);
},
{
name = top;
pos = (300,630);
}
);
layerId = m01;
shapes = (
{
attr = {
lineCapEnd = 1;
lineCapStart = 1;
strokeWidth = 100;
};
closed = 0;
nodes = (
(474,151,l),
(439,91,o),
(375,50,o),
(300,50,c),
(190,50,o),
(100,140,o),
(100,250,c),
(100,380,l),
(100,490,o),
(190,580,o),
(300,580,c),
(374,580,o),
(439,540,o),
(474,480,c)
);
}
);
width = 574;
}
);
unicode = 99;
},
{
glyphname = d;
kernLeft = lowercaseRound;
kernRight = lowercaseStraightAscender;
lastChange = "2023-12-19 17:04:22 +0000";
layers = (
{
anchors = (
{
name = bottom;
pos = (300,50);
},
{
name = center;
pos = (300,340);
},
{
name = top;
pos = (300,1015);
},
{
name = topright;
pos = (645,630);
}
);
layerId = m01;
shapes = (
{
attr = {
lineCapEnd = "1";
lineCapStart = "1";
strokeWidth = 100;
};
closed = 0;
nodes = (
(500,50,l),
(500,850,l)
);
},
{
attr = {
lineCapEnd = "1";
lineCapStart = "1";
strokeWidth = 100;
};
closed = 0;
nodes = (
(500,250,l),
(500,140,o),
(410,50,o),
(300,50,c),
(190,50,o),
(100,140,o),
(100,250,c),
(100,380,l),
(100,490,o),
(190,580,o),
(300,580,c),
(410,580,o),
(500,490,o),
(500,380,c)
);
}
);
width = 600;
}
);
unicode = 100;
},
{
glyphname = eth;
lastChange = "2023-12-18 20:49:54 +0000";
layers = (
{
anchors = (
{
name = bottom;
pos = (300,0);
},
{
name = top;
pos = (300,1015);
}
);
layerId = m01;
shapes = (
{
attr = {
strokeWidth = 100;
};
closed = 1;
nodes = (
(100,490,o),
(190,580,o),
(300,580,c),
(411,580,o),
(500,490,o),
(500,380,c),
(500,250,l),
(500,139,o),
(411,50,o),
(300,50,c),
(190,50,o),
(100,139,o),
(100,250,c),
(100,380,l)
);
},
{
attr = {
lineCapEnd = 1;
lineCapStart = 1;
strokeWidth = 100;
};
closed = 0;
nodes = (
(200,850,l),
(484,777,o),
(500,580,o),
(500,380,c)
);
},
{
attr = {
lineCapEnd = 1;
lineCapStart = 1;
strokeWidth = 100;
};
closed = 0;
nodes = (
(460,850,l),
(242,705,l)
);
}
);
width = 600;
}
);
unicode = 240;
},
{
glyphname = dcroat;
lastChange = "2023-12-18 20:43:42 +0000";
layers = (
{
layerId = m01;
shapes = (
{
ref = d;
},
{
attr = {
lineCapEnd = "1";
lineCapStart = "1";
strokeHeight = 100;
strokeWidth = 100;
};
closed = 0;
nodes = (
(369,750,l),
(580,750,l)
);
}
);
width = 600;
}
);
unicode = 273;
},
{
glyphname = e;
kernLeft = lowercaseRound;
kernRight = lowercaseRound;
lastChange = "2023-12-19 16:53:59 +0000";
layers = (
{
anchors = (
{
name = bottom;
pos = (300,50);
},
{
name = ogonek;
pos = (474,144);
},
{
name = top;
pos = (300,630);
}
);
layerId = m01;
shapes = (
{
attr = {
lineCapEnd = 1;
lineCapStart = 1;
strokeWidth = 100;
};
closed = 0;
nodes = (
(500,315,l),
(100,315,l)
);
},
{
attr = {
lineCapEnd = 1;
lineCapStart = 1;
strokeWidth = 100;
};
closed = 0;
nodes = (
(474,151,l),
(439,91,o),
(374,50,o),
(300,50,c),
(190,50,o),
(100,140,o),
(100,250,c),
(100,380,l),
(100,490,o),
(190,580,o),
(300,580,c),
(411,580,o),
(500,490,o),
(500,380,c),
(500,315,l)
);
}
);
width = 600;
}
);
unicode = 101;
},
{
glyphname = eogonek;
kernLeft = lowercaseRound;
kernRight = lowercaseRound;
lastChange = "2023-12-18 20:49:54 +0000";
layers = (
{
anchors = (
{
name = top;
pos = (280,630);
}
);
layerId = m01;
shapes = (
{
ref = e;
},
{
pos = (82,4);
ref = ogonekcomb;
},
{
attr = {
lineCapEnd = 1;
lineCapStart = 1;
strokeHeight = 100;
strokeWidth = 100;
};
closed = 0;
nodes = (
(474,151,l),
(446,95,o),
(423,76,o),
(377,51,cs)
);
}
);
width = 560;
}
);
unicode = 281;
},
{
glyphname = schwa;
kernLeft = lowercaseRound;
kernRight = lowercaseRound;
lastChange = "2023-12-18 20:43:42 +0000";
layers = (
{
layerId = m01;
shapes = (
{
attr = {
lineCapEnd = "1";
lineCapStart = "1";
strokeWidth = 100;
};
closed = 0;
nodes = (
(100,315,l),
(500,315,l)
);
},
{
attr = {
lineCapEnd = "1";
lineCapStart = "1";
strokeWidth = 100;
};
closed = 0;
nodes = (
(126,479,l),
(161,539,o),
(226,580,o),
(300,580,c),
(410,580,o),
(500,490,o),
(500,380,c),
(500,250,l),
(500,140,o),
(410,50,o),
(300,50,c),
(189,50,o),
(100,140,o),
(100,250,c),
(100,315,l)
);
}
);
width = 600;
}
);
unicode = 601;
},
{
glyphname = f;
lastChange = "2023-12-21 13:20:27 +0000";
layers = (
{
anchors = (
{
name = bottom;
pos = (300,0);
},
{
name = top;
pos = (300,1015);
}
);
layerId = m01;
shapes = (
{
attr = {
lineCapEnd = 1;
lineCapStart = 1;
strokeWidth = 100;
};
closed = 0;
nodes = (
(100,580,l),
(380,580,l)
);
},
{
attr = {
lineCapEnd = 1;
lineCapStart = 1;
strokeWidth = 100;
};
closed = 0;
nodes = (
(218,50,l),
(218,710,l),
(218,787,o),
(281,850,o),
(358,850,c),
(427,850,o),
(470,830,o),
(500,791,c)
);
}
);
width = 600;
}
);
unicode = 102;
},
{
glyphname = g;
kernLeft = lowercaseRound;
kernRight = lowercaseDescender;
lastChange = "2023-12-21 13:55:06 +0000";
layers = (
{
anchors = (
{
name = bottom;
pos = (300,-270);
},
{
name = top;
pos = (300,630);
}
);
layerId = m01;
shapes = (
{
attr = {
lineCapEnd = 2;
lineCapStart = 1;
strokeWidth = 100;
};
closed = 0;
nodes = (
(500,580,l),
(500,-20,l),
(500,-131,o),
(411,-220,o),
(300,-220,c),
(300,-220,l),
(245,-220,o),
(195,-198,o),
(159,-162,c)
);
},
{
attr = {
lineCapEnd = 1;
lineCapStart = 1;
strokeWidth = 100;
};
closed = 0;
nodes = (
(500,250,l),
(500,139,o),
(411,50,o),
(300,50,c),
(190,50,o),
(100,139,o),
(100,250,c),
(100,380,l),
(100,490,o),
(190,580,o),
(300,580,c),
(411,580,o),
(500,490,o),
(500,380,c)
);
}
);
width = 600;
}
);
unicode = 103;
},
{
glyphname = h;
kernLeft = lowercaseStraightAscender;
kernRight = lowercaseRounding;
lastChange = "2023-12-19 16:53:56 +0000";
layers = (
{
anchors = (
{
name = bottom;
pos = (300,50);
},
{
name = center;
pos = (300,533);
},
{
name = top;
pos = (300,900);
}
);
layerId = m01;
shapes = (
{
attr = {
lineCapEnd = 1;
lineCapStart = 1;
strokeWidth = 100;
};
closed = 0;
nodes = (
(100,850,l),
(100,50,l)
);
},
{
attr = {
lineCapEnd = 1;
lineCapStart = 1;
strokeWidth = 100;
};
closed = 0;
nodes = (
(100,380,l),
(100,490,o),
(189,580,o),
(300,580,c),
(410,580,o),
(500,490,o),
(500,380,c),
(500,50,l)
);
}
);
width = 600;
}
);
unicode = 104;
},
{
glyphname = hbar;
kernRight = lowercaseRounding;
lastChange = "2023-12-29 12:52:40 +0000";
layers = (
{
layerId = m01;
shapes = (
{
pos = (80,0);
ref = h;
},
{
attr = {
lineCapEnd = 1;
lineCapStart = 1;
strokeHeight = 100;
strokeWidth = 100;
};
closed = 0;
nodes = (
(100,750,l),
(311,750,l)
);
}
);
width = 680;
}
);
unicode = 295;
},
{
glyphname = i;
kernLeft = i;
kernRight = i;
lastChange = "2023-12-19 20:32:34 +0000";
layers = (
{
anchors = (
{
name = bottom;
pos = (125,0);
}
);
layerId = m01;
shapes = (
{
closed = 1;
nodes = (
(200,866,o),
(166,900,o),
(125,900,c),
(83,900,o),
(50,866,o),
(50,825,c),
(50,784,o),
(83,750,o),
(125,750,c),
(166,750,o),
(200,784,o),
(200,825,c)
);
},
{
pos = (20,0);
ref = idotless;
}
);
width = 250;
}
);
unicode = 105;
},
{
glyphname = idotless;
lastChange = "2023-12-18 20:49:54 +0000";
layers = (
{
anchors = (
{
name = bottom;
pos = (105,50);
},
{
name = ogonek;
pos = (156,102);
},
{
name = top;
pos = (105,630);
}
);
layerId = m01;
shapes = (
{
attr = {
lineCapEnd = 1;
lineCapStart = 1;
strokeWidth = 100;
};
closed = 0;
nodes = (
(105,580,l),
(105,50,l)
);
}
);
width = 210;
}
);
unicode = 305;
},
{
glyphname = j;
kernRight = i;
lastChange = "2023-12-21 13:48:55 +0000";
layers = (
{
layerId = m01;
shapes = (
{
closed = 1;
nodes = (
(391,866,o),
(358,900,o),
(316,900,c),
(275,900,o),
(241,866,o),
(241,825,c),
(241,784,o),
(275,750,o),
(316,750,cs),
(358,750,o),
(391,784,o),
(391,825,c)
);
},
{
ref = jdotless;
}
);
width = 441;
}
);
unicode = 106;
},
{
glyphname = jdotless;
kernRight = lowercaseStraight;
lastChange = "2023-12-18 20:49:54 +0000";
layers = (
{
anchors = (
{
name = bottom;
pos = (118,-254);
},
{
name = top;
pos = (316,630);
}
);
layerId = m01;
shapes = (
{
attr = {
lineCapEnd = 1;
lineCapStart = 1;
strokeWidth = 100;
};
closed = 0;
nodes = (
(316,580,l),
(316,-92,l),
(316,-163,o),
(260,-220,o),
(190,-220,c),
(155,-220,o),
(123,-206,o),
(100,-182,c)
);
}
);
width = 416;
}
);
unicode = 567;
},
{
glyphname = k;
lastChange = "2023-12-19 20:32:46 +0000";
layers = (
{
anchors = (
{
name = bottom;
pos = (300,50);
},
{
name = top;
pos = (300,900);
}
);
layerId = m01;
shapes = (
{
attr = {
lineCapEnd = 1;
lineCapStart = 1;
strokeWidth = 100;
};
closed = 0;
nodes = (
(100,850,l),
(100,50,l)
);
},
{
attr = {
lineCapEnd = 1;
lineCapStart = 1;
strokeWidth = 100;
};
closed = 0;
nodes = (
(100,220,l),
(462,580,l)
);
},
{
attr = {
lineCapEnd = 1;
lineCapStart = 1;
strokeWidth = 100;
};
closed = 0;
nodes = (
(215,335,l),
(500,51,l)
);
}
);
width = 600;
}
);
unicode = 107;
},
{
glyphname = l;
lastChange = "2023-12-21 13:57:51 +0000";
layers = (
{
anchors = (
{
name = bottom;
pos = (165,0);
},
{
name = center;
pos = (165,508);
},
{
name = top;
pos = (165,900);
},
{
name = topright;
pos = (240,630);
}
);
layerId = m01;
shapes = (
{
attr = {
lineCapEnd = 1;
lineCapStart = 1;
strokeWidth = 100;
};
closed = 0;
nodes = (
(100,850,l),
(100,150,l),
(100,95,o),
(145,50,o),
(200,50,c),
(230,50,l)
);
}
);
width = 330;
}
);
unicode = 108;
},
{
glyphname = lslash;
lastChange = "2023-12-18 20:43:42 +0000";
layers = (
{
layerId = m01;
shapes = (
{
ref = l;
},
{
attr = {
lineCapEnd = 1;
lineCapStart = 1;
strokeHeight = 100;
strokeWidth = 100;
};
closed = 0;
nodes = (
(220,480,l),
(-20,420,l)
);
}
);
width = 330;
}
);
unicode = 322;
},
{
glyphname = m;
kernLeft = lowercaseStraight;
kernRight = lowercaseRounding;
lastChange = "2023-12-19 07:46:58 +0000";
layers = (
{
anchors = (
{
name = bottom;
pos = (500,0);
},
{
name = top;
pos = (500,630);
}
);
layerId = m01;
shapes = (
{
attr = {
lineCapEnd = 1;
lineCapStart = 1;
strokeWidth = 100;
};
closed = 0;
nodes = (
(100,580,l),
(100,50,l)
);
},
{
attr = {
lineCapEnd = 1;
lineCapStart = 1;
strokeWidth = 100;
};
closed = 0;
nodes = (
(100,380,l),
(100,490,o),
(189,580,o),
(300,580,c),
(410,580,o),
(500,490,o),
(500,380,c),
(500,50,l)
);
},
{
attr = {
lineCapEnd = 1;
lineCapStart = 1;
strokeWidth = 100;
};
closed = 0;
nodes = (
(500,380,l),
(500,490,o),
(589,580,o),
(700,580,c),
(810,580,o),
(900,490,o),
(900,380,c),
(900,50,l)
);
}
);
width = 1000;
}
);
unicode = 109;
},
{
glyphname = n;
kernLeft = lowercaseStraight;
kernRight = lowercaseRounding;
lastChange = "2023-12-19 16:55:00 +0000";
layers = (
{
anchors = (
{
name = bottom;
pos = (300,50);
},
{
name = top;
pos = (300,630);
}
);
layerId = m01;
shapes = (
{
attr = {
lineCapEnd = 1;
lineCapStart = 1;
strokeWidth = 100;
};
closed = 0;
nodes = (
(100,580,l),
(100,50,l)
);
},
{
attr = {
lineCapEnd = 1;
lineCapStart = 1;
strokeWidth = 100;
};
closed = 0;
nodes = (
(100,380,l),
(100,490,o),
(190,580,o),
(300,580,c),
(411,580,o),
(500,490,o),
(500,380,c),
(500,50,l)
);
}
);
width = 600;
}
);
unicode = 110;
},
{
glyphname = o;
kernLeft = lowercaseRound;
kernRight = lowercaseRound;
lastChange = "2023-12-19 17:10:03 +0000";
layers = (
{
anchors = (
{
name = bottom;
pos = (300,50);
},
{
name = center;
pos = (300,340);
},
{
name = ogonek;
pos = (410,109);
},
{
name = top;
pos = (300,630);
},
{
name = topright;
pos = (580,630);
}
);
layerId = m01;
shapes = (
{
attr = {
strokeWidth = 100;
};
closed = 1;
nodes = (
(500,140,o),
(410,50,o),
(300,50,c),
(190,50,o),
(100,140,o),
(100,250,c),
(100,380,l),
(100,490,o),
(190,580,o),
(300,580,c),
(410,580,o),
(500,490,o),
(500,380,c),
(500,250,l)
);
}
);
width = 600;
}
);
unicode = 111;
},
{
glyphname = oslash;
lastChange = "2023-12-18 20:49:54 +0000";
layers = (
{
anchors = (
{
name = top;
pos = (300,630);
}
);
layerId = m01;
shapes = (
{
ref = o;
},
{
attr = {
lineCapEnd = 1;
lineCapStart = 1;
strokeWidth = 100;
};
closed = 0;
nodes = (
(100,50,l),
(500,580,l)
);
}
);
width = 600;
}
);
unicode = 248;
},
{
glyphname = oe;
kernLeft = lowercaseRound;
kernRight = lowercaseRound;
lastChange = "2023-12-18 20:49:54 +0000";
layers = (
{
anchors = (
{
name = bottom;
pos = (500,0);
},
{
name = top;
pos = (500,630);
}
);
layerId = m01;
shapes = (
{
attr = {
lineCapEnd = 1;
lineCapStart = 1;
strokeWidth = 100;
};
closed = 0;
nodes = (
(500,250,l),
(500,140,o),
(411,50,o),
(300,50,c),
(190,50,o),
(100,140,o),
(100,250,c),
(100,380,l),
(100,490,o),
(190,580,o),
(300,580,c),
(411,580,o),
(500,490,o),
(500,380,c)
);
},
{
attr = {
lineCapEnd = 1;
lineCapStart = 1;
strokeWidth = 100;
};
closed = 0;
nodes = (
(900,315,l),
(500,315,l)
);
},
{
attr = {
lineCapEnd = 1;
lineCapStart = 1;
strokeWidth = 100;
};
closed = 0;
nodes = (
(874,151,l),
(840,91,o),
(775,50,o),
(700,50,c),
(590,50,o),
(500,140,o),
(500,250,c),
(500,380,l),
(500,490,o),
(590,580,o),
(700,580,c),
(811,580,o),
(900,490,o),
(900,380,c),
(900,315,l)
);
}
);
width = 1000;
}
);
unicode = 339;
},
{
glyphname = p;
kernLeft = lowercaseStraightDecender;
kernRight = lowercaseRound;
lastChange = "2023-12-21 13:19:14 +0000";
layers = (
{
anchors = (
{
name = bottom;
pos = (300,50);
},
{
name = top;
pos = (300,630);
}
);
layerId = m01;
shapes = (
{
attr = {
lineCapEnd = "1";
lineCapStart = "1";
strokeWidth = 100;
};
closed = 0;
nodes = (
(100,-220,l),
(100,580,l)
);
},
{
attr = {
lineCapEnd = "1";
lineCapStart = "1";
strokeWidth = 100;
};
closed = 0;
nodes = (
(100,380,l),
(100,490,o),
(190,580,o),
(300,580,c),
(410,580,o),
(500,490,o),
(500,380,c),
(500,250,l),
(500,140,o),
(410,50,o),
(300,50,c),
(190,50,o),
(100,140,o),
(100,250,c)
);
}
);
width = 600;
}
);
unicode = 112;
},
{
glyphname = thorn;
kernLeft = lowercaseStraight;
lastChange = "2023-12-18 20:49:54 +0000";
layers = (
{
anchors = (
{
name = bottom;
pos = (300,0);
},
{
name = top;
pos = (300,630);
}
);
layerId = m01;
shapes = (
{
attr = {
identifier = ID0x168d678c0;
lineCapEnd = "1";
lineCapStart = "1";
strokeWidth = 100;
};
closed = 0;
nodes = (
(100,-220,l),
(100,850,l)
);
},
{
attr = {
identifier = ID0x168d678c0;
lineCapEnd = "1";
lineCapStart = "1";
strokeWidth = 100;
};
closed = 0;
nodes = (
(100,380,l),
(100,490,o),
(190,580,o),
(300,580,c),
(410,580,o),
(500,490,o),
(500,380,c),
(500,250,l),
(500,140,o),
(410,50,o),
(300,50,c),
(190,50,o),
(100,140,o),
(100,250,c)
);
}
);
width = 600;
}
);
unicode = 254;
},
{
glyphname = q;
kernLeft = lowercaseRound;
kernRight = lowercaseStraightDecender;
lastChange = "2023-12-18 20:55:51 +0000";
layers = (
{
anchors = (
{
name = bottom;
pos = (300,0);
},
{
name = top;
pos = (300,630);
}
);
layerId = m01;
shapes = (
{
attr = {
lineCapEnd = "1";
lineCapStart = "1";
strokeWidth = 100;
};
closed = 0;
nodes = (
(500,-220,l),
(500,580,l)
);
},
{
attr = {
lineCapEnd = "1";
lineCapStart = "1";
strokeWidth = 100;
};
closed = 0;
nodes = (
(500,250,l),
(500,140,o),
(410,50,o),
(300,50,c),
(190,50,o),
(100,140,o),
(100,250,c),
(100,380,l),
(100,490,o),
(190,580,o),
(300,580,c),
(410,580,o),
(500,490,o),
(500,380,c)
);
}
);
width = 600;
}
);
unicode = 113;
},
{
glyphname = r;
kernLeft = lowercaseStraight;
lastChange = "2023-12-19 17:06:21 +0000";
layers = (
{
anchors = (
{
name = bottom;
pos = (50,50);
},
{
name = top;
pos = (190,630);
}
);
layerId = m01;
shapes = (
{
attr = {
lineCapEnd = 1;
lineCapStart = 1;
strokeWidth = 100;
};
closed = 0;
nodes = (
(100,380,l),
(100,490,o),
(189,580,o),
(300,580,c)
);
},
{
attr = {
lineCapEnd = 1;
lineCapStart = 1;
strokeWidth = 100;
};
closed = 0;
nodes = (
(100,580,l),
(100,50,l)
);
}
);
width = 380;
}
);
unicode = 114;
},
{
glyphname = s;
lastChange = "2023-12-29 12:47:43 +0000";
layers = (
{
anchors = (
{
name = bottom;
pos = (277,50);
},
{
name = top;
pos = (277,630);
}
);
layerId = m01;
shapes = (
{
attr = {
lineCapEnd = 1;
lineCapStart = 1;
strokeWidth = 100;
};
closed = 0;
nodes = (
(112,95,l),
(149,64,o),
(188,50,o),
(277,50,c),
(322,50,l),
(395,50,o),
(454,109,o),
(454,183,c),
(454,183,l),
(454,256,o),
(395,315,o),
(322,315,c),
(232,315,l),
(159,315,o),
(100,374,o),
(100,448,c),
(100,448,l),
(100,521,o),
(159,580,o),
(232,580,c),
(277,580,l),
(365,580,o),
(405,566,o),
(441,535,c)
);
}
);
width = 554;
}
);
unicode = 115;
},
{
glyphname = germandbls;
lastChange = "2023-12-18 20:49:54 +0000";
layers = (
{
anchors = (
{
name = bottom;
pos = (300,0);
},
{
name = top;
pos = (300,1015);
}
);
layerId = m01;
shapes = (
{
attr = {
lineCapEnd = 1;
lineCapStart = 1;
strokeWidth = 100;
};
closed = 0;
nodes = (
(264,51,l),
(275,50,o),
(288,50,o),
(300,50,c),
(410,50,o),
(500,140,o),
(500,250,c),
(500,360,o),
(410,450,o),
(300,450,c)
);
},
{
attr = {
lineCapEnd = 1;
lineCapStart = 1;
strokeWidth = 100;
};
closed = 0;
nodes = (
(100,50,l),
(100,650,l),
(100,760,o),
(189,850,o),
(300,850,c),
(410,850,o),
(500,760,o),
(500,650,c),
(500,539,o),
(410,450,o),
(300,450,c)
);
}
);
width = 600;
}
);
unicode = 223;
},
{
glyphname = t;
kernLeft = lowerT;
kernRight = lowerT;
lastChange = "2023-12-22 12:48:55 +0000";
layers = (
{
anchors = (
{
name = bottom;
pos = (218,0);
},
{
name = center;
pos = (218,315);
},
{
name = top;
pos = (218,630);
},
{
name = topright;
pos = (415,1015);
}
);
layerId = m01;
shapes = (
{
attr = {
lineCapEnd = 1;
lineCapStart = 1;
strokeWidth = 100;
};
closed = 0;
nodes = (
(205,745,l),
(205,150,l),
(205,95,o),
(250,50,o),
(305,50,c),
(335,50,l)
);
},
{
attr = {
lineCapEnd = 1;
lineCapStart = 1;
strokeWidth = 100;
};
closed = 0;
nodes = (
(100,580,l),
(310,580,l)
);
}
);
width = 435;
}
);
unicode = 116;
},
{
glyphname = u;
kernRight = lowercaseStraight;
lastChange = "2023-12-28 17:25:11 +0000";
layers = (
{
anchors = (
{
name = bottom;
pos = (300,50);
},
{
name = ogonek;
pos = (549,100);
},
{
name = top;
pos = (300,630);
},
{
name = topright;
pos = (580,630);
}
);
layerId = m01;
shapes = (
{
attr = {
lineCapEnd = "1";
lineCapStart = "1";
strokeWidth = 100;
};
closed = 0;
nodes = (
(500,580,l),
(500,50,l)
);
},
{
attr = {
lineCapEnd = "1";
lineCapStart = "1";
strokeWidth = 100;
};
closed = 0;
nodes = (
(500,250,l),
(500,140,o),
(410,50,o),
(300,50,c),
(189,50,o),
(100,140,o),
(100,250,c),
(100,580,l)
);
}
);
width = 600;
}
);
unicode = 117;
},
{
glyphname = v;
lastChange = "2023-12-19 20:42:04 +0000";
layers = (
{
anchors = (
{
name = bottom;
pos = (300,50);
},
{
name = top;
pos = (300,630);
}
);
layerId = m01;
shapes = (
{
attr = {
lineCapEnd = 1;
lineCapStart = 1;
strokeWidth = 100;
};
closed = 0;
nodes = (
(500,580,l),
(300,50,l)
);
},
{
attr = {
lineCapEnd = 1;
lineCapStart = 1;
strokeWidth = 100;
};
closed = 0;
nodes = (
(300,50,l),
(100,580,l)
);
}
);
width = 600;
}
);
unicode = 118;
},
{
glyphname = w;
lastChange = "2023-12-21 13:19:01 +0000";
layers = (
{
anchors = (
{
name = bottom;
pos = (430,50);
},
{
name = top;
pos = (430,630);
}
);
layerId = m01;
shapes = (
{
attr = {
lineCapEnd = 1;
lineCapStart = 1;
strokeWidth = 100;
};
closed = 0;
nodes = (
(430,580,l),
(265,50,l)
);
},
{
attr = {
lineCapEnd = 1;
lineCapStart = 1;
strokeWidth = 100;
};
closed = 0;
nodes = (
(760,580,l),
(595,50,l)
);
},
{
attr = {
lineCapEnd = 1;
lineCapStart = 1;
strokeWidth = 100;
};
closed = 0;
nodes = (
(595,50,l),
(430,580,l)
);
},
{
attr = {
lineCapEnd = 1;
lineCapStart = 1;
strokeWidth = 100;
};
closed = 0;
nodes = (
(265,50,l),
(100,580,l)
);
}
);
width = 860;
}
);
unicode = 119;
},
{
glyphname = x;
kernLeft = lowercaseX;
kernRight = lowercaseX;
lastChange = "2023-12-19 20:32:04 +0000";
layers = (
{
anchors = (
{
name = bottom;
pos = (300,50);
},
{
name = top;
pos = (300,630);
}
);
layerId = m01;
shapes = (
{
attr = {
lineCapEnd = 1;
lineCapStart = 1;
strokeWidth = 100;
};
closed = 0;
nodes = (
(500,580,l),
(100,50,l)
);
},
{
attr = {
lineCapEnd = 1;
lineCapStart = 1;
strokeWidth = 100;
};
closed = 0;
nodes = (
(500,50,l),
(100,580,l)
);
}
);
width = 600;
}
);
unicode = 120;
},
{
glyphname = y;
kernRight = lowercaseStraightDecender;
lastChange = "2023-12-19 20:32:30 +0000";
layers = (
{
anchors = (
{
name = bottom;
pos = (300,50);
},
{
name = top;
pos = (300,630);
}
);
layerId = m01;
shapes = (
{
attr = {
lineCapEnd = 1;
lineCapStart = 1;
strokeWidth = 100;
};
closed = 0;
nodes = (
(500,250,l),
(500,140,o),
(410,50,o),
(300,50,c),
(189,50,o),
(100,140,o),
(100,250,c),
(100,580,l)
);
},
{
attr = {
lineCapEnd = 1;
lineCapStart = 1;
strokeWidth = 100;
};
closed = 0;
nodes = (
(500,580,l),
(500,-20,l),
(500,-130,o),
(410,-220,o),
(300,-220,c),
(245,-220,o),
(195,-198,o),
(158,-161,c)
);
}
);
width = 600;
}
);
unicode = 121;
},
{
glyphname = z;
lastChange = "2023-12-19 20:32:00 +0000";
layers = (
{
anchors = (
{
name = bottom;
pos = (300,50);
},
{
name = center;
pos = (300,340);
},
{
name = top;
pos = (300,630);
}
);
layerId = m01;
shapes = (
{
attr = {
lineCapEnd = 1;
lineCapStart = 1;
strokeWidth = 100;
};
closed = 0;
nodes = (
(500,580,l),
(100,50,l)
);
},
{
attr = {
lineCapEnd = 1;
lineCapStart = 1;
strokeWidth = 100;
};
closed = 0;
nodes = (
(100,50,l),
(500,50,l)
);
},
{
attr = {
lineCapEnd = 1;
lineCapStart = 1;
strokeWidth = 100;
};
closed = 0;
nodes = (
(100,580,l),
(500,580,l)
);
}
);
width = 600;
}
);
unicode = 122;
},
{
glyphname = f_f;
lastChange = "2023-12-18 20:49:54 +0000";
layers = (
{
anchors = (
{
name = caret_1;
pos = (431,0);
}
);
layerId = m01;
shapes = (
{
attr = {
lineCapEnd = 1;
lineCapStart = 1;
strokeWidth = 100;
};
closed = 0;
nodes = (
(100,580,l),
(652,580,l)
);
},
{
attr = {
lineCapEnd = 1;
lineCapStart = 1;
strokeWidth = 100;
};
closed = 0;
nodes = (
(205,50,l),
(205,710,l),
(205,787,o),
(268,850,o),
(345,850,c),
(362,850,o),
(377,849,o),
(390,847,c)
);
},
{
attr = {
lineCapEnd = 1;
lineCapStart = 1;
strokeWidth = 100;
};
closed = 0;
nodes = (
(481,50,l),
(481,710,l),
(481,787,o),
(544,850,o),
(621,850,c),
(690,850,o),
(733,830,o),
(762,791,c)
);
}
);
width = 862;
}
);
metricLeft = f;
metricRight = f;
},
{
glyphname = f_f_i;
lastChange = "2023-12-18 20:49:54 +0000";
layers = (
{
anchors = (
{
name = caret_1;
pos = (306,0);
},
{
name = caret_2;
pos = (612,0);
}
);
layerId = m01;
shapes = (
{
attr = {
lineCapEnd = 1;
lineCapStart = 1;
strokeWidth = 100;
};
closed = 0;
nodes = (
(818,580,l),
(818,50,l)
);
},
{
attr = {
lineCapEnd = 1;
lineCapStart = 1;
strokeWidth = 100;
};
closed = 0;
nodes = (
(818,580,l),
(100,580,l)
);
},
{
attr = {
lineCapEnd = 1;
lineCapStart = 1;
strokeWidth = 100;
};
closed = 0;
nodes = (
(205,50,l),
(205,710,l),
(205,787,o),
(268,850,o),
(345,850,c),
(345,850,o),
(377,849,o),
(391,847,c)
);
},
{
attr = {
lineCapEnd = 1;
lineCapStart = 1;
strokeWidth = 100;
};
closed = 0;
nodes = (
(481,50,l),
(481,710,l),
(481,787,o),
(544,850,o),
(621,850,c),
(690,850,o),
(734,830,o),
(763,791,c)
);
}
);
width = 918;
}
);
metricLeft = f;
metricRight = i;
},
{
glyphname = f_f_l;
lastChange = "2023-12-18 20:49:54 +0000";
layers = (
{
anchors = (
{
name = caret_1;
pos = (349,0);
},
{
name = caret_2;
pos = (698,0);
}
);
layerId = m01;
shapes = (
{
attr = {
lineCapEnd = 1;
lineCapStart = 1;
strokeWidth = 100;
};
closed = 0;
nodes = (
(375,580,l),
(642,580,l)
);
},
{
attr = {
lineCapEnd = 1;
lineCapStart = 1;
strokeWidth = 100;
};
closed = 0;
nodes = (
(480,50,l),
(480,710,l),
(480,787,o),
(543,850,o),
(620,850,c),
(675,850,l),
(744,850,o),
(788,830,o),
(817,792,c)
);
},
{
attr = {
lineCapEnd = 1;
lineCapStart = 1;
strokeWidth = 100;
};
closed = 0;
nodes = (
(205,50,l),
(205,710,l),
(205,787,o),
(267,850,o),
(345,850,c),
(361,850,o),
(376,849,o),
(390,847,c)
);
},
{
attr = {
lineCapEnd = 1;
lineCapStart = 1;
strokeWidth = 100;
};
closed = 0;
nodes = (
(100,580,l),
(642,580,l)
);
},
{
attr = {
lineCapEnd = 1;
lineCapStart = 1;
strokeWidth = 100;
};
closed = 0;
nodes = (
(817,792,l),
(817,150,l),
(817,95,o),
(862,50,o),
(917,50,c),
(947,50,l)
);
}
);
width = 1047;
}
);
metricLeft = f;
metricRight = l;
},
{
glyphname = f_f_t;
lastChange = "2023-12-18 20:49:54 +0000";
layers = (
{
anchors = (
{
name = bottom_1;
pos = (173,0);
},
{
name = bottom_2;
pos = (519,0);
},
{
name = bottom_3;
pos = (865,0);
},
{
name = caret_1;
pos = (346,0);
},
{
name = caret_2;
pos = (692,0);
},
{
name = top_1;
pos = (173,1015);
},
{
name = top_2;
pos = (519,1015);
},
{
name = top_3;
pos = (865,1015);
}
);
layerId = m01;
shapes = (
{
attr = {
lineCapEnd = 1;
lineCapStart = 1;
strokeWidth = 100;
};
closed = 0;
nodes = (
(808,745,l),
(808,150,l),
(808,95,o),
(853,50,o),
(908,50,c),
(938,50,l)
);
},
{
attr = {
lineCapEnd = 1;
lineCapStart = 1;
strokeWidth = 100;
};
closed = 0;
nodes = (
(913,580,l),
(100,580,l)
);
},
{
attr = {
lineCapEnd = 1;
lineCapStart = 1;
strokeWidth = 100;
};
closed = 0;
nodes = (
(480,50,l),
(480,710,l),
(480,787,o),
(543,850,o),
(620,850,c),
(620,850,o),
(652,849,o),
(666,847,c)
);
},
{
attr = {
lineCapEnd = 1;
lineCapStart = 1;
strokeWidth = 100;
};
closed = 0;
nodes = (
(205,50,l),
(205,710,l),
(205,787,o),
(267,850,o),
(345,850,c),
(345,850,o),
(376,849,o),
(390,847,c)
);
}
);
width = 1038;
}
);
metricLeft = f;
metricRight = t;
},
{
glyphname = f_t;
lastChange = "2023-12-18 20:49:54 +0000";
layers = (
{
anchors = (
{
name = bottom_1;
pos = (194,0);
},
{
name = bottom_2;
pos = (581,0);
},
{
name = caret_1;
pos = (387.5,0);
},
{
name = top_1;
pos = (194,1015);
},
{
name = top_2;
pos = (581,1015);
}
);
layerId = m01;
shapes = (
{
attr = {
lineCapEnd = 1;
lineCapStart = 1;
strokeWidth = 100;
};
closed = 0;
nodes = (
(545,745,l),
(545,150,l),
(545,95,o),
(590,50,o),
(645,50,c),
(675,50,l)
);
},
{
attr = {
lineCapEnd = 1;
lineCapStart = 1;
strokeWidth = 100;
};
closed = 0;
nodes = (
(217,50,l),
(217,710,l),
(217,787,o),
(280,850,o),
(357,850,c),
(374,850,o),
(389,849,o),
(402,846,c)
);
},
{
attr = {
lineCapEnd = 1;
lineCapStart = 1;
strokeWidth = 100;
};
closed = 0;
nodes = (
(100,580,l),
(650,580,l)
);
}
);
width = 775;
}
);
metricLeft = f;
metricRight = t;
},
{
glyphname = fi;
lastChange = "2023-12-18 20:49:54 +0000";
layers = (
{
anchors = (
{
name = caret_1;
pos = (321,0);
}
);
layerId = m01;
shapes = (
{
attr = {
lineCapEnd = 1;
lineCapStart = 1;
strokeWidth = 100;
};
closed = 0;
nodes = (
(100,580,l),
(542,580,l)
);
},
{
attr = {
lineCapEnd = 1;
lineCapStart = 1;
strokeWidth = 100;
};
closed = 0;
nodes = (
(205,50,l),
(205,710,l),
(205,788,o),
(268,850,o),
(345,850,c),
(400,850,l),
(469,850,o),
(513,830,o),
(542,792,c)
);
},
{
attr = {
lineCapEnd = 1;
lineCapStart = 1;
strokeWidth = 100;
};
closed = 0;
nodes = (
(542,580,l),
(542,50,l)
);
}
);
width = 642;
}
);
metricLeft = f;
metricRight = i;
unicode = 64257;
},
{
glyphname = fl;
lastChange = "2023-12-18 20:49:54 +0000";
layers = (
{
anchors = (
{
name = caret_1;
pos = (386,0);
}
);
layerId = m01;
shapes = (
{
attr = {
lineCapEnd = 1;
lineCapStart = 1;
strokeWidth = 100;
};
closed = 0;
nodes = (
(100,630,l),
(367,630,l)
);
},
{
attr = {
lineCapEnd = 1;
lineCapStart = 1;
strokeWidth = 100;
};
closed = 0;
nodes = (
(206,100,l),
(206,760,l),
(206,837,o),
(268,900,o),
(346,900,c),
(400,900,l),
(469,900,o),
(513,880,o),
(542,841,c)
);
},
{
attr = {
lineCapEnd = 1;
lineCapStart = 1;
strokeWidth = 100;
};
closed = 0;
nodes = (
(542,841,l),
(542,200,l),
(542,145,o),
(587,100,o),
(642,100,c),
(672,100,l)
);
}
);
width = 772;
}
);
metricLeft = f;
metricRight = l;
unicode = 64258;
},
{
glyphname = t_t;
kernLeft = lowerT;
kernRight = lowerT;
lastChange = "2023-12-19 07:34:59 +0000";
layers = (
{
anchors = (
{
name = bottom_1;
pos = (188,0);
},
{
name = bottom_2;
pos = (563,0);
},
{
name = caret_1;
pos = (375,0);
},
{
name = center_1;
pos = (188,315);
},
{
name = center_2;
pos = (563,315);
},
{
name = top_1;
pos = (188,630);
},
{
name = top_2;
pos = (563,630);
},
{
name = topright_1;
pos = (730,1015);
},
{
name = topright_2;
pos = (730,1015);
}
);
layerId = m01;
shapes = (
{
attr = {
lineCapEnd = 1;
lineCapStart = 1;
strokeWidth = 100;
};
closed = 0;
nodes = (
(205,745,l),
(205,150,l),
(205,95,o),
(250,50,o),
(305,50,c),
(335,50,l)
);
},
{
attr = {
lineCapEnd = 1;
lineCapStart = 1;
strokeWidth = 100;
};
closed = 0;
nodes = (
(520,745,l),
(520,150,l),
(520,95,o),
(565,50,o),
(620,50,c),
(650,50,l)
);
},
{
attr = {
lineCapEnd = 1;
lineCapStart = 1;
strokeWidth = 100;
};
closed = 0;
nodes = (
(100,580,l),
(625,580,l)
);
}
);
width = 750;
}
);
metricLeft = t;
metricRight = t;
},
{
glyphname = "Be-cy";
lastChange = "2023-12-18 20:43:42 +0000";
layers = (
{
layerId = m01;
shapes = (
{
attr = {
lineCapEnd = 1;
lineCapStart = 1;
strokeWidth = 100;
};
closed = 0;
nodes = (
(100,50,l),
(430,50,l),
(541,50,o),
(630,140,o),
(630,250,c),
(630,360,o),
(541,450,o),
(430,450,c),
(100,450,l)
);
},
{
attr = {
lineCapEnd = 1;
lineCapStart = 1;
strokeWidth = 100;
};
closed = 0;
nodes = (
(530,850,l),
(100,850,l)
);
},
{
attr = {
lineCapEnd = 1;
lineCapStart = 1;
strokeWidth = 100;
};
closed = 0;
nodes = (
(100,850,l),
(100,50,l)
);
}
);
width = 730;
}
);
unicode = 1041;
},
{
glyphname = "Ge-cy";
lastChange = "2023-12-18 20:49:54 +0000";
layers = (
{
anchors = (
{
name = bottomright;
pos = (700,0);
},
{
name = top;
pos = (360,900);
}
);
layerId = m01;
shapes = (
{
attr = {
lineCapEnd = 1;
lineCapStart = 1;
strokeWidth = 100;
};
closed = 0;
nodes = (
(100,50,l),
(100,850,l)
);
},
{
attr = {
lineCapEnd = 1;
lineCapStart = 1;
strokeWidth = 100;
};
closed = 0;
nodes = (
(100,850,l),
(620,850,l)
);
}
);
width = 720;
}
);
unicode = 1043;
},
{
glyphname = "Geupturn-cy";
lastChange = "2023-12-18 20:43:42 +0000";
layers = (
{
layerId = m01;
shapes = (
{
ref = "Ge-cy";
},
{
attr = {
lineCapEnd = 1;
lineCapStart = 1;
strokeWidth = 100;
};
closed = 0;
nodes = (
(620,850,l),
(620,1010,l)
);
}
);
width = 720;
}
);
unicode = 1168;
},
{
glyphname = "De-cy";
lastChange = "2023-12-18 20:43:42 +0000";
layers = (
{
layerId = m01;
shapes = (
{
attr = {
lineCapEnd = 1;
lineCapStart = 1;
strokeWidth = 100;
};
closed = 0;
nodes = (
(800,50,l),
(100,50,l)
);
},
{
attr = {
lineCapEnd = 1;
lineCapStart = 1;
strokeWidth = 100;
};
closed = 0;
nodes = (
(690,50,l),
(690,805,l)
);
},
{
attr = {
lineCapEnd = 1;
lineCapStart = 1;
strokeWidth = 100;
};
closed = 0;
nodes = (
(800,-155,l),
(800,50,l)
);
},
{
attr = {
lineCapEnd = 1;
lineCapStart = 1;
strokeWidth = 100;
};
closed = 0;
nodes = (
(100,50,l),
(100,-155,l)
);
},
{
attr = {
lineCapEnd = 1;
lineCapStart = 1;
strokeWidth = 100;
};
closed = 0;
nodes = (
(310,805,l),
(310,497,o),
(288,296,o),
(200,50,c)
);
},
{
attr = {
lineCapEnd = 1;
lineCapStart = 1;
strokeWidth = 100;
};
closed = 0;
nodes = (
(690,805,l),
(310,805,l)
);
}
);
width = 900;
}
);
unicode = 1044;
},
{
glyphname = "Zhe-cy";
lastChange = "2023-12-18 20:49:54 +0000";
layers = (
{
anchors = (
{
name = bottomright;
pos = (980,0);
},
{
name = top;
pos = (500,900);
}
);
layerId = m01;
shapes = (
{
attr = {
lineCapEnd = 1;
lineCapStart = 1;
strokeWidth = 100;
};
closed = 0;
nodes = (
(500,850,l),
(500,50,l)
);
},
{
attr = {
lineCapEnd = 1;
lineCapStart = 1;
strokeWidth = 100;
};
closed = 0;
nodes = (
(900,50,l),
(739,335,l),
(699,406,o),
(624,450,o),
(542,450,c),
(459,450,l),
(377,450,o),
(302,406,o),
(262,335,c),
(100,50,l)
);
},
{
attr = {
lineCapEnd = 1;
lineCapStart = 1;
strokeWidth = 100;
};
closed = 0;
nodes = (
(100,850,l),
(262,565,l),
(302,494,o),
(377,450,o),
(459,450,c),
(542,450,l),
(624,450,o),
(699,494,o),
(739,565,c),
(900,850,l)
);
}
);
width = 1000;
}
);
unicode = 1046;
},
{
glyphname = "Ze-cy";
lastChange = "2023-12-18 20:49:54 +0000";
layers = (
{
anchors = (
{
name = bottom;
pos = (340,0);
},
{
name = top;
pos = (340,900);
}
);
layerId = m01;
shapes = (
{
attr = {
lineCapEnd = "1";
lineCapStart = "1";
strokeWidth = 100;
};
closed = 0;
nodes = (
(100,783,l),
(156,829,o),
(215,850,o),
(349,850,c),
(380,850,l),
(491,850,o),
(580,760,o),
(580,650,c),
(580,540,o),
(491,450,o),
(380,450,c)
);
},
{
attr = {
lineCapEnd = "1";
lineCapStart = "1";
strokeWidth = 100;
};
closed = 0;
nodes = (
(100,117,l),
(156,71,o),
(215,50,o),
(349,50,c),
(380,50,l),
(491,50,o),
(580,140,o),
(580,250,c),
(580,360,o),
(491,450,o),
(380,450,c)
);
},
{
attr = {
lineCapEnd = "1";
lineCapStart = "1";
strokeWidth = 100;
};
closed = 0;
nodes = (
(227,450,l),
(381,450,l)
);
}
);
width = 680;
}
);
unicode = 1047;
},
{
glyphname = "Ii-cy";
lastChange = "2023-12-18 20:49:54 +0000";
layers = (
{
anchors = (
{
name = bottomright;
pos = (710,0);
},
{
name = top;
pos = (365,900);
}
);
layerId = m01;
shapes = (
{
attr = {
lineCapEnd = 1;
lineCapStart = 1;
strokeWidth = 100;
};
closed = 0;
nodes = (
(630,850,l),
(100,50,l)
);
},
{
attr = {
lineCapEnd = 1;
lineCapStart = 1;
strokeWidth = 100;
};
closed = 0;
nodes = (
(100,50,l),
(100,850,l)
);
},
{
attr = {
lineCapEnd = 1;
lineCapStart = 1;
strokeWidth = 100;
};
closed = 0;
nodes = (
(630,50,l),
(630,850,l)
);
}
);
width = 730;
}
);
unicode = 1048;
},
{
glyphname = "Iishort-cy";
lastChange = "2023-12-18 20:43:42 +0000";
layers = (
{
layerId = m01;
shapes = (
{
attr = {
lineCapEnd = "1";
lineCapStart = "1";
strokeWidth = 100;
};
closed = 0;
nodes = (
(225,1155,l),
(225,1077,o),
(288,1015,o),
(365,1015,c),
(443,1015,o),
(505,1077,o),
(505,1155,c)
);
},
{
attr = {
lineCapEnd = "1";
lineCapStart = "1";
strokeWidth = 100;
};
closed = 0;
nodes = (
(630,850,l),
(100,50,l)
);
},
{
attr = {
lineCapEnd = "1";
lineCapStart = "1";
strokeWidth = 100;
};
closed = 0;
nodes = (
(100,50,l),
(100,850,l)
);
},
{
attr = {
lineCapEnd = "1";
lineCapStart = "1";
strokeWidth = 100;
};
closed = 0;
nodes = (
(630,50,l),
(630,850,l)
);
}
);
width = 730;
}
);
unicode = 1049;
},
{
glyphname = "Ka-cy";
lastChange = "2023-12-18 20:49:54 +0000";
layers = (
{
anchors = (
{
name = bottomright;
pos = (710,0);
},
{
name = top;
pos = (365,900);
}
);
layerId = m01;
shapes = (
{
attr = {
lineCapEnd = 1;
lineCapStart = 1;
strokeWidth = 100;
};
closed = 0;
nodes = (
(100,850,l),
(100,50,l)
);
},
{
attr = {
lineCapEnd = 1;
lineCapStart = 1;
strokeWidth = 100;
};
closed = 0;
nodes = (
(100,450,l),
(204,450,l),
(305,450,o),
(399,500,o),
(454,584,c),
(630,850,l)
);
},
{
attr = {
lineCapEnd = 1;
lineCapStart = 1;
strokeWidth = 100;
};
closed = 0;
nodes = (
(100,450,l),
(204,450,l),
(305,450,o),
(399,400,o),
(454,316,c),
(630,50,l)
);
}
);
width = 730;
}
);
unicode = 1050;
},
{
glyphname = "El-cy";
kernRight = uppercaseStraight;
lastChange = "2023-12-18 20:43:42 +0000";
layers = (
{
layerId = m01;
shapes = (
{
attr = {
lineCapEnd = 1;
lineCapStart = 1;
strokeWidth = 100;
};
closed = 0;
nodes = (
(251,850,l),
(251,414,l),
(251,278,o),
(197,147,o),
(100,50,c)
);
},
{
attr = {
lineCapEnd = 1;
lineCapStart = 1;
strokeWidth = 100;
};
closed = 0;
nodes = (
(680,50,l),
(680,850,l)
);
},
{
attr = {
lineCapEnd = 1;
lineCapStart = 1;
strokeWidth = 100;
};
closed = 0;
nodes = (
(680,850,l),
(251,850,l)
);
}
);
width = 780;
}
);
unicode = 1051;
},
{
glyphname = "Pe-cy";
lastChange = "2023-12-18 20:49:54 +0000";
layers = (
{
anchors = (
{
name = bottomright;
pos = (710,0);
}
);
layerId = m01;
shapes = (
{
attr = {
lineCapEnd = 1;
lineCapStart = 1;
strokeWidth = 100;
};
closed = 0;
nodes = (
(100,850,l),
(630,850,l)
);
},
{
attr = {
lineCapEnd = 1;
lineCapStart = 1;
strokeWidth = 100;
};
closed = 0;
nodes = (
(630,850,l),
(630,50,l)
);
},
{
attr = {
lineCapEnd = 1;
lineCapStart = 1;
strokeWidth = 100;
};
closed = 0;
nodes = (
(100,50,l),
(100,850,l)
);
}
);
width = 730;
}
);
unicode = 1055;
},
{
glyphname = "U-cy";
lastChange = "2023-12-18 20:49:54 +0000";
layers = (
{
anchors = (
{
name = top;
pos = (365,900);
}
);
layerId = m01;
shapes = (
{
attr = {
lineCapEnd = 1;
lineCapStart = 1;
strokeWidth = 100;
};
closed = 0;
nodes = (
(382,320,l),
(100,850,l)
);
},
{
attr = {
lineCapEnd = 1;
lineCapStart = 1;
strokeWidth = 100;
};
closed = 0;
nodes = (
(630,850,l),
(296,136,l),
(272,84,o),
(219,50,o),
(160,50,c),
(100,50,l)
);
}
);
width = 730;
}
);
unicode = 1059;
},
{
glyphname = "Ef-cy";
lastChange = "2023-12-18 20:43:42 +0000";
layers = (
{
layerId = m01;
shapes = (
{
attr = {
lineCapEnd = 1;
lineCapStart = 1;
strokeWidth = 100;
};
closed = 0;
nodes = (
(500,850,l),
(500,50,l)
);
},
{
attr = {
strokeWidth = 100;
};
closed = 1;
nodes = (
(235,150,o),
(100,285,o),
(100,450,c),
(100,616,o),
(235,750,o),
(400,750,c),
(600,750,l),
(766,750,o),
(900,616,o),
(900,450,c),
(900,285,o),
(766,150,o),
(600,150,c),
(400,150,l)
);
}
);
width = 1000;
}
);
unicode = 1060;
},
{
glyphname = "Che-cy";
lastChange = "2023-12-18 20:49:54 +0000";
layers = (
{
anchors = (
{
name = bottomright;
pos = (710,0);
},
{
name = top;
pos = (365,900);
}
);
layerId = m01;
shapes = (
{
attr = {
lineCapEnd = 1;
lineCapStart = 1;
strokeWidth = 100;
};
closed = 0;
nodes = (
(630,850,l),
(630,350,l),
(380,350,l),
(226,350,o),
(100,475,o),
(100,630,c),
(100,850,l)
);
},
{
attr = {
lineCapEnd = 1;
lineCapStart = 1;
strokeWidth = 100;
};
closed = 0;
nodes = (
(630,350,l),
(630,50,l)
);
}
);
width = 730;
}
);
unicode = 1063;
},
{
glyphname = "Tse-cy";
lastChange = "2023-12-18 20:43:42 +0000";
layers = (
{
layerId = m01;
shapes = (
{
attr = {
lineCapEnd = 1;
lineCapStart = 1;
strokeWidth = 100;
};
closed = 0;
nodes = (
(100,50,l),
(100,850,l)
);
},
{
attr = {
lineCapEnd = 1;
lineCapStart = 1;
strokeWidth = 100;
};
closed = 0;
nodes = (
(630,850,l),
(630,50,l)
);
},
{
attr = {
lineCapEnd = 1;
lineCapStart = 1;
strokeWidth = 100;
};
closed = 0;
nodes = (
(630,50,l),
(730,50,l)
);
},
{
attr = {
lineCapEnd = 1;
lineCapStart = 1;
strokeWidth = 100;
};
closed = 0;
nodes = (
(730,50,l),
(730,-85,l)
);
},
{
attr = {
lineCapEnd = 1;
lineCapStart = 1;
strokeWidth = 100;
};
closed = 0;
nodes = (
(630,50,l),
(100,50,l)
);
}
);
width = 830;
}
);
unicode = 1062;
},
{
glyphname = "Sha-cy";
lastChange = "2023-12-18 20:43:42 +0000";
layers = (
{
layerId = m01;
shapes = (
{
attr = {
lineCapEnd = "1";
lineCapStart = "1";
strokeWidth = 100;
};
closed = 0;
nodes = (
(100,50,l),
(100,850,l)
);
},
{
attr = {
lineCapEnd = "1";
lineCapStart = "1";
strokeWidth = 100;
};
closed = 0;
nodes = (
(500,850,l),
(500,50,l)
);
},
{
attr = {
lineCapEnd = "1";
lineCapStart = "1";
strokeWidth = 100;
};
closed = 0;
nodes = (
(900,850,l),
(900,50,l)
);
},
{
attr = {
lineCapEnd = "1";
lineCapStart = "1";
strokeWidth = 100;
};
closed = 0;
nodes = (
(100,50,l),
(900,50,l)
);
}
);
width = 1000;
}
);
unicode = 1064;
},
{
glyphname = "Shcha-cy";
lastChange = "2023-12-18 20:43:42 +0000";
layers = (
{
layerId = m01;
shapes = (
{
attr = {
lineCapEnd = "1";
lineCapStart = "1";
strokeWidth = 100;
};
closed = 0;
nodes = (
(100,50,l),
(100,850,l)
);
},
{
attr = {
lineCapEnd = "1";
lineCapStart = "1";
strokeWidth = 100;
};
closed = 0;
nodes = (
(500,850,l),
(500,50,l)
);
},
{
attr = {
lineCapEnd = "1";
lineCapStart = "1";
strokeWidth = 100;
};
closed = 0;
nodes = (
(900,850,l),
(900,50,l),
(1000,50,l)
);
},
{
attr = {
lineCapEnd = "1";
lineCapStart = "1";
strokeWidth = 100;
};
closed = 0;
nodes = (
(100,50,l),
(900,50,l)
);
},
{
attr = {
lineCapEnd = "1";
lineCapStart = "1";
strokeWidth = 100;
};
closed = 0;
nodes = (
(1000,50,l),
(1000,-85,l)
);
}
);
width = 1100;
}
);
unicode = 1065;
},
{
glyphname = "Dzhe-cy";
lastChange = "2023-12-29 12:45:37 +0000";
layers = (
{
layerId = m01;
shapes = (
{
attr = {
lineCapEnd = "1";
lineCapStart = "1";
strokeWidth = 100;
};
closed = 0;
nodes = (
(100,50,l),
(100,850,l)
);
},
{
attr = {
lineCapEnd = "1";
lineCapStart = "1";
strokeWidth = 100;
};
closed = 0;
nodes = (
(630,850,l),
(630,50,l)
);
},
{
attr = {
lineCapEnd = "1";
lineCapStart = "1";
strokeWidth = 100;
};
closed = 0;
nodes = (
(370,50,l),
(370,-85,l)
);
},
{
attr = {
lineCapEnd = "1";
lineCapStart = "1";
strokeWidth = 100;
};
closed = 0;
nodes = (
(630,50,l),
(100,50,l)
);
}
);
width = 730;
}
);
unicode = 1039;
},
{
glyphname = "Softsign-cy";
lastChange = "2023-12-28 17:26:44 +0000";
layers = (
{
layerId = m01;
shapes = (
{
attr = {
lineCapEnd = "1";
lineCapStart = "1";
strokeWidth = 100;
};
closed = 0;
nodes = (
(100,50,l),
(430,50,l),
(541,50,o),
(630,140,o),
(630,250,c),
(630,360,o),
(541,450,o),
(430,450,c),
(100,450,l)
);
},
{
attr = {
lineCapEnd = "1";
lineCapStart = "1";
strokeWidth = 100;
};
closed = 0;
nodes = (
(100,850,l),
(100,50,l)
);
}
);
width = 730;
}
);
unicode = 1068;
},
{
glyphname = "Yeru-cy";
lastChange = "2023-12-18 20:49:54 +0000";
layers = (
{
anchors = (
{
name = top;
pos = (460,900);
}
);
layerId = m01;
shapes = (
{
attr = {
lineCapEnd = 1;
lineCapStart = 1;
strokeWidth = 100;
};
closed = 0;
nodes = (
(100,50,l),
(430,50,l),
(540,50,o),
(630,140,o),
(630,250,c),
(630,360,o),
(540,450,o),
(430,450,c),
(100,450,l)
);
},
{
attr = {
lineCapEnd = 1;
lineCapStart = 1;
strokeWidth = 100;
};
closed = 0;
nodes = (
(100,850,l),
(100,50,l)
);
},
{
attr = {
lineCapEnd = 1;
lineCapStart = 1;
strokeWidth = 100;
};
closed = 0;
nodes = (
(820,850,l),
(820,50,l)
);
}
);
width = 920;
}
);
unicode = 1067;
},
{
glyphname = "Hardsign-cy";
lastChange = "2023-12-18 20:49:54 +0000";
layers = (
{
anchors = (
{
name = top;
pos = (455,900);
}
);
layerId = m01;
shapes = (
{
attr = {
lineCapEnd = 1;
lineCapStart = 1;
strokeWidth = 100;
};
closed = 0;
nodes = (
(280,50,l),
(610,50,l),
(720,50,o),
(810,140,o),
(810,250,c),
(810,360,o),
(720,450,o),
(610,450,c),
(280,450,l)
);
},
{
attr = {
lineCapEnd = 1;
lineCapStart = 1;
strokeWidth = 100;
};
closed = 0;
nodes = (
(280,850,l),
(100,850,l)
);
},
{
attr = {
lineCapEnd = 1;
lineCapStart = 1;
strokeWidth = 100;
};
closed = 0;
nodes = (
(280,850,l),
(280,50,l)
);
}
);
width = 910;
}
);
unicode = 1066;
},
{
glyphname = "Lje-cy";
lastChange = "2023-12-29 13:02:22 +0000";
layers = (
{
layerId = m01;
shapes = (
{
attr = {
identifier = ID0x28a2d3220;
lineCapEnd = "1";
lineCapStart = "1";
strokeWidth = 100;
};
closed = 0;
nodes = (
(620,50,l),
(890,50,l),
(1001,50,o),
(1090,140,o),
(1090,250,c),
(1090,360,o),
(1001,450,o),
(890,450,c),
(620,450,l)
);
},
{
attr = {
identifier = ID0x28a2d3220;
lineCapEnd = "1";
lineCapStart = "1";
strokeWidth = 100;
};
closed = 0;
nodes = (
(620,850,l),
(620,50,l)
);
},
{
attr = {
identifier = ID0x10194eb50;
lineCapEnd = 1;
lineCapStart = 1;
strokeWidth = 100;
};
closed = 0;
nodes = (
(251,850,l),
(251,414,l),
(251,278,o),
(197,147,o),
(100,50,c)
);
},
{
attr = {
identifier = ID0x10194eb50;
lineCapEnd = 1;
lineCapStart = 1;
strokeWidth = 100;
};
closed = 0;
nodes = (
(620,50,l),
(620,850,l)
);
},
{
attr = {
identifier = ID0x10194eb50;
lineCapEnd = 1;
lineCapStart = 1;
strokeWidth = 100;
};
closed = 0;
nodes = (
(620,850,l),
(251,850,l)
);
}
);
width = 1190;
}
);
metricLeft = "El-cy";
metricRight = "Softsign-cy";
unicode = 1033;
},
{
glyphname = "Nje-cy";
lastChange = "2023-12-29 13:01:53 +0000";
layers = (
{
layerId = m01;
shapes = (
{
attr = {
identifier = ID0x109ce0fa0;
lineCapEnd = "1";
lineCapStart = "1";
strokeWidth = 100;
};
closed = 0;
nodes = (
(550,50,l),
(820,50,l),
(931,50,o),
(1020,140,o),
(1020,250,c),
(1020,360,o),
(931,450,o),
(820,450,c),
(550,450,l)
);
},
{
attr = {
identifier = ID0x109ce0fa0;
lineCapEnd = "1";
lineCapStart = "1";
strokeWidth = 100;
};
closed = 0;
nodes = (
(550,850,l),
(550,50,l)
);
},
{
attr = {
identifier = ID0x109ce39a0;
lineCapEnd = 1;
lineCapStart = 1;
strokeWidth = 100;
};
closed = 0;
nodes = (
(100,850,l),
(100,50,l)
);
},
{
attr = {
identifier = ID0x109ce39a0;
lineCapEnd = 1;
lineCapStart = 1;
strokeWidth = 100;
};
closed = 0;
nodes = (
(100,452,l),
(550,452,l)
);
}
);
width = 1120;
}
);
metricLeft = H;
metricRight = "Softsign-cy";
unicode = 1034;
},
{
glyphname = "E-cy";
lastChange = "2023-12-18 20:43:42 +0000";
layers = (
{
layerId = m01;
shapes = (
{
attr = {
lineCapEnd = "1";
lineCapStart = "1";
strokeWidth = 100;
};
closed = 0;
nodes = (
(100,450,l),
(477,450,l)
);
},
{
attr = {
lineCapEnd = "1";
lineCapStart = "1";
strokeWidth = 100;
};
closed = 0;
nodes = (
(663,202,l),
(611,111,o),
(514,50,o),
(402,50,c),
(235,50,o),
(100,185,o),
(100,352,c),
(100,548,l),
(100,715,o),
(235,850,o),
(402,850,c),
(402,850,l),
(514,850,o),
(612,789,o),
(664,698,c)
);
}
);
width = 764;
}
);
unicode = 1028;
},
{
glyphname = "Ereversed-cy";
lastChange = "2023-12-18 20:49:54 +0000";
layers = (
{
anchors = (
{
name = top;
pos = (382,900);
}
);
layerId = m01;
shapes = (
{
attr = {
lineCapEnd = 1;
lineCapStart = 1;
strokeWidth = 100;
};
closed = 0;
nodes = (
(664,450,l),
(287,450,l)
);
},
{
attr = {
lineCapEnd = 1;
lineCapStart = 1;
strokeWidth = 100;
};
closed = 0;
nodes = (
(100,698,l),
(152,789,o),
(250,850,o),
(362,850,c),
(362,850,l),
(529,850,o),
(664,715,o),
(664,548,c),
(664,352,l),
(664,185,o),
(529,50,o),
(362,50,c),
(250,50,o),
(153,111,o),
(101,202,c)
);
}
);
width = 764;
}
);
unicode = 1069;
},
{
glyphname = "Tshe-cy";
lastChange = "2023-12-29 16:05:54 +0000";
layers = (
{
anchors = (
{
name = bottom;
pos = (365,50);
},
{
name = center;
pos = (365,475);
},
{
name = top;
pos = (365,900);
}
);
layerId = m01;
shapes = (
{
attr = {
identifier = ID0x109cffc60;
lineCapEnd = 1;
lineCapStart = 1;
strokeWidth = 100;
};
closed = 0;
nodes = (
(100,850,l),
(630,850,l)
);
},
{
attr = {
identifier = ID0x109cffc60;
lineCapEnd = 1;
lineCapStart = 1;
strokeWidth = 100;
};
closed = 0;
nodes = (
(365,50,l),
(365,850,l)
);
},
{
attr = {
identifier = ID0x109c38d80;
lineCapEnd = 1;
lineCapStart = 1;
strokeWidth = 100;
};
closed = 0;
nodes = (
(365,380,l),
(365,490,o),
(454,580,o),
(565,580,c),
(675,580,o),
(765,490,o),
(765,380,c),
(765,50,l)
);
}
);
width = 865;
}
);
metricLeft = T;
metricRight = h;
unicode = 1035;
},
{
glyphname = "Yu-cy";
lastChange = "2023-12-18 20:49:54 +0000";
layers = (
{
anchors = (
{
name = top;
pos = (500,900);
}
);
layerId = m01;
shapes = (
{
attr = {
lineCapEnd = 1;
lineCapStart = 1;
strokeWidth = 100;
};
closed = 0;
nodes = (
(100,50,l),
(100,850,l)
);
},
{
attr = {
lineCapEnd = 1;
lineCapStart = 1;
strokeWidth = 100;
};
closed = 0;
nodes = (
(100,450,l),
(370,450,l)
);
},
{
attr = {
strokeWidth = 100;
};
closed = 1;
nodes = (
(900,171,o),
(781,52,o),
(635,52,c),
(489,52,o),
(370,171,o),
(370,317,c),
(370,587,l),
(370,733,o),
(489,852,o),
(635,852,c),
(781,852,o),
(900,733,o),
(900,587,c),
(900,317,l)
);
}
);
width = 1000;
}
);
unicode = 1070;
},
{
glyphname = "Ya-cy";
kernRight = uppercaseStraight;
lastChange = "2023-12-18 20:49:54 +0000";
layers = (
{
anchors = (
{
name = top;
pos = (365,900);
}
);
layerId = m01;
shapes = (
{
attr = {
lineCapEnd = "1";
lineCapStart = "1";
strokeWidth = 100;
};
closed = 0;
nodes = (
(375,320,l),
(106,50,l)
);
},
{
attr = {
lineCapEnd = "1";
lineCapStart = "1";
strokeWidth = 100;
};
closed = 0;
nodes = (
(630,50,l),
(630,850,l)
);
},
{
attr = {
lineCapEnd = "1";
lineCapStart = "1";
strokeWidth = 100;
};
closed = 0;
nodes = (
(630,320,l),
(365,320,l),
(219,320,o),
(100,439,o),
(100,585,c),
(100,731,o),
(219,850,o),
(365,850,c),
(630,850,l)
);
}
);
width = 730;
}
);
unicode = 1071;
},
{
glyphname = "Dje-cy";
lastChange = "2023-12-29 16:06:27 +0000";
layers = (
{
layerId = m01;
shapes = (
{
attr = {
identifier = ID0x109cffc60;
lineCapEnd = "1";
lineCapStart = "1";
strokeWidth = 100;
};
closed = 0;
nodes = (
(100,850,l),
(630,850,l)
);
},
{
attr = {
identifier = ID0x109cffc60;
lineCapEnd = "1";
lineCapStart = "1";
strokeWidth = 100;
};
closed = 0;
nodes = (
(365,50,l),
(365,850,l)
);
},
{
attr = {
identifier = ID0x109c38d80;
lineCapEnd = "1";
lineCapStart = "1";
strokeWidth = 100;
};
closed = 0;
nodes = (
(365,380,l),
(365,490,o),
(454,580,o),
(565,580,c),
(675,580,o),
(765,490,o),
(765,380,c),
(765,178,l)
);
},
{
attr = {
lineCapEnd = "1";
lineCapStart = "1";
strokeWidth = 100;
};
closed = 0;
nodes = (
(639,50,l),
(709,50,o),
(765,107,o),
(765,178,c),
(765,185,l)
);
}
);
width = 865;
}
);
metricLeft = T;
metricRight = h;
unicode = 1026;
},
{
glyphname = "be-cy";
lastChange = "2023-12-18 20:43:42 +0000";
layers = (
{
layerId = m01;
shapes = (
{
attr = {
strokeWidth = 100;
};
closed = 1;
nodes = (
(630,169,o),
(512,50,o),
(365,50,c),
(219,50,o),
(100,169,o),
(100,315,c),
(100,461,o),
(219,580,o),
(365,580,c),
(512,580,o),
(630,461,o),
(630,315,c)
);
},
{
attr = {
lineCapEnd = 1;
lineCapStart = 1;
strokeWidth = 100;
};
closed = 0;
nodes = (
(530,850,l),
(365,850,l),
(219,850,o),
(100,731,o),
(100,585,c),
(100,315,l)
);
}
);
width = 730;
}
);
unicode = 1073;
},
{
glyphname = "ve-cy";
kernLeft = lowercaseStraight;
lastChange = "2023-12-18 20:43:42 +0000";
layers = (
{
layerId = m01;
shapes = (
{
attr = {
lineCapEnd = 1;
lineCapStart = 1;
strokeWidth = 100;
};
closed = 0;
nodes = (
(100,50,l),
(100,580,l)
);
},
{
attr = {
lineCapEnd = 1;
lineCapStart = 1;
strokeWidth = 100;
};
closed = 0;
nodes = (
(369,315,l),
(100,315,l)
);
},
{
attr = {
lineCapEnd = 1;
lineCapStart = 1;
strokeWidth = 100;
};
closed = 0;
nodes = (
(369,580,l),
(442,580,o),
(500,521,o),
(500,448,c),
(500,374,o),
(442,315,o),
(369,315,c)
);
},
{
attr = {
lineCapEnd = 1;
lineCapStart = 1;
strokeWidth = 100;
};
closed = 0;
nodes = (
(369,315,l),
(442,315,o),
(500,256,o),
(500,183,c),
(500,109,o),
(442,50,o),
(369,50,c)
);
},
{
attr = {
lineCapEnd = 1;
lineCapStart = 1;
strokeWidth = 100;
};
closed = 0;
nodes = (
(100,580,l),
(369,580,l)
);
},
{
attr = {
lineCapEnd = 1;
lineCapStart = 1;
strokeWidth = 100;
};
closed = 0;
nodes = (
(369,50,l),
(100,50,l)
);
}
);
width = 600;
}
);
unicode = 1074;
},
{
glyphname = "ge-cy";
kernLeft = lowercaseStraight;
lastChange = "2023-12-18 20:49:54 +0000";
layers = (
{
anchors = (
{
name = bottomright;
pos = (530,0);
},
{
name = top;
pos = (275,630);
}
);
layerId = m01;
shapes = (
{
attr = {
lineCapEnd = 1;
lineCapStart = 1;
strokeWidth = 100;
};
closed = 0;
nodes = (
(100,50,l),
(100,580,l)
);
},
{
attr = {
lineCapEnd = 1;
lineCapStart = 1;
strokeWidth = 100;
};
closed = 0;
nodes = (
(100,580,l),
(450,580,l)
);
}
);
width = 550;
}
);
unicode = 1075;
},
{
glyphname = "geupturn-cy";
kernLeft = lowercaseStraight;
lastChange = "2023-12-18 20:43:42 +0000";
layers = (
{
layerId = m01;
shapes = (
{
ref = "ge-cy";
},
{
attr = {
lineCapEnd = 1;
lineCapStart = 1;
strokeWidth = 100;
};
closed = 0;
nodes = (
(450,580,l),
(450,680,l)
);
}
);
width = 550;
}
);
unicode = 1169;
},
{
glyphname = "de-cy";
lastChange = "2023-12-18 20:43:42 +0000";
layers = (
{
layerId = m01;
shapes = (
{
attr = {
lineCapEnd = 1;
lineCapStart = 1;
strokeWidth = 100;
};
closed = 0;
nodes = (
(620,49,l),
(100,49,l)
);
},
{
attr = {
lineCapEnd = 1;
lineCapStart = 1;
strokeWidth = 100;
};
closed = 0;
nodes = (
(245,579,l),
(245,363,o),
(226,221,o),
(155,49,c)
);
},
{
attr = {
lineCapEnd = 1;
lineCapStart = 1;
strokeWidth = 100;
};
closed = 0;
nodes = (
(555,49,l),
(555,579,l)
);
},
{
attr = {
lineCapEnd = 1;
lineCapStart = 1;
strokeWidth = 100;
};
closed = 0;
nodes = (
(555,579,l),
(245,579,l)
);
},
{
attr = {
lineCapEnd = 1;
lineCapStart = 1;
strokeWidth = 100;
};
closed = 0;
nodes = (
(100,49,l),
(100,-51,l)
);
},
{
attr = {
lineCapEnd = 1;
lineCapStart = 1;
strokeWidth = 100;
};
closed = 0;
nodes = (
(620,-51,l),
(620,49,l)
);
}
);
width = 720;
}
);
unicode = 1076;
},
{
glyphname = "zhe-cy";
kernLeft = lowercaseX;
kernRight = lowercaseX;
lastChange = "2023-12-18 20:49:54 +0000";
layers = (
{
anchors = (
{
name = bottomright;
pos = (880,0);
},
{
name = top;
pos = (450,630);
}
);
layerId = m01;
shapes = (
{
attr = {
lineCapEnd = 1;
lineCapStart = 1;
strokeWidth = 100;
};
closed = 0;
nodes = (
(450,580,l),
(450,52,l)
);
},
{
attr = {
lineCapEnd = 1;
lineCapStart = 1;
strokeWidth = 100;
};
closed = 0;
nodes = (
(800,50,l),
(693,239,l),
(667,286,o),
(617,315,o),
(563,315,c),
(338,315,l),
(284,315,o),
(234,286,o),
(207,239,c),
(100,50,l)
);
},
{
attr = {
lineCapEnd = 1;
lineCapStart = 1;
strokeWidth = 100;
};
closed = 0;
nodes = (
(100,580,l),
(207,391,l),
(234,344,o),
(284,315,o),
(338,315,c),
(563,315,l),
(617,315,o),
(667,344,o),
(693,391,c),
(800,580,l)
);
}
);
width = 900;
}
);
metricLeft = x;
metricRight = x;
unicode = 1078;
},
{
glyphname = "ze-cy";
lastChange = "2023-12-18 20:49:54 +0000";
layers = (
{
anchors = (
{
name = bottom;
pos = (276,0);
},
{
name = top;
pos = (276,630);
}
);
layerId = m01;
shapes = (
{
attr = {
lineCapEnd = 1;
lineCapStart = 1;
strokeWidth = 100;
};
closed = 0;
nodes = (
(184,315,l),
(318,315,l)
);
},
{
attr = {
lineCapEnd = 1;
lineCapStart = 1;
strokeWidth = 100;
};
closed = 0;
nodes = (
(100,536,l),
(136,566,o),
(176,580,o),
(265,580,c),
(318,580,l),
(392,580,o),
(451,521,o),
(451,447,c),
(451,447,l),
(451,374,o),
(392,315,o),
(318,315,c)
);
},
{
attr = {
lineCapEnd = 1;
lineCapStart = 1;
strokeWidth = 100;
};
closed = 0;
nodes = (
(100,95,l),
(136,64,o),
(176,50,o),
(265,50,c),
(318,50,l),
(392,50,o),
(451,109,o),
(451,182,c),
(451,182,l),
(451,256,o),
(392,315,o),
(318,315,c)
);
}
);
width = 551;
}
);
unicode = 1079;
},
{
glyphname = "ii-cy";
kernLeft = lowercaseStraight;
kernRight = lowercaseStraight;
lastChange = "2023-12-18 20:49:54 +0000";
layers = (
{
anchors = (
{
name = bottomright;
pos = (580,0);
},
{
name = top;
pos = (300,630);
}
);
layerId = m01;
shapes = (
{
attr = {
lineCapEnd = 1;
lineCapStart = 1;
strokeWidth = 100;
};
closed = 0;
nodes = (
(500,580,l),
(100,50,l)
);
},
{
attr = {
lineCapEnd = 1;
lineCapStart = 1;
strokeWidth = 100;
};
closed = 0;
nodes = (
(100,50,l),
(100,580,l)
);
},
{
attr = {
lineCapEnd = 1;
lineCapStart = 1;
strokeWidth = 100;
};
closed = 0;
nodes = (
(500,50,l),
(500,580,l)
);
}
);
width = 600;
}
);
unicode = 1080;
},
{
glyphname = "ka-cy";
lastChange = "2023-12-18 20:49:54 +0000";
layers = (
{
anchors = (
{
name = bottomright;
pos = (580,0);
},
{
name = top;
pos = (300,630);
}
);
layerId = m01;
shapes = (
{
attr = {
lineCapEnd = 1;
lineCapStart = 1;
strokeWidth = 100;
};
closed = 0;
nodes = (
(100,580,l),
(100,52,l)
);
},
{
attr = {
lineCapEnd = 1;
lineCapStart = 1;
strokeWidth = 100;
};
closed = 0;
nodes = (
(500,50,l),
(393,239,l),
(367,286,o),
(317,315,o),
(263,315,c),
(100,315,l)
);
},
{
attr = {
lineCapEnd = 1;
lineCapStart = 1;
strokeWidth = 100;
};
closed = 0;
nodes = (
(100,315,l),
(263,315,l),
(317,315,o),
(367,344,o),
(393,391,c),
(500,580,l)
);
}
);
width = 600;
}
);
unicode = 1082;
},
{
glyphname = "el-cy";
kernRight = lowercaseStraight;
lastChange = "2023-12-18 20:43:42 +0000";
layers = (
{
layerId = m01;
shapes = (
{
attr = {
lineCapEnd = 1;
lineCapStart = 1;
strokeWidth = 100;
};
closed = 0;
nodes = (
(200,580,l),
(200,292,l),
(200,201,o),
(164,114,o),
(100,50,c)
);
},
{
attr = {
lineCapEnd = 1;
lineCapStart = 1;
strokeWidth = 100;
};
closed = 0;
nodes = (
(580,50,l),
(580,580,l)
);
},
{
attr = {
lineCapEnd = 1;
lineCapStart = 1;
strokeWidth = 100;
};
closed = 0;
nodes = (
(580,580,l),
(200,580,l)
);
}
);
width = 680;
}
);
unicode = 1083;
},
{
glyphname = "em-cy";
kernLeft = lowercaseStraight;
kernRight = lowercaseStraight;
lastChange = "2023-12-18 20:43:42 +0000";
layers = (
{
layerId = m01;
shapes = (
{
attr = {
lineCapEnd = 1;
lineCapStart = 1;
strokeWidth = 100;
};
closed = 0;
nodes = (
(350,50,l),
(600,579,l)
);
},
{
attr = {
lineCapEnd = 1;
lineCapStart = 1;
strokeWidth = 100;
};
closed = 0;
nodes = (
(100,51,l),
(100,580,l)
);
},
{
attr = {
lineCapEnd = 1;
lineCapStart = 1;
strokeWidth = 100;
};
closed = 0;
nodes = (
(100,580,l),
(350,50,l)
);
},
{
attr = {
lineCapEnd = 1;
lineCapStart = 1;
strokeWidth = 100;
};
closed = 0;
nodes = (
(600,579,l),
(600,50,l)
);
}
);
width = 700;
}
);
unicode = 1084;
},
{
glyphname = "en-cy";
kernLeft = lowercaseStraight;
kernRight = lowercaseStraight;
lastChange = "2023-12-18 20:49:54 +0000";
layers = (
{
anchors = (
{
name = bottomright;
pos = (580,0);
}
);
layerId = m01;
shapes = (
{
attr = {
lineCapEnd = 1;
lineCapStart = 1;
strokeWidth = 100;
};
closed = 0;
nodes = (
(100,580,l),
(100,50,l)
);
},
{
attr = {
lineCapEnd = 1;
lineCapStart = 1;
strokeWidth = 100;
};
closed = 0;
nodes = (
(500,580,l),
(500,50,l)
);
},
{
attr = {
lineCapEnd = 1;
lineCapStart = 1;
strokeWidth = 100;
};
closed = 0;
nodes = (
(100,316,l),
(500,316,l)
);
}
);
width = 600;
}
);
unicode = 1085;
},
{
glyphname = "pe-cy";
kernLeft = lowercaseStraight;
kernRight = lowercaseStraight;
lastChange = "2023-12-18 20:49:54 +0000";
layers = (
{
anchors = (
{
name = bottomright;
pos = (580,0);
}
);
layerId = m01;
shapes = (
{
attr = {
lineCapEnd = 1;
lineCapStart = 1;
strokeWidth = 100;
};
closed = 0;
nodes = (
(500,580,l),
(100,580,l)
);
},
{
attr = {
lineCapEnd = 1;
lineCapStart = 1;
strokeWidth = 100;
};
closed = 0;
nodes = (
(100,50,l),
(100,580,l)
);
},
{
attr = {
lineCapEnd = 1;
lineCapStart = 1;
strokeWidth = 100;
};
closed = 0;
nodes = (
(500,580,l),
(500,50,l)
);
}
);
width = 600;
}
);
unicode = 1087;
},
{
glyphname = "te-cy";
lastChange = "2023-12-18 20:49:54 +0000";
layers = (
{
anchors = (
{
name = bottomright;
pos = (580,0);
}
);
layerId = m01;
shapes = (
{
attr = {
lineCapEnd = 1;
lineCapStart = 1;
strokeWidth = 100;
};
closed = 0;
nodes = (
(100,580,l),
(500,580,l)
);
},
{
attr = {
lineCapEnd = 1;
lineCapStart = 1;
strokeWidth = 100;
};
closed = 0;
nodes = (
(300,50,l),
(300,580,l)
);
}
);
width = 600;
}
);
unicode = 1090;
},
{
glyphname = "ef-cy";
kernLeft = lowercaseRound;
kernRight = lowercaseRound;
lastChange = "2023-12-18 20:43:42 +0000";
layers = (
{
layerId = m01;
shapes = (
{
attr = {
lineCapEnd = 1;
lineCapStart = 1;
strokeWidth = 100;
};
closed = 0;
nodes = (
(465,794,l),
(465,-166,l)
);
},
{
attr = {
strokeWidth = 100;
};
closed = 1;
nodes = (
(218,49,o),
(100,168,o),
(100,314,c),
(100,460,o),
(218,579,o),
(365,579,c),
(565,579,l),
(711,579,o),
(830,460,o),
(830,314,c),
(830,168,o),
(711,49,o),
(565,49,c),
(365,49,l)
);
}
);
width = 930;
}
);
unicode = 1092;
},
{
glyphname = "che-cy";
kernRight = lowercaseStraight;
lastChange = "2023-12-18 20:49:54 +0000";
layers = (
{
anchors = (
{
name = bottomright;
pos = (580,0);
},
{
name = top;
pos = (300,630);
}
);
layerId = m01;
shapes = (
{
attr = {
lineCapEnd = 1;
lineCapStart = 1;
strokeWidth = 100;
};
closed = 0;
nodes = (
(500,580,l),
(500,280,l),
(250,280,l),
(167,280,o),
(100,347,o),
(100,430,c),
(100,580,l)
);
},
{
attr = {
lineCapEnd = 1;
lineCapStart = 1;
strokeWidth = 100;
};
closed = 0;
nodes = (
(500,548,l),
(500,50,l)
);
}
);
width = 600;
}
);
unicode = 1095;
},
{
glyphname = "tse-cy";
kernLeft = lowercaseStraight;
lastChange = "2023-12-29 12:44:10 +0000";
layers = (
{
layerId = m01;
shapes = (
{
attr = {
lineCapEnd = 1;
lineCapStart = 1;
strokeWidth = 100;
};
closed = 0;
nodes = (
(500,50,l),
(100,50,l)
);
},
{
attr = {
lineCapEnd = 1;
lineCapStart = 1;
strokeWidth = 100;
};
closed = 0;
nodes = (
(100,50,l),
(100,580,l)
);
},
{
attr = {
lineCapEnd = 1;
lineCapStart = 1;
strokeWidth = 100;
};
closed = 0;
nodes = (
(500,580,l),
(500,50,l)
);
},
{
attr = {
lineCapEnd = 1;
lineCapStart = 1;
strokeWidth = 100;
};
closed = 0;
nodes = (
(500,50,l),
(600,50,l)
);
},
{
attr = {
lineCapEnd = 1;
lineCapStart = 1;
strokeWidth = 100;
};
closed = 0;
nodes = (
(600,50,l),
(600,-85,l)
);
}
);
width = 700;
}
);
unicode = 1094;
},
{
glyphname = "sha-cy";
kernLeft = lowercaseStraight;
kernRight = lowercaseStraight;
lastChange = "2023-12-18 20:43:42 +0000";
layers = (
{
layerId = m01;
shapes = (
{
attr = {
lineCapEnd = 1;
lineCapStart = 1;
strokeWidth = 100;
};
closed = 0;
nodes = (
(100,50,l),
(100,580,l)
);
},
{
attr = {
lineCapEnd = 1;
lineCapStart = 1;
strokeWidth = 100;
};
closed = 0;
nodes = (
(430,580,l),
(430,50,l)
);
},
{
attr = {
lineCapEnd = 1;
lineCapStart = 1;
strokeWidth = 100;
};
closed = 0;
nodes = (
(760,580,l),
(760,50,l)
);
},
{
attr = {
lineCapEnd = 1;
lineCapStart = 1;
strokeWidth = 100;
};
closed = 0;
nodes = (
(100,50,l),
(760,50,l)
);
}
);
width = 860;
}
);
unicode = 1096;
},
{
glyphname = "shcha-cy";
kernLeft = lowercaseStraight;
lastChange = "2023-12-18 20:43:42 +0000";
layers = (
{
layerId = m01;
shapes = (
{
ref = "sha-cy";
},
{
attr = {
lineCapEnd = 1;
lineCapStart = 1;
strokeWidth = 100;
};
closed = 0;
nodes = (
(837,50,l),
(837,-67,l)
);
},
{
attr = {
lineCapEnd = 1;
lineCapStart = 1;
strokeWidth = 100;
};
closed = 0;
nodes = (
(737,50,l),
(837,50,l)
);
}
);
width = 937;
}
);
unicode = 1097;
},
{
glyphname = "dzhe-cy";
lastChange = "2023-12-29 12:44:00 +0000";
layers = (
{
layerId = m01;
shapes = (
{
attr = {
lineCapEnd = "1";
lineCapStart = "1";
strokeWidth = 100;
};
closed = 0;
nodes = (
(500,50,l),
(100,50,l)
);
},
{
attr = {
lineCapEnd = "1";
lineCapStart = "1";
strokeWidth = 100;
};
closed = 0;
nodes = (
(100,50,l),
(100,580,l)
);
},
{
attr = {
lineCapEnd = "1";
lineCapStart = "1";
strokeWidth = 100;
};
closed = 0;
nodes = (
(500,580,l),
(500,50,l)
);
},
{
attr = {
lineCapEnd = "1";
lineCapStart = "1";
strokeWidth = 100;
};
closed = 0;
nodes = (
(300,50,l),
(300,-85,l)
);
}
);
width = 600;
}
);
unicode = 1119;
},
{
glyphname = "softsign-cy";
kernLeft = lowercaseStraight;
lastChange = "2023-12-18 20:43:42 +0000";
layers = (
{
layerId = m01;
shapes = (
{
attr = {
lineCapEnd = 1;
lineCapStart = 1;
strokeWidth = 100;
};
closed = 0;
nodes = (
(100,50,l),
(369,50,l),
(441,50,o),
(500,109,o),
(500,183,c),
(500,256,o),
(441,315,o),
(369,315,c),
(100,315,l)
);
},
{
attr = {
lineCapEnd = 1;
lineCapStart = 1;
strokeWidth = 100;
};
closed = 0;
nodes = (
(100,580,l),
(100,50,l)
);
}
);
width = 600;
}
);
unicode = 1100;
},
{
glyphname = "yeru-cy";
kernLeft = lowercaseStraight;
kernRight = lowercaseStraight;
lastChange = "2023-12-18 20:49:54 +0000";
layers = (
{
anchors = (
{
name = top;
pos = (390,630);
}
);
layerId = m01;
shapes = (
{
attr = {
lineCapEnd = 1;
lineCapStart = 1;
strokeWidth = 100;
};
closed = 0;
nodes = (
(100,50,l),
(369,50,l),
(441,50,o),
(500,109,o),
(500,183,c),
(500,256,o),
(441,315,o),
(369,315,c),
(100,315,l)
);
},
{
attr = {
lineCapEnd = 1;
lineCapStart = 1;
strokeWidth = 100;
};
closed = 0;
nodes = (
(100,580,l),
(100,50,l)
);
},
{
attr = {
lineCapEnd = 1;
lineCapStart = 1;
strokeWidth = 100;
};
closed = 0;
nodes = (
(680,580,l),
(680,50,l)
);
}
);
width = 780;
}
);
unicode = 1099;
},
{
glyphname = "hardsign-cy";
lastChange = "2023-12-18 20:43:42 +0000";
layers = (
{
layerId = m01;
shapes = (
{
pos = (140,0);
ref = "softsign-cy";
},
{
attr = {
lineCapEnd = 1;
lineCapStart = 1;
strokeWidth = 100;
};
closed = 0;
nodes = (
(220,580,l),
(100,580,l)
);
}
);
width = 740;
}
);
unicode = 1098;
},
{
glyphname = "lje-cy";
lastChange = "2023-12-29 13:05:31 +0000";
layers = (
{
layerId = m01;
shapes = (
{
attr = {
identifier = ID0x28a2d3110;
lineCapEnd = 1;
lineCapStart = 1;
strokeWidth = 100;
};
closed = 0;
nodes = (
(200,580,l),
(200,292,l),
(200,201,o),
(164,114,o),
(100,50,c)
);
},
{
attr = {
identifier = ID0x28a2d3110;
lineCapEnd = 1;
lineCapStart = 1;
strokeWidth = 100;
};
closed = 0;
nodes = (
(520,580,l),
(200,580,l)
);
},
{
attr = {
identifier = ID0x28a2148f0;
lineCapEnd = 1;
lineCapStart = 1;
strokeWidth = 100;
};
closed = 0;
nodes = (
(520,50,l),
(729,50,l),
(801,50,o),
(860,109,o),
(860,183,c),
(860,256,o),
(801,315,o),
(729,315,c),
(520,315,l)
);
},
{
attr = {
identifier = ID0x28a2148f0;
lineCapEnd = 1;
lineCapStart = 1;
strokeWidth = 100;
};
closed = 1;
nodes = (
(520,50,l),
(520,580,l)
);
}
);
width = 960;
}
);
metricLeft = "el-cy";
metricRight = "softsign-cy";
unicode = 1113;
},
{
glyphname = "nje-cy";
lastChange = "2023-12-29 13:01:59 +0000";
layers = (
{
layerId = m01;
shapes = (
{
attr = {
identifier = ID0x2a88b2400;
lineCapEnd = 1;
lineCapStart = 1;
strokeWidth = 100;
};
closed = 0;
nodes = (
(100,580,l),
(100,50,l)
);
},
{
attr = {
identifier = ID0x2a88b2400;
lineCapEnd = 1;
lineCapStart = 1;
strokeWidth = 100;
};
closed = 0;
nodes = (
(100,316,l),
(440,316,l)
);
},
{
attr = {
identifier = ID0x2a8875f50;
lineCapEnd = 1;
lineCapStart = 1;
strokeWidth = 100;
};
closed = 0;
nodes = (
(440,50,l),
(649,50,l),
(721,50,o),
(780,109,o),
(780,183,c),
(780,256,o),
(721,315,o),
(649,315,c),
(440,315,l)
);
},
{
attr = {
identifier = ID0x2a8875f50;
lineCapEnd = 1;
lineCapStart = 1;
strokeWidth = 100;
};
closed = 0;
nodes = (
(440,580,l),
(440,50,l)
);
}
);
width = 880;
}
);
metricLeft = "en-cy";
metricRight = "softsign-cy";
unicode = 1114;
},
{
glyphname = "e-cy";
kernLeft = lowercaseRound;
lastChange = "2023-12-18 20:43:42 +0000";
layers = (
{
layerId = m01;
shapes = (
{
attr = {
lineCapEnd = "1";
lineCapStart = "1";
strokeWidth = 100;
};
closed = 0;
nodes = (
(100,315,l),
(350,315,l)
);
},
{
attr = {
lineCapEnd = "1";
lineCapStart = "1";
strokeWidth = 100;
};
closed = 0;
nodes = (
(473,150,l),
(439,90,o),
(374,50,o),
(300,50,c),
(189,50,o),
(100,140,o),
(100,250,c),
(100,380,l),
(100,490,o),
(189,580,o),
(300,580,c),
(374,580,o),
(439,539,o),
(474,479,c)
);
}
);
width = 574;
}
);
unicode = 1108;
},
{
glyphname = "ereversed-cy";
kernLeft = lowercaseRound;
kernRight = lowercaseRound;
lastChange = "2023-12-18 20:49:54 +0000";
layers = (
{
anchors = (
{
name = top;
pos = (287,630);
}
);
layerId = m01;
shapes = (
{
attr = {
lineCapEnd = 1;
lineCapStart = 1;
strokeWidth = 100;
};
closed = 0;
nodes = (
(474,315,l),
(224,315,l)
);
},
{
attr = {
lineCapEnd = 1;
lineCapStart = 1;
strokeWidth = 100;
};
closed = 0;
nodes = (
(100,479,l),
(135,539,o),
(200,580,o),
(274,580,c),
(385,580,o),
(474,490,o),
(474,380,c),
(474,250,l),
(474,140,o),
(385,50,o),
(274,50,c),
(200,50,o),
(135,90,o),
(101,150,c)
);
}
);
width = 574;
}
);
unicode = 1101;
},
{
glyphname = "yu-cy";
kernLeft = lowercaseStraight;
kernRight = lowercaseRound;
lastChange = "2023-12-18 20:49:54 +0000";
layers = (
{
anchors = (
{
name = top;
pos = (430,630);
}
);
layerId = m01;
shapes = (
{
attr = {
lineCapEnd = 1;
lineCapStart = 1;
strokeWidth = 100;
};
closed = 0;
nodes = (
(100,50,l),
(100,580,l)
);
},
{
attr = {
lineCapEnd = 1;
lineCapStart = 1;
strokeWidth = 100;
};
closed = 0;
nodes = (
(100,315,l),
(360,315,l)
);
},
{
attr = {
lineCapEnd = 1;
lineCapStart = 1;
strokeWidth = 100;
};
closed = 0;
nodes = (
(560,50,l),
(450,50,o),
(360,140,o),
(360,250,c),
(360,380,l),
(360,490,o),
(450,580,o),
(560,580,c),
(560,580,l),
(670,580,o),
(760,490,o),
(760,380,c),
(760,250,l),
(760,140,o),
(670,50,o),
(560,50,c)
);
}
);
width = 860;
}
);
unicode = 1102;
},
{
glyphname = "ya-cy";
kernRight = lowercaseStraight;
lastChange = "2023-12-18 20:49:54 +0000";
layers = (
{
anchors = (
{
name = top;
pos = (300,630);
}
);
layerId = m01;
shapes = (
{
attr = {
lineCapEnd = 1;
lineCapStart = 1;
strokeWidth = 100;
};
closed = 0;
nodes = (
(500,580,l),
(278,580,l),
(180,580,o),
(100,500,o),
(100,402,c),
(100,304,o),
(180,224,o),
(278,224,c),
(500,224,l)
);
},
{
attr = {
lineCapEnd = 1;
lineCapStart = 1;
strokeWidth = 100;
};
closed = 0;
nodes = (
(278,224,l),
(104,50,l)
);
},
{
attr = {
lineCapEnd = 1;
lineCapStart = 1;
strokeWidth = 100;
};
closed = 0;
nodes = (
(500,50,l),
(500,580,l)
);
}
);
width = 600;
}
);
unicode = 1103;
},
{
glyphname = "dje-cy";
lastChange = "2023-12-29 12:54:35 +0000";
layers = (
{
layerId = m01;
shapes = (
{
ref = hbar;
},
{
attr = {
lineCapEnd = 1;
lineCapStart = 1;
strokeWidth = 100;
};
closed = 0;
nodes = (
(454,-88,l),
(524,-88,o),
(580,-31,o),
(580,40,c),
(580,47,l)
);
}
);
width = 680;
}
);
unicode = 1106;
},
{
glyphname = Delta;
lastChange = "2023-12-18 20:43:42 +0000";
layers = (
{
layerId = m01;
shapes = (
{
attr = {
lineCapEnd = 1;
lineCapStart = 1;
strokeWidth = 100;
};
closed = 0;
nodes = (
(365,850,l),
(630,50,l)
);
},
{
attr = {
lineCapEnd = 1;
lineCapStart = 1;
strokeWidth = 100;
};
closed = 0;
nodes = (
(630,50,l),
(100,50,l)
);
},
{
attr = {
lineCapEnd = 1;
lineCapStart = 1;
strokeWidth = 100;
};
closed = 0;
nodes = (
(100,50,l),
(365,850,l)
);
}
);
width = 730;
}
);
unicode = 916;
},
{
glyphname = Theta;
lastChange = "2023-12-29 16:06:48 +0000";
layers = (
{
layerId = m01;
shapes = (
{
ref = O;
},
{
attr = {
lineCapEnd = 1;
lineCapStart = 1;
strokeWidth = 100;
};
closed = 0;
nodes = (
(255,450,l),
(475,450,l)
);
}
);
width = 730;
}
);
metricLeft = O;
metricRight = O;
unicode = 920;
},
{
glyphname = Lambda;
kernLeft = A;
kernRight = A;
lastChange = "2023-12-18 20:43:42 +0000";
layers = (
{
layerId = m01;
shapes = (
{
attr = {
lineCapEnd = 1;
lineCapStart = 1;
strokeWidth = 100;
};
closed = 0;
nodes = (
(365,850,l),
(630,50,l)
);
},
{
attr = {
lineCapEnd = 1;
lineCapStart = 1;
strokeWidth = 100;
};
closed = 0;
nodes = (
(100,50,l),
(365,850,l)
);
}
);
width = 730;
}
);
metricLeft = A;
metricRight = A;
unicode = 923;
},
{
glyphname = Xi;
lastChange = "2023-12-18 20:43:42 +0000";
layers = (
{
layerId = m01;
shapes = (
{
attr = {
lineCapEnd = 1;
lineCapStart = 1;
strokeWidth = 100;
};
closed = 0;
nodes = (
(150,450,l),
(450,450,l)
);
},
{
attr = {
lineCapEnd = 1;
lineCapStart = 1;
strokeWidth = 100;
};
closed = 0;
nodes = (
(100,850,l),
(500,850,l)
);
},
{
attr = {
lineCapEnd = 1;
lineCapStart = 1;
strokeWidth = 100;
};
closed = 0;
nodes = (
(500,50,l),
(100,50,l)
);
}
);
width = 600;
}
);
unicode = 926;
},
{
glyphname = Pi;
kernLeft = uppdercaseStraight;
kernRight = uppdercaseStraight;
lastChange = "2023-12-18 20:43:42 +0000";
layers = (
{
layerId = m01;
shapes = (
{
attr = {
lineCapEnd = 1;
lineCapStart = 1;
strokeWidth = 100;
};
closed = 0;
nodes = (
(610,850,l),
(610,50,l)
);
},
{
attr = {
lineCapEnd = 1;
lineCapStart = 1;
strokeWidth = 100;
};
closed = 0;
nodes = (
(80,50,l),
(80,850,l)
);
},
{
attr = {
lineCapEnd = 1;
lineCapStart = 1;
strokeWidth = 100;
};
closed = 0;
nodes = (
(80,850,l),
(610,850,l)
);
}
);
width = 690;
}
);
unicode = 928;
},
{
glyphname = Sigma;
lastChange = "2023-12-18 20:43:42 +0000";
layers = (
{
layerId = m01;
shapes = (
{
attr = {
lineCapEnd = 1;
lineCapStart = 1;
strokeWidth = 100;
};
closed = 0;
nodes = (
(498,450,l),
(100,50,l)
);
},
{
attr = {
lineCapEnd = 1;
lineCapStart = 1;
strokeWidth = 100;
};
closed = 0;
nodes = (
(100,50,l),
(630,50,l)
);
},
{
attr = {
lineCapEnd = 1;
lineCapStart = 1;
strokeWidth = 100;
};
closed = 0;
nodes = (
(630,850,l),
(100,850,l)
);
},
{
attr = {
lineCapEnd = 1;
lineCapStart = 1;
strokeWidth = 100;
};
closed = 0;
nodes = (
(100,850,l),
(498,450,l)
);
}
);
width = 730;
}
);
unicode = 931;
},
{
glyphname = Psi;
lastChange = "2023-12-18 20:43:42 +0000";
layers = (
{
layerId = m01;
shapes = (
{
attr = {
lineCapEnd = 1;
lineCapStart = 1;
strokeWidth = 100;
};
closed = 0;
nodes = (
(500,350,l),
(380,350,l),
(226,350,o),
(100,475,o),
(100,630,c),
(100,850,l)
);
},
{
attr = {
lineCapEnd = 1;
lineCapStart = 1;
strokeWidth = 100;
};
closed = 0;
nodes = (
(500,350,l),
(620,350,l),
(775,350,o),
(900,475,o),
(900,630,c),
(900,850,l)
);
},
{
attr = {
lineCapEnd = 1;
lineCapStart = 1;
strokeWidth = 100;
};
closed = 0;
nodes = (
(500,850,l),
(500,50,l)
);
}
);
width = 1000;
}
);
unicode = 936;
},
{
glyphname = Omega;
lastChange = "2023-12-18 20:49:54 +0000";
layers = (
{
anchors = (
{
name = bottom;
pos = (500,50);
},
{
name = topleft;
pos = (148,900);
}
);
layerId = m01;
shapes = (
{
attr = {
lineCapEnd = 1;
lineCapStart = 1;
strokeWidth = 100;
};
closed = 0;
nodes = (
(367,73,l),
(212,127,o),
(100,276,o),
(100,450,c),
(100,671,o),
(279,850,o),
(500,850,c),
(721,850,o),
(900,671,o),
(900,450,c),
(900,276,o),
(789,127,o),
(633,73,c)
);
},
{
attr = {
lineCapEnd = 1;
lineCapStart = 1;
strokeWidth = 100;
};
closed = 0;
nodes = (
(633,50,l),
(900,50,l)
);
},
{
attr = {
lineCapEnd = 1;
lineCapStart = 1;
strokeWidth = 100;
};
closed = 0;
nodes = (
(100,50,l),
(367,50,l)
);
},
{
attr = {
lineCapEnd = 1;
lineCapStart = 1;
strokeWidth = 100;
};
closed = 0;
nodes = (
(633,73,l),
(633,50,l)
);
},
{
attr = {
lineCapEnd = 1;
lineCapStart = 1;
strokeWidth = 100;
};
closed = 0;
nodes = (
(367,50,l),
(367,73,l)
);
}
);
width = 1000;
}
);
unicode = 937;
},
{
glyphname = alpha;
kernLeft = lowercaseRound;
lastChange = "2023-12-18 20:49:54 +0000";
layers = (
{
anchors = (
{
name = top;
pos = (340,630);
}
);
layerId = m01;
shapes = (
{
attr = {
lineCapEnd = 1;
lineCapStart = 1;
strokeWidth = 100;
};
closed = 0;
nodes = (
(580,50,l),
(535,50,o),
(500,86,o),
(500,130,c),
(500,580,l)
);
},
{
attr = {
lineCapEnd = 1;
lineCapStart = 1;
strokeWidth = 100;
};
closed = 0;
nodes = (
(500,250,l),
(500,140,o),
(410,50,o),
(300,50,c),
(189,50,o),
(100,140,o),
(100,250,c),
(100,380,l),
(100,490,o),
(189,580,o),
(300,580,c),
(410,580,o),
(500,490,o),
(500,380,c)
);
}
);
width = 680;
}
);
metricLeft = y;
metricRight = y;
unicode = 945;
},
{
glyphname = beta;
lastChange = "2023-12-18 20:43:42 +0000";
layers = (
{
layerId = m01;
shapes = (
{
attr = {
lineCapEnd = 1;
lineCapStart = 1;
strokeWidth = 100;
};
closed = 0;
nodes = (
(80,117,l),
(119,65,o),
(197,50,o),
(280,50,c),
(390,50,o),
(480,140,o),
(480,250,c),
(480,250,l),
(480,360,o),
(390,450,o),
(280,450,c)
);
},
{
attr = {
lineCapEnd = 1;
lineCapStart = 1;
strokeWidth = 100;
};
closed = 0;
nodes = (
(80,-220,l),
(80,650,l),
(80,760,o),
(169,850,o),
(280,850,c),
(280,850,l),
(390,850,o),
(480,760,o),
(480,650,c),
(480,650,l),
(480,539,o),
(390,450,o),
(280,450,c)
);
}
);
width = 560;
}
);
unicode = 946;
},
{
glyphname = gamma;
lastChange = "2023-12-18 20:43:42 +0000";
layers = (
{
layerId = m01;
shapes = (
{
attr = {
lineCapEnd = 1;
lineCapStart = 1;
strokeWidth = 100;
};
closed = 0;
nodes = (
(280,80,l),
(80,580,l)
);
},
{
attr = {
lineCapEnd = 1;
lineCapStart = 1;
strokeWidth = 100;
};
closed = 0;
nodes = (
(280,-220,l),
(280,80,l)
);
},
{
attr = {
lineCapEnd = 1;
lineCapStart = 1;
strokeWidth = 100;
};
closed = 0;
nodes = (
(480,580,l),
(280,80,l)
);
}
);
width = 560;
}
);
unicode = 947;
},
{
glyphname = delta;
lastChange = "2023-12-18 20:43:42 +0000";
layers = (
{
layerId = m01;
shapes = (
{
attr = {
lineCapEnd = 1;
lineCapStart = 1;
strokeWidth = 100;
};
closed = 0;
nodes = (
(333,531,l),
(137,432,o),
(100,377,o),
(100,249,c),
(100,121,o),
(204,50,o),
(333,50,c),
(461,50,o),
(565,121,o),
(565,249,c),
(565,406,o),
(443,464,o),
(333,531,c),
(268,569,o),
(183,591,o),
(189,678,c),
(194,742,o),
(246,795,o),
(345,795,c),
(405,795,o),
(447,773,o),
(503,725,c)
);
}
);
width = 665;
}
);
unicode = 948;
},
{
glyphname = epsilon;
lastChange = "2023-12-18 20:49:54 +0000";
layers = (
{
anchors = (
{
name = top;
pos = (275,630);
}
);
layerId = m01;
shapes = (
{
attr = {
lineCapEnd = 1;
lineCapStart = 1;
strokeWidth = 100;
};
closed = 0;
nodes = (
(449,95,l),
(413,64,o),
(373,50,o),
(285,50,c),
(232,50,l),
(159,50,o),
(100,109,o),
(100,182,c),
(100,182,l),
(100,256,o),
(159,315,o),
(232,315,c)
);
},
{
attr = {
lineCapEnd = 1;
lineCapStart = 1;
strokeWidth = 100;
};
closed = 0;
nodes = (
(450,536,l),
(413,566,o),
(373,580,o),
(285,580,c),
(232,580,l),
(159,580,o),
(100,521,o),
(100,447,c),
(100,447,l),
(100,374,o),
(159,315,o),
(232,315,c)
);
},
{
attr = {
lineCapEnd = 1;
lineCapStart = 1;
strokeWidth = 100;
};
closed = 0;
nodes = (
(366,315,l),
(232,315,l)
);
}
);
width = 550;
}
);
unicode = 949;
},
{
glyphname = zeta;
lastChange = "2023-12-18 20:43:42 +0000";
layers = (
{
layerId = m01;
shapes = (
{
attr = {
lineCapEnd = 1;
lineCapStart = 1;
strokeWidth = 100;
};
closed = 0;
nodes = (
(430,-183,l),
(455,-166,o),
(473,-139,o),
(479,-108,c),
(479,-108,l),
(490,-44,o),
(447,17,o),
(382,28,c),
(382,28,o),
(271,48,o),
(233,55,c),
(144,70,o),
(80,155,o),
(80,249,c),
(80,249,l),
(80,667,o),
(480,850,o),
(480,850,c)
);
},
{
attr = {
lineCapEnd = 1;
lineCapStart = 1;
strokeWidth = 100;
};
closed = 0;
nodes = (
(480,850,l),
(80,850,l)
);
}
);
width = 561;
}
);
unicode = 950;
},
{
glyphname = eta;
lastChange = "2023-12-18 20:49:54 +0000";
layers = (
{
anchors = (
{
name = top;
pos = (300,630);
}
);
layerId = m01;
shapes = (
{
attr = {
lineCapEnd = 1;
lineCapStart = 1;
strokeWidth = 100;
};
closed = 0;
nodes = (
(500,-220,l),
(500,380,l),
(500,490,o),
(411,580,o),
(300,580,c),
(300,580,l),
(190,580,o),
(100,490,o),
(100,380,c)
);
},
{
attr = {
lineCapEnd = 1;
lineCapStart = 1;
strokeWidth = 100;
};
closed = 0;
nodes = (
(100,50,l),
(100,580,l)
);
}
);
width = 600;
}
);
unicode = 951;
},
{
glyphname = theta;
kernLeft = lowercaseRound;
kernRight = lowercaseRound;
lastChange = "2023-12-18 20:43:42 +0000";
layers = (
{
layerId = m01;
shapes = (
{
ref = o;
},
{
attr = {
strokeWidth = 100;
};
closed = 0;
nodes = (
(80,315,l),
(480,315,l)
);
}
);
width = 600;
}
);
unicode = 952;
},
{
glyphname = iota;
kernLeft = lowercaseStraight;
lastChange = "2023-12-18 20:49:54 +0000";
layers = (
{
anchors = (
{
name = top;
pos = (100,630);
}
);
layerId = m01;
shapes = (
{
attr = {
lineCapEnd = "1";
lineCapStart = "1";
strokeWidth = 100;
};
closed = 0;
nodes = (
(300,85,l),
(278,63,o),
(249,50,o),
(217,50,c),
(217,50,l),
(152,50,o),
(100,103,o),
(100,168,c),
(100,580,l)
);
}
);
width = 400;
}
);
unicode = 953;
},
{
glyphname = kappa;
lastChange = "2023-12-18 20:43:42 +0000";
layers = (
{
layerId = m01;
shapes = (
{
attr = {
lineCapEnd = 1;
lineCapStart = 1;
strokeWidth = 100;
};
closed = 0;
nodes = (
(100,618,l),
(100,88,l)
);
},
{
attr = {
lineCapEnd = 1;
lineCapStart = 1;
strokeWidth = 100;
};
closed = 0;
nodes = (
(100,272,l),
(500,616,l)
);
},
{
attr = {
lineCapEnd = 1;
lineCapStart = 1;
strokeWidth = 100;
};
closed = 0;
nodes = (
(500,88,l),
(193,353,l)
);
}
);
width = 600;
}
);
unicode = 954;
},
{
glyphname = lambda;
lastChange = "2023-12-18 20:43:42 +0000";
layers = (
{
layerId = m01;
shapes = (
{
attr = {
lineCapEnd = 1;
lineCapStart = 1;
strokeWidth = 100;
};
closed = 0;
nodes = (
(384,580,l),
(171,50,l)
);
},
{
attr = {
lineCapEnd = 1;
lineCapStart = 1;
strokeWidth = 100;
};
closed = 0;
nodes = (
(100,782,l),
(113,809,o),
(136,831,o),
(167,842,c),
(167,842,l),
(228,864,o),
(295,831,o),
(317,770,c),
(571,50,l)
);
}
);
width = 671;
}
);
unicode = 955;
},
{
glyphname = mu;
kernLeft = lowercaseStraight;
kernRight = lowercaseStraight;
lastChange = "2023-12-18 20:43:42 +0000";
layers = (
{
layerId = m01;
shapes = (
{
attr = {
lineCapEnd = 1;
lineCapStart = 1;
strokeWidth = 100;
};
closed = 0;
nodes = (
(100,580,l),
(100,250,l),
(100,140,o),
(189,50,o),
(300,50,c),
(300,50,l),
(410,50,o),
(500,140,o),
(500,250,c),
(500,580,l)
);
},
{
attr = {
lineCapEnd = 1;
lineCapStart = 1;
strokeWidth = 100;
};
closed = 0;
nodes = (
(500,250,l),
(500,50,l)
);
},
{
attr = {
lineCapEnd = 1;
lineCapStart = 1;
strokeWidth = 100;
};
closed = 0;
nodes = (
(100,250,l),
(100,-220,l)
);
}
);
width = 600;
}
);
unicode = 956;
},
{
glyphname = nu;
lastChange = "2023-12-18 20:43:42 +0000";
layers = (
{
layerId = m01;
shapes = (
{
attr = {
lineCapEnd = 1;
lineCapStart = 1;
strokeWidth = 100;
};
closed = 0;
nodes = (
(300,50,l),
(100,580,l)
);
},
{
attr = {
lineCapEnd = 1;
lineCapStart = 1;
strokeWidth = 100;
};
closed = 0;
nodes = (
(500,580,l),
(300,50,l)
);
}
);
width = 600;
}
);
metricLeft = v;
metricRight = v;
unicode = 957;
},
{
glyphname = xi;
lastChange = "2023-12-18 20:43:42 +0000";
layers = (
{
layerId = m01;
shapes = (
{
attr = {
lineCapEnd = 1;
lineCapStart = 1;
strokeWidth = 100;
};
closed = 0;
nodes = (
(400,450,l),
(300,450,l)
);
},
{
attr = {
lineCapEnd = 1;
lineCapStart = 1;
strokeWidth = 100;
};
closed = 0;
nodes = (
(500,783,l),
(451,836,o),
(404,850,o),
(300,850,c),
(190,850,o),
(100,760,o),
(100,650,c),
(100,650,l),
(100,539,o),
(190,450,o),
(300,450,c)
);
},
{
attr = {
lineCapEnd = 1;
lineCapStart = 1;
strokeWidth = 100;
};
closed = 0;
nodes = (
(450,-182,l),
(475,-165,o),
(493,-139,o),
(498,-107,c),
(498,-107,l),
(510,-43,o),
(467,18,o),
(402,29,c),
(402,29,o),
(290,49,o),
(253,56,c),
(164,71,o),
(100,156,o),
(100,250,c),
(100,250,l),
(100,360,o),
(190,450,o),
(300,450,c)
);
}
);
width = 600;
}
);
unicode = 958;
},
{
glyphname = pi;
lastChange = "2023-12-18 20:43:42 +0000";
layers = (
{
layerId = m01;
shapes = (
{
attr = {
lineCapEnd = 1;
lineCapStart = 1;
strokeWidth = 100;
};
closed = 0;
nodes = (
(100,580,l),
(700,580,l)
);
},
{
attr = {
lineCapEnd = 1;
lineCapStart = 1;
strokeWidth = 100;
};
closed = 0;
nodes = (
(250,580,l),
(250,50,l)
);
},
{
attr = {
lineCapEnd = 1;
lineCapStart = 1;
strokeWidth = 100;
};
closed = 0;
nodes = (
(700,85,l),
(679,63,o),
(650,50,o),
(617,50,c),
(617,50,l),
(553,50,o),
(500,103,o),
(500,168,c),
(500,580,l)
);
}
);
width = 800;
}
);
unicode = 960;
},
{
glyphname = rho;
kernRight = lowercaseRound;
lastChange = "2023-12-18 20:43:42 +0000";
layers = (
{
layerId = m01;
shapes = (
{
attr = {
lineCapEnd = 1;
lineCapStart = 1;
strokeWidth = 100;
};
closed = 0;
nodes = (
(100,250,l),
(100,140,o),
(190,50,o),
(300,50,cs),
(411,50,o),
(500,140,o),
(500,250,cs),
(500,380,ls),
(500,490,o),
(411,580,o),
(300,580,cs),
(190,580,o),
(110,490,o),
(100,380,cs)
);
},
{
attr = {
lineCapEnd = 1;
lineCapStart = 1;
strokeWidth = 100;
};
closed = 0;
nodes = (
(100,380,l),
(100,-220,l)
);
}
);
width = 600;
}
);
unicode = 961;
},
{
glyphname = sigmafinal;
lastChange = "2023-12-18 20:43:42 +0000";
layers = (
{
layerId = m01;
shapes = (
{
attr = {
lineCapEnd = 1;
lineCapStart = 1;
strokeWidth = 100;
};
closed = 0;
nodes = (
(430,-184,l),
(454,-166,o),
(473,-140,o),
(478,-108,c),
(478,-108,l),
(489,-44,o),
(446,17,o),
(382,28,c),
(382,28,o),
(270,48,o),
(232,55,c),
(144,70,o),
(80,155,o),
(80,249,c),
(80,380,l),
(80,490,o),
(169,580,o),
(280,580,c),
(354,580,o),
(387,571,o),
(444,513,c)
);
}
);
width = 560;
}
);
unicode = 962;
},
{
glyphname = sigma;
kernLeft = lowercaseRound;
lastChange = "2023-12-18 20:43:42 +0000";
layers = (
{
layerId = m01;
shapes = (
{
attr = {
strokeWidth = 100;
};
closed = 1;
nodes = (
(411,580,o),
(500,490,o),
(500,380,c),
(500,250,l),
(500,140,o),
(411,50,o),
(300,50,c),
(300,50,l),
(190,50,o),
(100,140,o),
(100,250,c),
(100,380,l),
(100,490,o),
(190,580,o),
(300,580,c)
);
},
{
attr = {
lineCapEnd = 1;
lineCapStart = 1;
strokeWidth = 100;
};
closed = 0;
nodes = (
(600,580,l),
(300,580,l)
);
}
);
width = 700;
}
);
unicode = 963;
},
{
glyphname = tau;
lastChange = "2023-12-18 20:43:42 +0000";
layers = (
{
layerId = m01;
shapes = (
{
attr = {
lineCapEnd = 1;
lineCapStart = 1;
strokeWidth = 100;
};
closed = 0;
nodes = (
(100,580,l),
(500,580,l)
);
},
{
attr = {
lineCapEnd = 1;
lineCapStart = 1;
strokeWidth = 100;
};
closed = 0;
nodes = (
(500,85,l),
(479,63,o),
(450,50,o),
(417,50,c),
(417,50,l),
(353,50,o),
(300,103,o),
(300,168,c),
(300,580,l)
);
}
);
width = 600;
}
);
unicode = 964;
},
{
glyphname = upsilon;
lastChange = "2023-12-18 20:49:54 +0000";
layers = (
{
anchors = (
{
name = top;
pos = (280,630);
}
);
layerId = m01;
shapes = (
{
attr = {
lineCapEnd = 1;
lineCapStart = 1;
strokeWidth = 100;
};
closed = 0;
nodes = (
(280,50,l),
(391,50,o),
(480,140,o),
(480,250,c),
(480,448,o),
(440,580,o),
(440,580,c)
);
},
{
attr = {
lineCapEnd = 1;
lineCapStart = 1;
strokeWidth = 100;
};
closed = 0;
nodes = (
(80,580,l),
(80,250,l),
(80,140,o),
(170,50,o),
(280,50,c)
);
}
);
width = 560;
}
);
unicode = 965;
},
{
glyphname = chi;
lastChange = "2023-12-18 20:43:42 +0000";
layers = (
{
layerId = m01;
shapes = (
{
attr = {
lineCapEnd = 1;
lineCapStart = 1;
strokeWidth = 100;
};
closed = 0;
nodes = (
(426,180,l),
(658,-169,l),
(679,-201,o),
(714,-220,o),
(753,-220,c)
);
},
{
attr = {
lineCapEnd = 1;
lineCapStart = 1;
strokeWidth = 100;
};
closed = 0;
nodes = (
(426,180,l),
(195,529,l),
(174,561,o),
(138,580,o),
(100,580,c)
);
},
{
attr = {
lineCapEnd = 1;
lineCapStart = 1;
strokeWidth = 100;
};
closed = 0;
nodes = (
(691,580,l),
(161,-220,l)
);
}
);
width = 853;
}
);
unicode = 967;
},
{
glyphname = psi;
lastChange = "2023-12-18 20:43:42 +0000";
layers = (
{
layerId = m01;
shapes = (
{
attr = {
lineCapEnd = 1;
lineCapStart = 1;
strokeWidth = 100;
};
closed = 0;
nodes = (
(500,50,l),
(380,50,l),
(226,50,o),
(100,175,o),
(100,330,c),
(100,550,l)
);
},
{
attr = {
lineCapEnd = 1;
lineCapStart = 1;
strokeWidth = 100;
};
closed = 0;
nodes = (
(500,50,l),
(620,50,l),
(775,50,o),
(900,175,o),
(900,330,c),
(900,550,l)
);
},
{
attr = {
lineCapEnd = 1;
lineCapStart = 1;
strokeWidth = 100;
};
closed = 0;
nodes = (
(500,650,l),
(500,-250,l)
);
}
);
width = 1000;
}
);
unicode = 968;
},
{
glyphname = omega;
lastChange = "2023-12-18 20:49:54 +0000";
layers = (
{
anchors = (
{
name = bottom;
pos = (480,0);
},
{
name = top;
pos = (480,630);
}
);
layerId = m01;
shapes = (
{
attr = {
lineCapEnd = 1;
lineCapStart = 1;
strokeWidth = 100;
};
closed = 0;
nodes = (
(164,580,l),
(120,528,o),
(100,471,o),
(100,344,c),
(100,240,l),
(100,135,o),
(185,50,o),
(290,50,c),
(395,50,o),
(480,135,o),
(480,240,c)
);
},
{
attr = {
lineCapEnd = 1;
lineCapStart = 1;
strokeWidth = 100;
};
closed = 0;
nodes = (
(797,580,l),
(841,528,o),
(860,471,o),
(860,344,c),
(860,240,l),
(860,135,o),
(775,50,o),
(670,50,c),
(565,50,o),
(480,135,o),
(480,240,c)
);
},
{
attr = {
lineCapEnd = 1;
lineCapStart = 1;
strokeWidth = 100;
};
closed = 0;
nodes = (
(480,460,l),
(480,240,l)
);
}
);
width = 960;
}
);
unicode = 969;
},
{
glyphname = "alef-hb";
lastChange = "2023-12-19 20:06:13 +0000";
layers = (
{
anchors = (
{
name = bottom;
pos = (330,0);
},
{
name = bottomleft;
pos = (20,0);
},
{
name = center;
pos = (330,508);
},
{
name = top;
pos = (330,1015);
},
{
name = topleft;
pos = (20,1015);
}
);
layerId = m01;
shapes = (
{
attr = {
lineCapEnd = 1;
lineCapStart = 1;
strokeWidth = 100;
};
closed = 0;
nodes = (
(100,795,l),
(560,50,l)
);
},
{
attr = {
lineCapEnd = 1;
lineCapStart = 1;
strokeWidth = 100;
};
closed = 0;
nodes = (
(560,795,l),
(560,511,l),
(560,414,o),
(481,335,o),
(384,335,c),
(384,335,l)
);
},
{
attr = {
lineCapEnd = 1;
lineCapStart = 1;
strokeWidth = 100;
};
closed = 0;
nodes = (
(100,50,l),
(100,334,l),
(100,431,o),
(179,510,o),
(276,510,c),
(276,510,l)
);
}
);
width = 660;
}
);
unicode = 1488;
},
{
glyphname = "bet-hb";
lastChange = "2023-12-19 19:44:21 +0000";
layers = (
{
anchors = (
{
name = bottom;
pos = (365,0);
},
{
name = bottomleft;
pos = (20,0);
},
{
name = center;
pos = (365,508);
},
{
name = top;
pos = (365,1015);
},
{
name = topleft;
pos = (20,1015);
}
);
layerId = m01;
shapes = (
{
attr = {
lineCapEnd = 1;
lineCapStart = 1;
strokeWidth = 100;
};
closed = 0;
nodes = (
(100,50,l),
(630,50,l)
);
},
{
attr = {
lineCapEnd = 1;
lineCapStart = 1;
strokeWidth = 100;
};
closed = 0;
nodes = (
(530,50,l),
(530,595,l),
(530,705,o),
(441,795,o),
(330,795,c),
(209,795,l),
(170,795,o),
(133,786,o),
(100,769,c)
);
}
);
width = 730;
}
);
unicode = 1489;
},
{
glyphname = "gimel-hb";
lastChange = "2023-12-19 19:44:38 +0000";
layers = (
{
anchors = (
{
name = bottom;
pos = (250,0);
},
{
name = bottomleft;
pos = (20,0);
},
{
name = center;
pos = (250,508);
},
{
name = top;
pos = (250,1015);
},
{
name = topleft;
pos = (20,1015);
}
);
layerId = m01;
shapes = (
{
attr = {
lineCapEnd = 1;
lineCapStart = 1;
strokeWidth = 100;
};
closed = 0;
nodes = (
(400,50,l),
(400,653,l),
(400,731,o),
(337,795,o),
(258,795,c),
(230,795,o),
(204,788,o),
(180,777,c)
);
},
{
attr = {
lineCapEnd = 1;
lineCapStart = 1;
strokeWidth = 100;
};
closed = 0;
nodes = (
(400,244,l),
(400,137,o),
(314,50,o),
(206,50,c),
(168,50,o),
(132,59,o),
(100,75,c)
);
}
);
width = 500;
}
);
unicode = 1490;
},
{
glyphname = "dalet-hb";
lastChange = "2023-12-19 20:05:03 +0000";
layers = (
{
anchors = (
{
name = bottom;
pos = (330,0);
},
{
name = bottomleft;
pos = (20,0);
},
{
name = center;
pos = (330,508);
},
{
name = top;
pos = (330,1015);
},
{
name = topleft;
pos = (20,1015);
}
);
layerId = m01;
shapes = (
{
attr = {
lineCapEnd = 1;
lineCapStart = 1;
strokeWidth = 100;
};
closed = 0;
nodes = (
(100,795,l),
(560,795,l)
);
},
{
attr = {
lineCapEnd = 1;
lineCapStart = 1;
strokeWidth = 100;
};
closed = 0;
nodes = (
(430,50,l),
(430,665,l),
(430,737,o),
(488,795,o),
(560,795,c)
);
}
);
width = 660;
}
);
unicode = 1491;
},
{
glyphname = "he-hb";
kernLeft = hebrewStraight;
kernRight = hebrewRounded;
lastChange = "2023-12-19 20:07:14 +0000";
layers = (
{
anchors = (
{
name = bottom;
pos = (340,0);
},
{
name = bottomleft;
pos = (20,0);
},
{
name = center;
pos = (340,508);
},
{
name = top;
pos = (340,1015);
},
{
name = topleft;
pos = (20,1015);
}
);
layerId = m01;
shapes = (
{
attr = {
lineCapEnd = 1;
lineCapStart = 1;
strokeWidth = 100;
};
closed = 0;
nodes = (
(580,50,l),
(580,595,l),
(580,705,o),
(490,795,o),
(380,795,c),
(259,795,l),
(220,795,o),
(148,792,o),
(100,769,c)
);
},
{
attr = {
lineCapEnd = 1;
lineCapStart = 1;
strokeWidth = 100;
};
closed = 0;
nodes = (
(100,50,l),
(100,500,l)
);
}
);
width = 680;
}
);
unicode = 1492;
},
{
glyphname = "vav-hb";
lastChange = "2023-12-19 20:07:23 +0000";
layers = (
{
anchors = (
{
name = bottom;
pos = (100,0);
},
{
name = bottomleft;
pos = (20,0);
},
{
name = center;
pos = (100,508);
},
{
name = top;
pos = (100,1015);
},
{
name = topleft;
pos = (20,1015);
}
);
layerId = m01;
shapes = (
{
attr = {
lineCapEnd = 1;
lineCapStart = 1;
strokeWidth = 100;
};
closed = 0;
nodes = (
(100,795,l),
(100,50,l)
);
}
);
width = 200;
}
);
unicode = 1493;
},
{
glyphname = "zayin-hb";
lastChange = "2023-12-19 19:45:47 +0000";
layers = (
{
anchors = (
{
name = bottom;
pos = (400,0);
},
{
name = bottomleft;
pos = (120,0);
},
{
name = center;
pos = (400,508);
},
{
name = top;
pos = (400,1015);
},
{
name = topleft;
pos = (120,1015);
}
);
layerId = m01;
shapes = (
{
attr = {
lineCapEnd = 1;
lineCapStart = 1;
strokeWidth = 100;
};
closed = 0;
nodes = (
(100,795,l),
(360,795,l)
);
},
{
attr = {
lineCapEnd = 1;
lineCapStart = 1;
strokeWidth = 100;
};
closed = 0;
nodes = (
(230,50,l),
(230,565,l),
(230,674,o),
(270,750,o),
(360,795,c)
);
}
);
width = 460;
}
);
unicode = 1494;
},
{
glyphname = "het-hb";
kernLeft = hebrewStraight;
kernRight = hebrewRounded;
lastChange = "2023-12-19 20:03:55 +0000";
layers = (
{
anchors = (
{
name = bottom;
pos = (340,0);
},
{
name = bottomleft;
pos = (20,0);
},
{
name = center;
pos = (340,508);
},
{
name = top;
pos = (340,1015);
},
{
name = topleft;
pos = (20,1015);
}
);
layerId = m01;
shapes = (
{
attr = {
lineCapEnd = 1;
lineCapStart = 1;
strokeWidth = 100;
};
closed = 0;
nodes = (
(580,50,l),
(580,595,l),
(580,705,o),
(490,795,o),
(380,795,c),
(259,795,l),
(220,795,o),
(148,792,o),
(100,769,c)
);
},
{
attr = {
lineCapEnd = 1;
lineCapStart = 1;
strokeWidth = 100;
};
closed = 0;
nodes = (
(100,769,l),
(100,50,l)
);
}
);
width = 680;
}
);
unicode = 1495;
},
{
glyphname = "tet-hb";
lastChange = "2023-12-19 20:01:38 +0000";
layers = (
{
anchors = (
{
name = bottom;
pos = (350,0);
},
{
name = bottomleft;
pos = (70,0);
},
{
name = center;
pos = (350,508);
},
{
name = top;
pos = (350,1015);
},
{
name = topleft;
pos = (70,1015);
}
);
layerId = m01;
shapes = (
{
attr = {
lineCapEnd = 1;
lineCapStart = 1;
strokeWidth = 100;
};
closed = 0;
nodes = (
(381,795,l),
(536,795,o),
(662,669,o),
(662,514,c),
(662,331,l),
(662,176,o),
(536,50,o),
(381,50,c),
(381,50,l),
(226,50,o),
(100,176,o),
(100,331,c),
(100,795,l)
);
}
);
width = 762;
}
);
unicode = 1496;
},
{
glyphname = "yod-hb";
lastChange = "2023-12-19 20:05:26 +0000";
layers = (
{
anchors = (
{
name = bottom;
pos = (100,0);
},
{
name = bottomleft;
pos = (20,0);
},
{
name = center;
pos = (100,508);
},
{
name = top;
pos = (100,1015);
},
{
name = topleft;
pos = (20,1015);
}
);
layerId = m01;
shapes = (
{
attr = {
lineCapEnd = 1;
lineCapStart = 1;
strokeWidth = 100;
};
closed = 0;
nodes = (
(100,795,l),
(100,475,l)
);
}
);
width = 200;
}
);
unicode = 1497;
},
{
glyphname = "kafFinal-hb";
lastChange = "2023-12-19 19:47:17 +0000";
layers = (
{
anchors = (
{
name = bottom;
pos = (315,0);
},
{
name = bottomleft;
pos = (20,0);
},
{
name = center;
pos = (315,508);
},
{
name = top;
pos = (315,1015);
},
{
name = topleft;
pos = (20,1015);
}
);
layerId = m01;
shapes = (
{
attr = {
lineCapEnd = 1;
lineCapStart = 1;
strokeWidth = 100;
};
closed = 0;
nodes = (
(530,-165,l),
(530,595,l),
(530,705,o),
(440,795,o),
(330,795,c),
(209,795,l),
(170,795,o),
(133,786,o),
(100,769,c)
);
}
);
width = 630;
}
);
unicode = 1498;
},
{
glyphname = "kaf-hb";
kernRight = hebrewRound;
lastChange = "2023-12-19 20:00:56 +0000";
layers = (
{
anchors = (
{
name = bottom;
pos = (300,0);
},
{
name = bottomleft;
pos = (20,0);
},
{
name = center;
pos = (300,508);
},
{
name = top;
pos = (300,1015);
},
{
name = topleft;
pos = (20,1015);
}
);
layerId = m01;
shapes = (
{
attr = {
lineCapEnd = 1;
lineCapStart = 1;
strokeWidth = 100;
};
closed = 0;
nodes = (
(100,778,l),
(131,789,o),
(165,795,o),
(200,795,c),
(200,795,l),
(366,795,o),
(500,661,o),
(500,495,c),
(500,350,l),
(500,184,o),
(366,50,o),
(200,50,c),
(200,50,l),
(165,50,o),
(131,56,o),
(100,67,c)
);
}
);
width = 600;
}
);
unicode = 1499;
},
{
glyphname = "lamed-hb";
lastChange = "2023-12-19 20:05:48 +0000";
layers = (
{
anchors = (
{
name = bottom;
pos = (365,0);
},
{
name = bottomleft;
pos = (20,0);
},
{
name = center;
pos = (365,508);
},
{
name = top;
pos = (365,1015);
},
{
name = topleft;
pos = (20,1015);
}
);
layerId = m01;
shapes = (
{
attr = {
lineCapEnd = 1;
lineCapStart = 1;
strokeWidth = 100;
};
closed = 0;
nodes = (
(100,785,l),
(630,785,l)
);
},
{
attr = {
lineCapEnd = 1;
lineCapStart = 1;
strokeWidth = 100;
};
closed = 0;
nodes = (
(630,785,l),
(430,50,l)
);
},
{
attr = {
lineCapEnd = 1;
lineCapStart = 1;
strokeWidth = 100;
};
closed = 0;
nodes = (
(100,925,l),
(100,785,l)
);
}
);
width = 730;
}
);
unicode = 1500;
},
{
glyphname = "memFinal-hb";
kernLeft = hebrewStraight;
kernRight = hebrewRounded;
lastChange = "2023-12-19 20:05:12 +0000";
layers = (
{
anchors = (
{
name = bottom;
pos = (340,0);
},
{
name = bottomleft;
pos = (20,0);
},
{
name = center;
pos = (340,508);
},
{
name = top;
pos = (340,1015);
},
{
name = topleft;
pos = (20,1015);
}
);
layerId = m01;
shapes = (
{
attr = {
lineCapEnd = 1;
lineCapStart = 1;
strokeWidth = 100;
};
closed = 0;
nodes = (
(580,50,l),
(580,595,l),
(580,705,o),
(490,795,o),
(380,795,c),
(259,795,l),
(220,795,o),
(148,792,o),
(100,769,c)
);
},
{
attr = {
lineCapEnd = 1;
lineCapStart = 1;
strokeWidth = 100;
};
closed = 0;
nodes = (
(100,769,l),
(100,50,l)
);
},
{
attr = {
lineCapEnd = 1;
lineCapStart = 1;
strokeWidth = 100;
};
closed = 0;
nodes = (
(100,50,l),
(580,50,l)
);
}
);
width = 680;
}
);
unicode = 1501;
},
{
glyphname = "mem-hb";
lastChange = "2023-12-19 20:05:38 +0000";
layers = (
{
anchors = (
{
name = bottom;
pos = (365,0);
},
{
name = bottomleft;
pos = (20,0);
},
{
name = center;
pos = (365,508);
},
{
name = top;
pos = (365,1015);
},
{
name = topleft;
pos = (20,1015);
}
);
layerId = m01;
shapes = (
{
attr = {
lineCapEnd = 1;
lineCapStart = 1;
strokeWidth = 100;
};
closed = 0;
nodes = (
(630,50,l),
(450,50,l)
);
},
{
attr = {
lineCapEnd = 1;
lineCapStart = 1;
strokeWidth = 100;
};
closed = 0;
nodes = (
(630,50,l),
(630,595,l),
(630,705,o),
(540,795,o),
(430,795,c),
(359,795,l),
(320,795,o),
(253,787,o),
(193,719,c)
);
},
{
attr = {
lineCapEnd = 1;
lineCapStart = 1;
strokeWidth = 100;
};
closed = 0;
nodes = (
(112,795,l),
(157,795,o),
(192,759,o),
(192,715,c)
);
},
{
attr = {
lineCapEnd = 1;
lineCapStart = 1;
strokeWidth = 100;
};
closed = 0;
nodes = (
(193,719,l),
(100,50,l)
);
}
);
width = 730;
}
);
unicode = 1502;
},
{
glyphname = "nunFinal-hb";
kernRight = hebrewRounded;
lastChange = "2023-12-19 20:07:32 +0000";
layers = (
{
anchors = (
{
name = bottom;
pos = (120,0);
},
{
name = bottomleft;
pos = (20,0);
},
{
name = center;
pos = (120,508);
},
{
name = top;
pos = (120,1015);
},
{
name = topleft;
pos = (20,1015);
}
);
layerId = m01;
shapes = (
{
attr = {
lineCapEnd = 1;
lineCapStart = 1;
strokeWidth = 100;
};
closed = 0;
nodes = (
(140,-165,l),
(140,580,l)
);
},
{
attr = {
lineCapEnd = 1;
lineCapStart = 1;
strokeWidth = 100;
};
closed = 0;
nodes = (
(140,580,l),
(100,795,l)
);
}
);
width = 240;
}
);
unicode = 1503;
},
{
glyphname = "nun-hb";
kernRight = hebrewRounded;
lastChange = "2023-12-19 20:02:40 +0000";
layers = (
{
anchors = (
{
name = bottom;
pos = (235,0);
},
{
name = bottomleft;
pos = (20,0);
},
{
name = center;
pos = (235,508);
},
{
name = top;
pos = (235,1015);
},
{
name = topleft;
pos = (20,1015);
}
);
layerId = m01;
shapes = (
{
attr = {
lineCapEnd = 1;
lineCapStart = 1;
strokeWidth = 100;
};
closed = 0;
nodes = (
(370,50,l),
(370,653,l),
(370,731,o),
(306,795,o),
(228,795,c),
(200,795,o),
(173,788,o),
(150,777,c)
);
},
{
attr = {
lineCapEnd = 1;
lineCapStart = 1;
strokeWidth = 100;
};
closed = 0;
nodes = (
(100,50,l),
(370,50,l)
);
}
);
width = 470;
}
);
unicode = 1504;
},
{
glyphname = "samekh-hb";
kernRight = hebrewRound;
lastChange = "2023-12-19 20:03:46 +0000";
layers = (
{
anchors = (
{
name = bottom;
pos = (381,0);
},
{
name = bottomleft;
pos = (20,0);
},
{
name = center;
pos = (381,508);
},
{
name = top;
pos = (381,1015);
},
{
name = topleft;
pos = (20,1015);
}
);
layerId = m01;
shapes = (
{
attr = {
strokeWidth = 100;
};
closed = 1;
nodes = (
(536,795,o),
(662,669,o),
(662,514,c),
(662,331,l),
(662,176,o),
(536,50,o),
(381,50,c),
(381,50,l),
(226,50,o),
(100,176,o),
(100,331,c),
(100,514,l),
(100,669,o),
(226,795,o),
(381,795,c)
);
},
{
attr = {
lineCapEnd = 1;
lineCapStart = 1;
strokeWidth = 100;
};
closed = 0;
nodes = (
(100,795,l),
(381,795,l)
);
}
);
width = 762;
}
);
unicode = 1505;
},
{
glyphname = "ayin-hb";
lastChange = "2023-12-19 19:49:55 +0000";
layers = (
{
anchors = (
{
name = bottom;
pos = (394,0);
},
{
name = bottomleft;
pos = (20,0);
},
{
name = center;
pos = (394,508);
},
{
name = top;
pos = (394,1015);
},
{
name = topleft;
pos = (20,1015);
}
);
layerId = m01;
shapes = (
{
attr = {
lineCapEnd = 1;
lineCapStart = 1;
strokeWidth = 100;
};
closed = 0;
nodes = (
(100,50,l),
(309,90,l),
(476,121,o),
(604,254,o),
(630,421,c),
(688,795,l)
);
},
{
attr = {
lineCapEnd = 1;
lineCapStart = 1;
strokeWidth = 100;
};
closed = 0;
nodes = (
(129,795,l),
(318,91,l)
);
}
);
width = 788;
}
);
unicode = 1506;
},
{
glyphname = "peFinal-hb";
lastChange = "2023-12-19 19:53:18 +0000";
layers = (
{
anchors = (
{
name = bottom;
pos = (350,0);
},
{
name = bottomleft;
pos = (20,0);
},
{
name = center;
pos = (350,508);
},
{
name = top;
pos = (350,1015);
},
{
name = topleft;
pos = (20,1015);
}
);
layerId = m01;
shapes = (
{
attr = {
lineCapEnd = "1";
lineCapStart = "1";
strokeWidth = 100;
};
closed = 0;
nodes = (
(600,-165,l),
(600,435,l),
(600,674,o),
(484,795,o),
(340,795,c),
(340,795,l),
(207,795,o),
(100,688,o),
(100,555,c),
(100,555,l),
(100,435,o),
(188,336,o),
(303,318,c)
);
}
);
width = 700;
}
);
unicode = 1507;
},
{
glyphname = "pe-hb";
kernRight = "";
lastChange = "2023-12-19 20:00:41 +0000";
layers = (
{
anchors = (
{
name = bottom;
pos = (350,0);
},
{
name = bottomleft;
pos = (20,0);
},
{
name = center;
pos = (350,508);
},
{
name = top;
pos = (350,1015);
},
{
name = topleft;
pos = (20,1015);
}
);
layerId = m01;
shapes = (
{
attr = {
lineCapEnd = 1;
lineCapStart = 1;
strokeWidth = 100;
};
closed = 0;
nodes = (
(303,318,l),
(188,336,o),
(100,435,o),
(100,555,c),
(100,555,l),
(100,688,o),
(207,795,o),
(340,795,c),
(340,795,l),
(484,795,o),
(600,674,o),
(600,435,c),
(600,389,l),
(600,155,o),
(493,50,o),
(361,50,c),
(361,50,l),
(228,50,o),
(191,65,o),
(130,93,c)
);
}
);
width = 700;
}
);
unicode = 1508;
},
{
glyphname = "tsadiFinal-hb";
lastChange = "2023-12-19 20:00:51 +0000";
layers = (
{
anchors = (
{
name = bottom;
pos = (300,0);
},
{
name = bottomleft;
pos = (20,0);
},
{
name = center;
pos = (300,508);
},
{
name = top;
pos = (300,1015);
},
{
name = topleft;
pos = (20,1015);
}
);
layerId = m01;
shapes = (
{
attr = {
lineCapEnd = 1;
lineCapStart = 1;
strokeWidth = 100;
};
closed = 0;
nodes = (
(300,-165,l),
(300,380,l)
);
},
{
attr = {
lineCapEnd = 1;
lineCapStart = 1;
strokeWidth = 100;
};
closed = 0;
nodes = (
(300,380,l),
(410,380,o),
(500,470,o),
(500,580,c),
(500,795,l)
);
},
{
attr = {
lineCapEnd = 1;
lineCapStart = 1;
strokeWidth = 100;
};
closed = 0;
nodes = (
(300,380,l),
(100,795,l)
);
}
);
width = 600;
}
);
unicode = 1509;
},
{
glyphname = "tsadi-hb";
lastChange = "2023-12-19 19:53:06 +0000";
layers = (
{
anchors = (
{
name = bottom;
pos = (383,0);
},
{
name = bottomleft;
pos = (20,0);
},
{
name = center;
pos = (383,508);
},
{
name = top;
pos = (383,1015);
},
{
name = topleft;
pos = (20,1015);
}
);
layerId = m01;
shapes = (
{
attr = {
lineCapEnd = 1;
lineCapStart = 1;
strokeWidth = 100;
};
closed = 0;
nodes = (
(630,50,l),
(230,785,l)
);
},
{
attr = {
lineCapEnd = 1;
lineCapStart = 1;
strokeWidth = 100;
};
closed = 0;
nodes = (
(665,795,l),
(647,641,l),
(636,542,o),
(592,450,o),
(521,380,c),
(476,334,l)
);
},
{
attr = {
lineCapEnd = 1;
lineCapStart = 1;
strokeWidth = 100;
};
closed = 0;
nodes = (
(100,50,l),
(630,50,l)
);
}
);
width = 765;
}
);
unicode = 1510;
},
{
glyphname = "qof-hb";
kernLeft = hebrewStraight;
lastChange = "2023-12-19 20:02:26 +0000";
layers = (
{
anchors = (
{
name = bottom;
pos = (355,0);
},
{
name = bottomleft;
pos = (20,0);
},
{
name = center;
pos = (355,508);
},
{
name = top;
pos = (355,1015);
},
{
name = topleft;
pos = (20,1015);
}
);
layerId = m01;
shapes = (
{
attr = {
lineCapEnd = 1;
lineCapStart = 1;
strokeWidth = 100;
};
closed = 0;
nodes = (
(100,795,l),
(458,795,l),
(549,795,o),
(619,715,o),
(607,625,c),
(561,288,l),
(543,157,o),
(432,60,o),
(300,60,c)
);
},
{
attr = {
lineCapEnd = 1;
lineCapStart = 1;
strokeWidth = 100;
};
closed = 0;
nodes = (
(100,480,l),
(100,-165,l)
);
}
);
width = 709;
}
);
unicode = 1511;
},
{
glyphname = "resh-hb";
kernRight = hebrewRounded;
lastChange = "2023-12-19 20:07:19 +0000";
layers = (
{
anchors = (
{
name = bottom;
pos = (378,0);
},
{
name = bottomleft;
pos = (98,0);
},
{
name = center;
pos = (378,508);
},
{
name = top;
pos = (378,1015);
},
{
name = topleft;
pos = (98,1015);
}
);
layerId = m01;
shapes = (
{
attr = {
lineCapEnd = 1;
lineCapStart = 1;
strokeWidth = 100;
};
closed = 0;
nodes = (
(530,50,l),
(530,595,l),
(530,705,o),
(440,795,o),
(330,795,c),
(209,795,l),
(170,795,o),
(133,786,o),
(100,769,c)
);
}
);
width = 630;
}
);
unicode = 1512;
},
{
glyphname = "shin-hb";
lastChange = "2023-12-19 19:53:45 +0000";
layers = (
{
anchors = (
{
name = bottom;
pos = (465,0);
},
{
name = bottomleft;
pos = (20,0);
},
{
name = center;
pos = (465,508);
},
{
name = top;
pos = (465,1015);
},
{
name = topleft;
pos = (20,1015);
},
{
name = topright;
pos = (910,1015);
}
);
layerId = m01;
shapes = (
{
attr = {
lineCapEnd = 1;
lineCapStart = 1;
strokeWidth = 100;
};
closed = 0;
nodes = (
(200,50,l),
(380,50,l),
(580,50,o),
(750,198,o),
(777,397,c),
(830,795,l)
);
},
{
attr = {
lineCapEnd = 1;
lineCapStart = 1;
strokeWidth = 100;
};
closed = 0;
nodes = (
(164,315,l),
(217,315,l),
(312,315,o),
(394,381,o),
(413,474,c),
(480,795,l)
);
},
{
attr = {
lineCapEnd = 1;
lineCapStart = 1;
strokeWidth = 100;
};
closed = 0;
nodes = (
(100,795,l),
(200,50,l)
);
}
);
width = 930;
}
);
unicode = 1513;
},
{
glyphname = "tav-hb";
lastChange = "2023-12-19 20:07:24 +0000";
layers = (
{
anchors = (
{
name = bottom;
pos = (399,0);
},
{
name = bottomleft;
pos = (119,0);
},
{
name = center;
pos = (399,508);
},
{
name = top;
pos = (399,1015);
},
{
name = topleft;
pos = (119,1015);
}
);
layerId = m01;
shapes = (
{
attr = {
lineCapEnd = 1;
lineCapStart = 1;
strokeWidth = 100;
};
closed = 0;
nodes = (
(670,50,l),
(670,595,l),
(670,705,o),
(580,795,o),
(470,795,c),
(279,795,l),
(240,795,o),
(168,792,o),
(120,769,c)
);
},
{
attr = {
lineCapEnd = 1;
lineCapStart = 1;
strokeWidth = 100;
};
closed = 0;
nodes = (
(230,793,l),
(230,180,l),
(230,108,o),
(172,50,o),
(100,50,c)
);
}
);
width = 770;
}
);
metricRight = "";
unicode = 1514;
},
{
glyphname = zero;
kernLeft = uppercaseRound;
kernRight = uppercaseRound;
lastChange = "2023-12-19 20:32:52 +0000";
layers = (
{
layerId = m01;
shapes = (
{
attr = {
strokeWidth = 100;
};
closed = 0;
nodes = (
(568,756,l),
(162,144,l)
);
},
{
attr = {
strokeWidth = 100;
};
closed = 1;
nodes = (
(630,169,o),
(511,50,o),
(365,50,c),
(219,50,o),
(100,169,o),
(100,315,c),
(100,585,l),
(100,731,o),
(219,850,o),
(365,850,c),
(511,850,o),
(630,731,o),
(630,585,c),
(630,315,l)
);
}
);
width = 730;
}
);
unicode = 48;
},
{
glyphname = one;
kernRight = uppercaseStraight;
lastChange = "2023-12-19 19:42:29 +0000";
layers = (
{
layerId = m01;
shapes = (
{
attr = {
lineCapEnd = 1;
lineCapStart = 1;
strokeWidth = 100;
};
closed = 0;
nodes = (
(300,850,l),
(300,50,l)
);
},
{
attr = {
lineCapEnd = 1;
lineCapStart = 1;
strokeWidth = 100;
};
closed = 0;
nodes = (
(100,741,l),
(300,850,l)
);
}
);
width = 400;
}
);
unicode = 49;
},
{
glyphname = two;
lastChange = "2023-12-19 17:09:10 +0000";
layers = (
{
layerId = m01;
shapes = (
{
attr = {
lineCapEnd = 1;
lineCapStart = 1;
strokeWidth = 100;
};
closed = 0;
nodes = (
(100,50,l),
(100,50,o),
(446,304,o),
(553,398,c),
(604,442,o),
(630,512,o),
(630,585,c),
(630,585,l),
(630,731,o),
(512,850,o),
(365,850,c),
(219,850,o),
(100,731,o),
(100,585,c)
);
},
{
attr = {
lineCapEnd = 1;
lineCapStart = 1;
strokeWidth = 100;
};
closed = 0;
nodes = (
(630,50,l),
(100,50,l)
);
}
);
width = 730;
}
);
unicode = 50;
},
{
glyphname = three;
lastChange = "2023-12-18 20:50:48 +0000";
layers = (
{
layerId = m01;
shapes = (
{
attr = {
lineCapEnd = 1;
lineCapStart = 1;
strokeWidth = 100;
};
closed = 0;
nodes = (
(100,783,l),
(156,829,o),
(215,850,o),
(349,850,c),
(380,850,l),
(491,850,o),
(580,760,o),
(580,650,c),
(580,540,o),
(491,450,o),
(380,450,c)
);
},
{
attr = {
lineCapEnd = 1;
lineCapStart = 1;
strokeWidth = 100;
};
closed = 0;
nodes = (
(100,117,l),
(156,71,o),
(215,50,o),
(349,50,c),
(380,50,l),
(491,50,o),
(580,140,o),
(580,250,c),
(580,360,o),
(491,450,o),
(380,450,c)
);
},
{
attr = {
lineCapEnd = 1;
lineCapStart = 1;
strokeWidth = 100;
};
closed = 0;
nodes = (
(227,450,l),
(381,450,l)
);
}
);
width = 680;
}
);
unicode = 51;
},
{
glyphname = four;
lastChange = "2023-12-19 17:09:22 +0000";
layers = (
{
layerId = m01;
shapes = (
{
attr = {
lineCapEnd = 1;
lineCapStart = 1;
strokeWidth = 100;
};
closed = 0;
nodes = (
(529,850,l),
(100,313,l)
);
},
{
attr = {
lineCapEnd = 1;
lineCapStart = 1;
strokeWidth = 100;
};
closed = 0;
nodes = (
(100,313,l),
(630,313,l)
);
},
{
attr = {
lineCapEnd = 1;
lineCapStart = 1;
strokeWidth = 100;
};
closed = 0;
nodes = (
(529,50,l),
(529,850,l)
);
}
);
width = 720;
}
);
unicode = 52;
},
{
glyphname = five;
lastChange = "2023-12-18 20:44:20 +0000";
layers = (
{
layerId = m01;
shapes = (
{
attr = {
lineCapEnd = 1;
lineCapStart = 1;
strokeWidth = 100;
};
closed = 0;
nodes = (
(100,117,l),
(156,71,o),
(209,50,o),
(343,50,c),
(365,50,l),
(490,50,o),
(590,151,o),
(590,275,c),
(590,399,o),
(490,500,o),
(365,500,c),
(100,500,l)
);
},
{
attr = {
lineCapEnd = 1;
lineCapStart = 1;
strokeWidth = 100;
};
closed = 0;
nodes = (
(100,850,l),
(590,850,l)
);
},
{
attr = {
lineCapEnd = 1;
lineCapStart = 1;
strokeWidth = 100;
};
closed = 0;
nodes = (
(100,500,l),
(100,850,l)
);
}
);
width = 690;
}
);
unicode = 53;
},
{
glyphname = six;
kernLeft = uppercaseRound;
kernRight = uppercaseRound;
lastChange = "2023-12-18 20:44:20 +0000";
layers = (
{
layerId = m01;
shapes = (
{
attr = {
strokeWidth = 100;
};
closed = 1;
nodes = (
(630,169,o),
(512,50,o),
(365,50,c),
(219,50,o),
(100,169,o),
(100,315,c),
(100,461,o),
(219,580,o),
(365,580,c),
(512,580,o),
(630,461,o),
(630,315,c)
);
},
{
attr = {
lineCapEnd = 1;
lineCapStart = 1;
strokeWidth = 100;
};
closed = 0;
nodes = (
(607,752,l),
(563,810,o),
(496,850,o),
(384,850,c),
(365,850,l),
(219,850,o),
(100,731,o),
(100,585,c),
(100,315,l)
);
}
);
width = 730;
}
);
unicode = 54;
},
{
glyphname = seven;
lastChange = "2023-12-19 19:41:55 +0000";
layers = (
{
layerId = m01;
shapes = (
{
attr = {
lineCapEnd = 1;
lineCapStart = 1;
strokeWidth = 100;
};
closed = 0;
nodes = (
(630,850,l),
(100,850,l)
);
},
{
attr = {
lineCapEnd = 1;
lineCapStart = 1;
strokeWidth = 100;
};
closed = 0;
nodes = (
(200,50,l),
(630,850,l)
);
}
);
width = 710;
}
);
unicode = 55;
},
{
glyphname = eight;
lastChange = "2023-12-19 17:09:01 +0000";
layers = (
{
layerId = m01;
shapes = (
{
attr = {
lineCapEnd = 1;
lineCapStart = 1;
strokeWidth = 100;
};
closed = 0;
nodes = (
(430,450,l),
(541,450,o),
(630,360,o),
(630,250,c),
(630,140,o),
(541,50,o),
(430,50,c),
(300,50,l),
(190,50,o),
(100,140,o),
(100,250,c),
(100,360,o),
(190,450,o),
(300,450,c)
);
},
{
attr = {
lineCapEnd = 1;
lineCapStart = 1;
strokeWidth = 100;
};
closed = 0;
nodes = (
(300,450,l),
(190,450,o),
(100,540,o),
(100,650,c),
(100,760,o),
(190,850,o),
(300,850,c),
(430,850,l),
(541,850,o),
(630,760,o),
(630,650,c),
(630,540,o),
(541,450,o),
(430,450,c)
);
},
{
attr = {
lineCapEnd = 1;
lineCapStart = 1;
strokeWidth = 100;
};
closed = 0;
nodes = (
(300,450,l),
(430,450,l)
);
}
);
width = 730;
}
);
unicode = 56;
},
{
glyphname = nine;
kernLeft = uppercaseRound;
kernRight = uppercaseRound;
lastChange = "2023-12-18 20:44:20 +0000";
layers = (
{
layerId = m01;
shapes = (
{
attr = {
strokeWidth = 100;
};
closed = 1;
nodes = (
(100,731,o),
(219,850,o),
(365,850,c),
(512,850,o),
(630,731,o),
(630,585,c),
(630,439,o),
(512,320,o),
(365,320,c),
(219,320,o),
(100,439,o),
(100,585,c)
);
},
{
attr = {
lineCapEnd = 1;
lineCapStart = 1;
strokeWidth = 100;
};
closed = 0;
nodes = (
(124,148,l),
(168,90,o),
(235,50,o),
(347,50,c),
(365,50,l),
(512,50,o),
(630,169,o),
(630,315,c),
(630,585,l)
);
}
);
width = 730;
}
);
unicode = 57;
},
{
glyphname = "maqaf-hb";
lastChange = "2023-12-19 20:00:38 +0000";
layers = (
{
layerId = m01;
shapes = (
{
attr = {
lineCapEnd = "1";
lineCapStart = "1";
strokeWidth = 100;
};
closed = 0;
nodes = (
(80,795,l),
(361,795,l)
);
}
);
width = 441;
}
);
unicode = 1470;
},
{
glyphname = period;
kernLeft = dot;
kernRight = dot;
lastChange = "2023-12-19 20:05:56 +0000";
layers = (
{
layerId = m01;
shapes = (
{
closed = 1;
nodes = (
(210,116,o),
(176,150,o),
(135,150,c),
(93,150,o),
(60,116,o),
(60,75,c),
(60,34,o),
(93,0,o),
(135,0,c),
(176,0,o),
(210,34,o),
(210,75,c)
);
}
);
width = 270;
}
);
unicode = 46;
},
{
glyphname = comma;
kernLeft = dot;
kernRight = dot;
lastChange = "2023-12-19 20:31:28 +0000";
layers = (
{
layerId = m01;
shapes = (
{
attr = {
lineCapEnd = "1";
lineCapStart = "1";
strokeWidth = 100;
};
closed = 0;
nodes = (
(110,-99,l),
(160,-74,o),
(160,-25,o),
(160,0,c),
(160,66,l)
);
},
{
closed = 1;
nodes = (
(210,117,o),
(177,150,o),
(135,150,c),
(94,150,o),
(60,117,o),
(60,75,c),
(60,34,o),
(94,0,o),
(135,0,c),
(177,0,o),
(210,34,o),
(210,75,c)
);
}
);
width = 270;
}
);
unicode = 44;
},
{
glyphname = colon;
kernLeft = dot;
kernRight = dot;
lastChange = "2023-12-19 20:31:33 +0000";
layers = (
{
layerId = m01;
shapes = (
{
closed = 1;
nodes = (
(210,116,o),
(176,150,o),
(135,150,c),
(93,150,o),
(60,116,o),
(60,75,c),
(60,34,o),
(93,0,o),
(135,0,c),
(176,0,o),
(210,34,o),
(210,75,c)
);
},
{
closed = 1;
nodes = (
(210,620,o),
(176,654,o),
(135,654,c),
(93,654,o),
(60,620,o),
(60,579,c),
(60,538,o),
(93,504,o),
(135,504,c),
(176,504,o),
(210,538,o),
(210,579,c)
);
}
);
width = 270;
}
);
unicode = 58;
},
{
glyphname = semicolon;
kernLeft = dot;
kernRight = dot;
lastChange = "2023-12-18 20:44:20 +0000";
layers = (
{
layerId = m01;
shapes = (
{
attr = {
lineCapEnd = 1;
lineCapStart = 1;
strokeWidth = 100;
};
closed = 0;
nodes = (
(110,-99,l),
(160,-74,o),
(160,-25,o),
(160,0,c),
(160,66,l)
);
},
{
closed = 1;
nodes = (
(210,117,o),
(177,150,o),
(135,150,c),
(94,150,o),
(60,117,o),
(60,75,c),
(60,34,o),
(94,0,o),
(135,0,c),
(177,0,o),
(210,34,o),
(210,75,c)
);
},
{
closed = 1;
nodes = (
(210,620,o),
(176,654,o),
(135,654,c),
(93,654,o),
(60,620,o),
(60,579,c),
(60,538,o),
(93,504,o),
(135,504,c),
(176,504,o),
(210,538,o),
(210,579,c)
);
}
);
width = 270;
}
);
unicode = 59;
},
{
glyphname = exclam;
lastChange = "2023-12-29 12:50:04 +0000";
layers = (
{
layerId = m01;
shapes = (
{
closed = 1;
nodes = (
(210,116,o),
(176,150,o),
(135,150,c),
(93,150,o),
(60,116,o),
(60,75,c),
(60,34,o),
(93,0,o),
(135,0,c),
(176,0,o),
(210,34,o),
(210,75,c)
);
},
{
attr = {
lineCapEnd = 1;
lineCapStart = 1;
strokeWidth = 100;
};
closed = 0;
nodes = (
(135,849,l),
(135,265,l)
);
}
);
width = 270;
}
);
unicode = 33;
},
{
glyphname = question;
lastChange = "2023-12-29 12:50:06 +0000";
layers = (
{
layerId = m01;
shapes = (
{
attr = {
lineCapEnd = "1";
lineCapStart = "1";
strokeWidth = 100;
};
closed = 0;
nodes = (
(319,265,l),
(319,280,l),
(319,373,o),
(430,438,o),
(475,474,c),
(519,510,o),
(540,569,o),
(540,630,c),
(540,752,o),
(441,850,o),
(320,850,c),
(259,850,o),
(204,825,o),
(164,786,c),
(124,746,o),
(100,691,o),
(100,630,c)
);
},
{
closed = 1;
nodes = (
(395,116,o),
(361,150,o),
(320,150,c),
(278,150,o),
(245,116,o),
(245,75,c),
(245,34,o),
(278,0,o),
(320,0,c),
(361,0,o),
(395,34,o),
(395,75,c)
);
}
);
width = 640;
}
);
unicode = 63;
},
{
glyphname = questiondown;
lastChange = "2023-12-21 15:53:53 +0000";
layers = (
{
layerId = m01;
shapes = (
{
attr = {
lineCapEnd = "1";
lineCapStart = "1";
strokeWidth = 100;
};
closed = 0;
nodes = (
(321,375,l),
(321,345,l)
);
},
{
closed = 1;
nodes = (
(245,539,o),
(279,505,o),
(320,505,c),
(362,505,o),
(395,539,o),
(395,580,c),
(395,621,o),
(362,655,o),
(320,655,c),
(279,655,o),
(245,621,o),
(245,580,c)
);
},
{
attr = {
lineCapEnd = "1";
lineCapStart = "1";
strokeWidth = 100;
};
closed = 0;
nodes = (
(540,0,l),
(540,-61,o),
(516,-116,o),
(476,-156,c),
(436,-195,o),
(381,-220,o),
(320,-220,c),
(199,-220,o),
(100,-122,o),
(100,0,c),
(100,61,o),
(121,120,o),
(165,156,c),
(210,192,o),
(321,252,o),
(321,345,c)
);
}
);
width = 640;
}
);
unicode = 191;
},
{
glyphname = asterisk;
lastChange = "2023-12-18 20:44:20 +0000";
layers = (
{
layerId = m01;
shapes = (
{
attr = {
lineCapEnd = "1";
lineCapStart = "1";
strokeWidth = 100;
};
closed = 0;
nodes = (
(260,667,l),
(260,850,l)
);
},
{
attr = {
lineCapEnd = "1";
lineCapStart = "1";
strokeWidth = 100;
};
closed = 0;
nodes = (
(260,667,l),
(149,530,l)
);
},
{
attr = {
lineCapEnd = "1";
lineCapStart = "1";
strokeWidth = 100;
};
closed = 0;
nodes = (
(100,768,l),
(260,667,l)
);
},
{
attr = {
lineCapEnd = "1";
lineCapStart = "1";
strokeWidth = 100;
};
closed = 0;
nodes = (
(260,667,l),
(370,530,l)
);
},
{
attr = {
lineCapEnd = "1";
lineCapStart = "1";
strokeWidth = 100;
};
closed = 0;
nodes = (
(420,768,l),
(260,667,l)
);
}
);
width = 520;
}
);
unicode = 42;
},
{
glyphname = numbersign;
lastChange = "2023-12-18 20:44:20 +0000";
layers = (
{
layerId = m01;
shapes = (
{
attr = {
lineCapEnd = 1;
lineCapStart = 1;
strokeWidth = 100;
};
closed = 0;
nodes = (
(168,50,l),
(299,795,l)
);
},
{
attr = {
lineCapEnd = 1;
lineCapStart = 1;
strokeWidth = 100;
};
closed = 0;
nodes = (
(428,50,l),
(559,795,l)
);
},
{
attr = {
lineCapEnd = 1;
lineCapStart = 1;
strokeWidth = 100;
};
closed = 0;
nodes = (
(100,265,l),
(570,265,l)
);
},
{
attr = {
lineCapEnd = 1;
lineCapStart = 1;
strokeWidth = 100;
};
closed = 0;
nodes = (
(156,580,l),
(626,580,l)
);
}
);
width = 726;
}
);
unicode = 35;
},
{
glyphname = slash;
lastChange = "2023-12-19 17:11:02 +0000";
layers = (
{
layerId = m01;
shapes = (
{
attr = {
lineCapEnd = 1;
lineCapStart = 1;
strokeWidth = 100;
};
closed = 0;
nodes = (
(400,850,l),
(100,-165,l)
);
}
);
width = 500;
}
);
unicode = 47;
},
{
glyphname = backslash;
lastChange = "2023-12-18 20:44:20 +0000";
layers = (
{
layerId = m01;
shapes = (
{
attr = {
lineCapEnd = "1";
lineCapStart = "1";
strokeWidth = 100;
};
closed = 0;
nodes = (
(100,850,l),
(400,-165,l)
);
}
);
width = 500;
}
);
unicode = 92;
},
{
glyphname = hyphen;
kernLeft = dash;
kernRight = dash;
lastChange = "2023-12-19 17:06:40 +0000";
layers = (
{
layerId = m01;
shapes = (
{
attr = {
lineCapEnd = 1;
lineCapStart = 1;
strokeWidth = 100;
};
closed = 0;
nodes = (
(100,315,l),
(500,315,l)
);
}
);
width = 600;
}
);
unicode = 45;
},
{
glyphname = endash;
kernLeft = dash;
kernRight = dash;
lastChange = "2023-12-19 17:01:22 +0000";
layers = (
{
layerId = m01;
shapes = (
{
attr = {
lineCapEnd = "1";
lineCapStart = "1";
strokeWidth = 100;
};
closed = 0;
nodes = (
(100,315,l),
(600,315,l)
);
}
);
width = 700;
}
);
unicode = 8211;
},
{
glyphname = emdash;
kernLeft = dash;
kernRight = dash;
lastChange = "2023-12-19 17:01:09 +0000";
layers = (
{
layerId = m01;
shapes = (
{
attr = {
lineCapEnd = "1";
lineCapStart = "1";
strokeWidth = 100;
};
closed = 0;
nodes = (
(100,315,l),
(800,315,l)
);
}
);
width = 900;
}
);
unicode = 8212;
},
{
glyphname = underscore;
kernLeft = dash;
kernRight = dash;
lastChange = "2023-12-19 17:01:39 +0000";
layers = (
{
layerId = m01;
shapes = (
{
attr = {
lineCapEnd = 1;
lineCapStart = 1;
strokeWidth = 100;
};
closed = 0;
nodes = (
(100,50,l),
(600,50,l)
);
}
);
width = 700;
}
);
unicode = 95;
},
{
glyphname = wavedash;
kernLeft = dash;
kernRight = dash;
lastChange = "2023-12-19 17:01:14 +0000";
layers = (
{
layerId = m01;
shapes = (
{
attr = {
lineCapEnd = 1;
lineCapStart = 1;
strokeWidth = 100;
};
closed = 0;
nodes = (
(500,365,l),
(500,310,o),
(455,265,o),
(399,265,c),
(338,265,o),
(319,297,o),
(300,315,c),
(281,333,o),
(262,365,o),
(200,365,c),
(145,365,o),
(100,320,o),
(100,265,c)
);
}
);
width = 600;
}
);
unicode = 12316;
},
{
glyphname = parenright;
kernLeft = parenthesis;
lastChange = "2023-12-19 19:41:08 +0000";
layers = (
{
layerId = m01;
shapes = (
{
attr = {
lineCapEnd = "1";
lineCapStart = "1";
strokeWidth = 100;
};
closed = 0;
nodes = (
(100,850,l),
(100,850,o),
(300,672,o),
(300,370,c),
(300,67,o),
(100,-110,o),
(100,-110,c)
);
}
);
width = 400;
}
);
unicode = 41;
},
{
glyphname = braceleft;
kernRight = parenthesis;
lastChange = "2023-12-19 19:41:11 +0000";
layers = (
{
layerId = m01;
shapes = (
{
attr = {
lineCapEnd = 1;
lineCapStart = 1;
strokeWidth = 100;
};
closed = 0;
nodes = (
(421,850,l),
(332,850,o),
(261,778,o),
(261,690,c),
(261,530,l),
(261,442,o),
(189,370,o),
(101,370,c)
);
},
{
attr = {
lineCapEnd = 1;
lineCapStart = 1;
strokeWidth = 100;
};
closed = 0;
nodes = (
(101,370,l),
(189,370,o),
(261,299,o),
(261,210,c),
(261,50,l),
(261,-38,o),
(332,-110,o),
(421,-110,c)
);
}
);
width = 520;
}
);
unicode = 123;
},
{
glyphname = bracketleft;
kernRight = parenthesis;
lastChange = "2023-12-19 17:03:15 +0000";
layers = (
{
layerId = m01;
shapes = (
{
attr = {
lineCapEnd = 1;
lineCapStart = 1;
strokeWidth = 100;
};
closed = 0;
nodes = (
(100,850,l),
(100,-110,l)
);
},
{
attr = {
lineCapEnd = 1;
lineCapStart = 1;
strokeWidth = 100;
};
closed = 0;
nodes = (
(100,-110,l),
(260,-110,l)
);
},
{
attr = {
lineCapEnd = 1;
lineCapStart = 1;
strokeWidth = 100;
};
closed = 0;
nodes = (
(260,850,l),
(100,850,l)
);
}
);
width = 360;
}
);
unicode = 91;
},
{
glyphname = anglebracketleft;
kernRight = parenthesis;
lastChange = "2023-12-19 19:41:26 +0000";
layers = (
{
layerId = m01;
shapes = (
{
attr = {
lineCapEnd = 1;
lineCapStart = 1;
strokeWidth = 100;
};
closed = 0;
nodes = (
(260,850,l),
(100,370,l)
);
},
{
attr = {
lineCapEnd = 1;
lineCapStart = 1;
strokeWidth = 100;
};
closed = 0;
nodes = (
(100,370,l),
(260,-110,l)
);
}
);
width = 360;
}
);
unicode = 12296;
},
{
glyphname = tortoiseshellbracketleft;
kernRight = parenthesis;
lastChange = "2023-12-19 19:41:39 +0000";
layers = (
{
layerId = m01;
shapes = (
{
attr = {
lineCapEnd = 1;
lineCapStart = 1;
strokeWidth = 100;
};
closed = 0;
nodes = (
(260,850,l),
(100,710,l)
);
},
{
attr = {
lineCapEnd = 1;
lineCapStart = 1;
strokeWidth = 100;
};
closed = 0;
nodes = (
(100,30,l),
(260,-110,l)
);
},
{
attr = {
lineCapEnd = 1;
lineCapStart = 1;
strokeWidth = 100;
};
closed = 0;
nodes = (
(100,710,l),
(100,30,l)
);
}
);
width = 360;
}
);
unicode = 12308;
},
{
glyphname = whitelenticularbracketright;
lastChange = "2023-12-18 20:44:20 +0000";
layers = (
{
layerId = m01;
shapes = (
{
attr = {
identifier = ID0x1536e3080;
lineCapEnd = "1";
lineCapStart = "1";
strokeWidth = 100;
};
closed = 0;
nodes = (
(100,850,l),
(100,850,o),
(300,672,o),
(300,370,c),
(300,67,o),
(100,-110,o),
(100,-110,c)
);
},
{
attr = {
identifier = ID0x1536a5c50;
lineCapEnd = 1;
lineCapStart = 1;
strokeWidth = 100;
};
closed = 0;
nodes = (
(459,-110,l),
(459,850,l)
);
},
{
attr = {
identifier = ID0x1536a5c50;
lineCapEnd = 1;
lineCapStart = 1;
strokeWidth = 100;
};
closed = 0;
nodes = (
(100,-110,l),
(459,-110,l)
);
},
{
attr = {
identifier = ID0x1536a5c50;
lineCapEnd = 1;
lineCapStart = 1;
strokeWidth = 100;
};
closed = 0;
nodes = (
(459,850,l),
(100,850,l)
);
}
);
width = 559;
}
);
metricLeft = ")";
metricRight = "]";
unicode = 12311;
},
{
glyphname = quoteleft;
kernLeft = quote;
kernRight = quote;
lastChange = "2023-12-18 20:44:20 +0000";
layers = (
{
layerId = m01;
shapes = (
{
attr = {
lineCapEnd = "1";
lineCapStart = "1";
strokeWidth = 100;
};
closed = 0;
nodes = (
(80,630,l),
(140,850,l)
);
}
);
width = 220;
}
);
unicode = 8216;
},
{
glyphname = quotesingle;
kernLeft = quote;
kernRight = quote;
lastChange = "2023-12-18 20:44:20 +0000";
layers = (
{
layerId = m01;
shapes = (
{
attr = {
lineCapEnd = "1";
lineCapStart = "1";
strokeWidth = 100;
};
closed = 0;
nodes = (
(80,630,l),
(80,850,l)
);
}
);
width = 160;
}
);
unicode = 39;
},
{
glyphname = rainbow;
lastChange = "2023-12-29 19:48:56 +0000";
layers = (
{
layerId = m01;
shapes = (
{
attr = {
lineCapEnd = 1;
lineCapStart = 1;
strokeWidth = 100;
};
closed = 0;
nodes = (
(100,-70,l),
(100,438,o),
(512,850,o),
(1020,850,c)
);
},
{
attr = {
lineCapEnd = 1;
lineCapStart = 1;
strokeWidth = 100;
};
closed = 0;
nodes = (
(293,-70,l),
(293,331,o),
(618,657,o),
(1020,657,c)
);
},
{
attr = {
lineCapEnd = 1;
lineCapStart = 1;
strokeWidth = 100;
};
closed = 0;
nodes = (
(486,-70,l),
(486,225,o),
(725,463,o),
(1020,463,c)
);
},
{
attr = {
lineCapEnd = 1;
lineCapStart = 1;
strokeWidth = 100;
};
closed = 0;
nodes = (
(680,-70,l),
(680,118,o),
(832,270,o),
(1020,270,c)
);
},
{
attr = {
lineCapEnd = 1;
lineCapStart = 1;
strokeWidth = 100;
};
closed = 0;
nodes = (
(100,-70,l),
(680,-70,l)
);
},
{
attr = {
lineCapEnd = 1;
lineCapStart = 1;
strokeWidth = 100;
};
closed = 0;
nodes = (
(1020,270,l),
(1020,850,l)
);
}
);
width = 1120;
}
);
unicode = 127752;
},
{
glyphname = globeMeridians;
kernLeft = emojiRound;
kernRight = emojiRound;
lastChange = "2023-12-29 19:46:28 +0000";
layers = (
{
layerId = m01;
shapes = (
{
attr = {
strokeWidth = 100;
};
closed = 1;
nodes = (
(815,-70,o),
(1020,136,o),
(1020,391,c),
(1020,645,o),
(815,850,o),
(561,850,c),
(306,850,o),
(100,645,o),
(100,391,c),
(100,136,o),
(306,-70,o),
(561,-70,c)
);
},
{
attr = {
strokeWidth = 100;
};
closed = 0;
nodes = (
(959,620,l),
(161,620,l)
);
},
{
attr = {
strokeWidth = 100;
};
closed = 0;
nodes = (
(961,166,l),
(158,166,l)
);
},
{
attr = {
strokeWidth = 100;
};
closed = 0;
nodes = (
(102,390,l),
(1017,390,l)
);
},
{
attr = {
strokeWidth = 100;
};
closed = 0;
nodes = (
(561,850,l),
(561,-70,l)
);
},
{
attr = {
strokeWidth = 100;
};
closed = 1;
nodes = (
(687,-70,o),
(790,136,o),
(790,391,c),
(790,645,o),
(687,850,o),
(560,850,c),
(433,850,o),
(330,645,o),
(330,391,c),
(330,136,o),
(433,-70,o),
(560,-70,c)
);
}
);
width = 1120;
}
);
unicode = 127760;
},
{
glyphname = newMoonSymbol;
kernLeft = emojiRound;
kernRight = emojiRound;
lastChange = "2023-12-29 20:21:04 +0000";
layers = (
{
layerId = m01;
shapes = (
{
attr = {
strokeWidth = 100;
};
closed = 1;
nodes = (
(815,-70,o),
(1020,136,o),
(1020,391,c),
(1020,645,o),
(815,850,o),
(561,850,c),
(306,850,o),
(100,645,o),
(100,391,c),
(100,136,o),
(306,-70,o),
(561,-70,c)
);
}
);
width = 1120;
}
);
unicode = 127761;
},
{
glyphname = waxingCrescentMoonSymbol;
kernLeft = emojiRound;
kernRight = emojiRound;
lastChange = "2023-12-29 20:43:10 +0000";
layers = (
{
layerId = m01;
shapes = (
{
attr = {
strokeWidth = 100;
};
closed = 1;
nodes = (
(815,-70,o),
(1020,136,o),
(1020,391,c),
(1020,645,o),
(815,850,o),
(561,850,c),
(306,850,o),
(100,645,o),
(100,391,c),
(100,136,o),
(306,-70,o),
(561,-70,c)
);
},
{
attr = {
lineCapEnd = 1;
lineCapStart = 1;
strokeWidth = 100;
};
closed = 0;
nodes = (
(414,826,l),
(595,765,o),
(725,593,o),
(725,391,c),
(725,188,o),
(595,16,o),
(414,-46,c)
);
}
);
width = 1120;
}
);
unicode = 127762;
},
{
glyphname = firstQuarterMoonSymbol;
kernLeft = emojiRound;
kernRight = emojiRound;
lastChange = "2023-12-29 20:43:14 +0000";
layers = (
{
layerId = m01;
shapes = (
{
attr = {
strokeWidth = 100;
};
closed = 1;
nodes = (
(815,-70,o),
(1020,136,o),
(1020,391,c),
(1020,645,o),
(815,850,o),
(561,850,c),
(306,850,o),
(100,645,o),
(100,391,c),
(100,136,o),
(306,-70,o),
(561,-70,c)
);
},
{
attr = {
strokeWidth = 100;
};
closed = 0;
nodes = (
(561,850,l),
(561,-70,l)
);
}
);
width = 1120;
}
);
unicode = 127763;
},
{
glyphname = crescentMoon;
lastChange = "2023-12-29 20:23:02 +0000";
layers = (
{
layerId = m01;
shapes = (
{
attr = {
lineCapEnd = 1;
lineCapStart = 1;
strokeWidth = 100;
};
closed = 0;
nodes = (
(100,181,l),
(122,137,o),
(151,96,o),
(188,60,c),
(367,-120,o),
(658,-119,o),
(838,61,c),
(1018,241,o),
(1018,531,o),
(838,710,c),
(802,747,o),
(761,776,o),
(717,798,c)
);
},
{
attr = {
lineCapEnd = 1;
lineCapStart = 1;
strokeWidth = 100;
};
closed = 0;
nodes = (
(717,798,l),
(802,626,o),
(773,413,o),
(630,270,c),
(486,126,o),
(272,96,o),
(100,181,c)
);
}
);
width = 1073;
}
);
unicode = 127769;
},
{
glyphname = droplet;
lastChange = "2023-12-29 20:24:43 +0000";
layers = (
{
layerId = m01;
shapes = (
{
attr = {
lineCapEnd = 1;
lineCapStart = 1;
strokeWidth = 100;
};
closed = 0;
nodes = (
(465,-120,l),
(263,-120,o),
(100,44,o),
(100,246,c),
(100,570,o),
(465,800,o),
(465,800,c)
);
},
{
attr = {
lineCapEnd = 1;
lineCapStart = 1;
strokeWidth = 100;
};
closed = 0;
nodes = (
(465,800,l),
(465,800,o),
(831,569,o),
(831,246,c),
(831,44,o),
(667,-120,o),
(465,-120,c)
);
}
);
width = 931;
}
);
unicode = 128167;
},
{
glyphname = largeOrangeDiamond;
lastChange = "2023-12-29 20:42:44 +0000";
layers = (
{
layerId = m01;
shapes = (
{
attr = {
lineCapEnd = 1;
lineCapStart = 1;
strokeWidth = 100;
};
closed = 0;
nodes = (
(100,390,l),
(560,-70,l)
);
},
{
attr = {
lineCapEnd = 1;
lineCapStart = 1;
strokeWidth = 100;
};
closed = 0;
nodes = (
(1020,390,l),
(560,850,l)
);
},
{
attr = {
lineCapEnd = 1;
lineCapStart = 1;
strokeWidth = 100;
};
closed = 0;
nodes = (
(560,-70,l),
(1020,390,l)
);
},
{
attr = {
lineCapEnd = 1;
lineCapStart = 1;
strokeWidth = 100;
};
closed = 0;
nodes = (
(560,850,l),
(100,390,l)
);
}
);
width = 1120;
}
);
unicode = 128310;
},
{
glyphname = oneClock;
kernLeft = emojiRound;
kernRight = emojiRound;
lastChange = "2023-12-29 19:52:22 +0000";
layers = (
{
layerId = m01;
shapes = (
{
attr = {
strokeWidth = 100;
};
closed = 1;
nodes = (
(815,-70,o),
(1020,136,o),
(1020,391,c),
(1020,645,o),
(815,850,o),
(561,850,c),
(306,850,o),
(100,645,o),
(100,391,c),
(100,136,o),
(306,-70,o),
(561,-70,c)
);
},
{
attr = {
lineCapEnd = 1;
lineCapStart = 1;
strokeWidth = 100;
};
closed = 0;
nodes = (
(560,390,l),
(560,699,l)
);
},
{
attr = {
lineCapEnd = 1;
lineCapStart = 1;
strokeWidth = 100;
};
closed = 0;
nodes = (
(560,390,l),
(675,589,l)
);
}
);
width = 1120;
}
);
unicode = 128336;
},
{
glyphname = twoClock;
kernLeft = emojiRound;
kernRight = emojiRound;
lastChange = "2023-12-29 19:52:57 +0000";
layers = (
{
layerId = m01;
shapes = (
{
attr = {
strokeWidth = 100;
};
closed = 1;
nodes = (
(815,-70,o),
(1020,136,o),
(1020,391,c),
(1020,645,o),
(815,850,o),
(561,850,c),
(306,850,o),
(100,645,o),
(100,391,c),
(100,136,o),
(306,-70,o),
(561,-70,c)
);
},
{
attr = {
lineCapEnd = 1;
lineCapStart = 1;
strokeWidth = 100;
};
closed = 0;
nodes = (
(560,390,l),
(560,699,l)
);
},
{
attr = {
lineCapEnd = 1;
lineCapStart = 1;
strokeWidth = 100;
};
closed = 0;
nodes = (
(560,390,l),
(759,505,l)
);
}
);
width = 1120;
}
);
unicode = 128337;
},
{
glyphname = threeClock;
kernLeft = emojiRound;
kernRight = emojiRound;
lastChange = "2023-12-29 19:53:14 +0000";
layers = (
{
layerId = m01;
shapes = (
{
attr = {
strokeWidth = 100;
};
closed = 1;
nodes = (
(815,-70,o),
(1020,136,o),
(1020,391,c),
(1020,645,o),
(815,850,o),
(561,850,c),
(306,850,o),
(100,645,o),
(100,391,c),
(100,136,o),
(306,-70,o),
(561,-70,c)
);
},
{
attr = {
lineCapEnd = 1;
lineCapStart = 1;
strokeWidth = 100;
};
closed = 0;
nodes = (
(560,390,l),
(560,699,l)
);
},
{
attr = {
lineCapEnd = 1;
lineCapStart = 1;
strokeWidth = 100;
};
closed = 0;
nodes = (
(560,390,l),
(790,390,l)
);
}
);
width = 1120;
}
);
unicode = 128338;
},
{
glyphname = fourClock;
kernLeft = emojiRound;
kernRight = emojiRound;
lastChange = "2023-12-29 19:56:08 +0000";
layers = (
{
layerId = m01;
shapes = (
{
attr = {
lineCapEnd = 1;
lineCapStart = 1;
strokeWidth = 100;
};
closed = 0;
nodes = (
(560,390,l),
(759,275,l)
);
},
{
attr = {
strokeWidth = 100;
};
closed = 1;
nodes = (
(815,-70,o),
(1020,136,o),
(1020,391,c),
(1020,645,o),
(815,850,o),
(561,850,c),
(306,850,o),
(100,645,o),
(100,391,c),
(100,136,o),
(306,-70,o),
(561,-70,c)
);
},
{
attr = {
lineCapEnd = 1;
lineCapStart = 1;
strokeWidth = 100;
};
closed = 0;
nodes = (
(560,390,l),
(560,699,l)
);
}
);
width = 1120;
}
);
unicode = 128339;
},
{
glyphname = fiveClock;
kernLeft = emojiRound;
kernRight = emojiRound;
lastChange = "2023-12-29 19:56:11 +0000";
layers = (
{
layerId = m01;
shapes = (
{
attr = {
strokeWidth = 100;
};
closed = 1;
nodes = (
(815,-70,o),
(1020,136,o),
(1020,391,c),
(1020,645,o),
(815,850,o),
(561,850,c),
(306,850,o),
(100,645,o),
(100,391,c),
(100,136,o),
(306,-70,o),
(561,-70,c)
);
},
{
attr = {
lineCapEnd = 1;
lineCapStart = 1;
strokeWidth = 100;
};
closed = 0;
nodes = (
(560,390,l),
(560,699,l)
);
},
{
attr = {
lineCapEnd = 1;
lineCapStart = 1;
strokeWidth = 100;
};
closed = 0;
nodes = (
(560,390,l),
(675,191,l)
);
}
);
width = 1120;
}
);
unicode = 128340;
},
{
glyphname = sixClock;
kernLeft = emojiRound;
kernRight = emojiRound;
lastChange = "2023-12-29 19:56:15 +0000";
layers = (
{
layerId = m01;
shapes = (
{
attr = {
strokeWidth = 100;
};
closed = 1;
nodes = (
(815,-70,o),
(1020,136,o),
(1020,391,c),
(1020,645,o),
(815,850,o),
(561,850,c),
(306,850,o),
(100,645,o),
(100,391,c),
(100,136,o),
(306,-70,o),
(561,-70,c)
);
},
{
attr = {
lineCapEnd = 1;
lineCapStart = 1;
strokeWidth = 100;
};
closed = 0;
nodes = (
(560,390,l),
(560,699,l)
);
},
{
attr = {
lineCapEnd = 1;
lineCapStart = 1;
strokeWidth = 100;
};
closed = 0;
nodes = (
(560,390,l),
(560,160,l)
);
}
);
width = 1120;
}
);
unicode = 128341;
},
{
glyphname = twelveClock;
kernLeft = emojiRound;
kernRight = emojiRound;
lastChange = "2023-12-29 19:55:57 +0000";
layers = (
{
layerId = m01;
shapes = (
{
attr = {
strokeWidth = 100;
};
closed = 1;
nodes = (
(815,-70,o),
(1020,136,o),
(1020,391,c),
(1020,645,o),
(815,850,o),
(561,850,c),
(306,850,o),
(100,645,o),
(100,391,c),
(100,136,o),
(306,-70,o),
(561,-70,c)
);
},
{
attr = {
lineCapEnd = 1;
lineCapStart = 1;
strokeWidth = 100;
};
closed = 0;
nodes = (
(560,390,l),
(560,699,l)
);
}
);
width = 1120;
}
);
unicode = 128347;
},
{
glyphname = twelveThirtyClock;
kernLeft = emojiRound;
kernRight = emojiRound;
lastChange = "2023-12-29 20:43:55 +0000";
layers = (
{
layerId = m01;
shapes = (
{
attr = {
strokeWidth = 100;
};
closed = 1;
nodes = (
(815,850,o),
(1020,644,o),
(1020,389,c),
(1020,135,o),
(815,-70,o),
(561,-70,c),
(306,-70,o),
(100,135,o),
(100,389,c),
(100,644,o),
(306,850,o),
(561,850,c)
);
},
{
attr = {
lineCapEnd = 1;
lineCapStart = 1;
strokeWidth = 100;
};
closed = 0;
nodes = (
(560,390,l),
(560,81,l)
);
},
{
attr = {
lineCapEnd = 1;
lineCapStart = 1;
strokeWidth = 100;
};
closed = 0;
nodes = (
(560,390,l),
(560,620,l)
);
}
);
width = 1120;
}
);
unicode = 128359;
},
{
glyphname = grinningFace;
kernLeft = emojiRound;
kernRight = emojiRound;
lastChange = "2023-12-29 20:44:28 +0000";
layers = (
{
layerId = m01;
shapes = (
{
attr = {
lineCapEnd = 1;
lineCapStart = 1;
strokeWidth = 100;
};
closed = 0;
nodes = (
(714,580,l),
(714,520,l)
);
},
{
attr = {
lineCapEnd = 1;
lineCapStart = 1;
strokeWidth = 100;
};
closed = 0;
nodes = (
(408,580,l),
(408,520,l)
);
},
{
attr = {
strokeWidth = 100;
};
closed = 1;
nodes = (
(815,-70,o),
(1020,136,o),
(1020,391,c),
(1020,645,o),
(815,850,o),
(561,850,c),
(306,850,o),
(100,645,o),
(100,391,c),
(100,136,o),
(306,-70,o),
(561,-70,c)
);
},
{
attr = {
lineCapEnd = 1;
lineCapStart = 1;
strokeWidth = 100;
};
closed = 0;
nodes = (
(268,391,l),
(268,229,o),
(399,98,o),
(561,98,c),
(722,98,o),
(852,229,o),
(852,391,c)
);
},
{
attr = {
lineCapEnd = 1;
lineCapStart = 1;
strokeWidth = 100;
};
closed = 0;
nodes = (
(852,391,l),
(852,391,o),
(734,296,o),
(561,296,c),
(388,296,o),
(268,391,o),
(268,391,c)
);
}
);
width = 1120;
}
);
unicode = 128512;
},
{
glyphname = grinningFaceWithSmilingEyes;
kernLeft = emojiRound;
kernRight = emojiRound;
lastChange = "2023-12-29 20:43:55 +0000";
layers = (
{
layerId = m01;
shapes = (
{
attr = {
strokeWidth = 100;
};
closed = 1;
nodes = (
(815,-70,o),
(1020,136,o),
(1020,391,c),
(1020,645,o),
(815,850,o),
(561,850,c),
(306,850,o),
(100,645,o),
(100,391,c),
(100,136,o),
(306,-70,o),
(561,-70,c)
);
},
{
attr = {
lineCapEnd = 1;
lineCapStart = 1;
strokeWidth = 100;
};
closed = 0;
nodes = (
(268,391,l),
(268,229,o),
(399,98,o),
(561,98,c),
(722,98,o),
(852,229,o),
(852,391,c)
);
},
{
attr = {
lineCapEnd = 1;
lineCapStart = 1;
strokeWidth = 100;
};
closed = 0;
nodes = (
(852,391,l),
(852,391,o),
(734,296,o),
(561,296,c),
(388,296,o),
(268,391,o),
(268,391,c)
);
},
{
attr = {
lineCapEnd = 1;
lineCapStart = 1;
strokeWidth = 100;
};
closed = 0;
nodes = (
(485,520,l),
(446,608,l),
(431,640,o),
(385,640,o),
(370,608,c),
(331,520,l)
);
},
{
attr = {
lineCapEnd = 1;
lineCapStart = 1;
strokeWidth = 100;
};
closed = 0;
nodes = (
(791,520,l),
(752,608,l),
(737,640,o),
(691,640,o),
(676,608,c),
(637,520,l)
);
}
);
width = 1120;
}
);
unicode = 128513;
},
{
glyphname = faceWithTearsOfJoy;
kernLeft = emojiRound;
kernRight = emojiRound;
lastChange = "2023-12-29 20:43:55 +0000";
layers = (
{
layerId = m01;
shapes = (
{
attr = {
strokeWidth = 100;
};
closed = 1;
nodes = (
(881,-70,o),
(1086,136,o),
(1086,391,c),
(1086,645,o),
(881,850,o),
(627,850,c),
(372,850,o),
(166,645,o),
(166,391,c),
(166,136,o),
(372,-70,o),
(627,-70,c)
);
},
{
attr = {
lineCapEnd = 1;
lineCapStart = 1;
strokeWidth = 100;
};
closed = 0;
nodes = (
(334,391,l),
(334,229,o),
(465,98,o),
(627,98,c),
(788,98,o),
(918,229,o),
(918,391,c)
);
},
{
attr = {
lineCapEnd = 1;
lineCapStart = 1;
strokeWidth = 100;
};
closed = 0;
nodes = (
(918,391,l),
(918,391,o),
(800,296,o),
(627,296,c),
(454,296,o),
(334,391,o),
(334,391,c)
);
},
{
attr = {
lineCapEnd = 1;
lineCapStart = 1;
strokeWidth = 100;
};
closed = 0;
nodes = (
(100,244,l),
(202,392,l)
);
},
{
attr = {
lineCapEnd = 1;
lineCapStart = 1;
strokeWidth = 100;
};
closed = 0;
nodes = (
(1154,244,l),
(1052,392,l)
);
},
{
attr = {
lineCapEnd = 1;
lineCapStart = 1;
strokeWidth = 100;
};
closed = 0;
nodes = (
(354,520,l),
(354,520,o),
(387,546,o),
(434,546,c),
(481,546,o),
(514,520,o),
(514,520,c)
);
},
{
attr = {
lineCapEnd = 1;
lineCapStart = 1;
strokeWidth = 100;
};
closed = 0;
nodes = (
(738,520,l),
(738,520,o),
(771,546,o),
(818,546,c),
(865,546,o),
(898,520,o),
(898,520,c)
);
}
);
width = 1254;
}
);
unicode = 128514;
},
{
glyphname = smilingFaceWithOpenMouth;
kernLeft = emojiRound;
kernRight = emojiRound;
lastChange = "2023-12-29 20:43:55 +0000";
layers = (
{
layerId = m01;
shapes = (
{
attr = {
lineCapEnd = 1;
lineCapStart = 1;
strokeWidth = 100;
};
closed = 0;
nodes = (
(714,610,l),
(714,490,l)
);
},
{
attr = {
lineCapEnd = 1;
lineCapStart = 1;
strokeWidth = 100;
};
closed = 0;
nodes = (
(408,610,l),
(408,490,l)
);
},
{
attr = {
strokeWidth = 100;
};
closed = 1;
nodes = (
(815,-70,o),
(1020,136,o),
(1020,391,c),
(1020,645,o),
(815,850,o),
(561,850,c),
(306,850,o),
(100,645,o),
(100,391,c),
(100,136,o),
(306,-70,o),
(561,-70,c)
);
},
{
attr = {
lineCapEnd = 1;
lineCapStart = 1;
strokeWidth = 100;
};
closed = 0;
nodes = (
(268,391,l),
(268,229,o),
(398,98,o),
(560,98,c),
(721,98,o),
(852,229,o),
(852,391,c)
);
},
{
attr = {
lineCapEnd = 1;
lineCapStart = 1;
strokeWidth = 100;
};
closed = 0;
nodes = (
(852,391,l),
(852,391,o),
(734,296,o),
(560,296,c),
(388,296,o),
(268,391,o),
(268,391,c)
);
}
);
width = 1120;
}
);
unicode = 128515;
},
{
glyphname = smilingFaceWithOpenMouthAndSmilingEyes;
kernLeft = emojiRound;
kernRight = emojiRound;
lastChange = "2023-12-29 20:43:55 +0000";
layers = (
{
layerId = m01;
shapes = (
{
attr = {
strokeWidth = 100;
};
closed = 1;
nodes = (
(815,-70,o),
(1020,136,o),
(1020,391,c),
(1020,645,o),
(815,850,o),
(561,850,c),
(306,850,o),
(100,645,o),
(100,391,c),
(100,136,o),
(306,-70,o),
(561,-70,c)
);
},
{
attr = {
lineCapEnd = 1;
lineCapStart = 1;
strokeWidth = 100;
};
closed = 0;
nodes = (
(268,391,l),
(268,229,o),
(398,98,o),
(560,98,c),
(721,98,o),
(852,229,o),
(852,391,c)
);
},
{
attr = {
lineCapEnd = 1;
lineCapStart = 1;
strokeWidth = 100;
};
closed = 0;
nodes = (
(852,391,l),
(852,391,o),
(734,296,o),
(560,296,c),
(388,296,o),
(268,391,o),
(268,391,c)
);
},
{
attr = {
lineCapEnd = 1;
lineCapStart = 1;
strokeWidth = 100;
};
closed = 0;
nodes = (
(484,520,l),
(484,582,o),
(450,632,o),
(408,632,c),
(365,632,o),
(331,582,o),
(331,520,c)
);
},
{
attr = {
lineCapEnd = 1;
lineCapStart = 1;
strokeWidth = 100;
};
closed = 0;
nodes = (
(790,520,l),
(790,582,o),
(756,632,o),
(714,632,c),
(671,632,o),
(637,582,o),
(637,520,c)
);
}
);
width = 1120;
}
);
unicode = 128516;
},
{
glyphname = smilingFaceWithOpenMouthAndColdSweat;
kernLeft = emojiRound;
kernRight = emojiRound;
lastChange = "2023-12-29 20:43:55 +0000";
layers = (
{
layerId = m01;
shapes = (
{
ref = smilingFaceWithOpenMouthAndSmilingEyes;
},
{
attr = {
lineCapEnd = 1;
lineCapStart = 1;
strokeWidth = 100;
};
closed = 0;
nodes = (
(891,612,l),
(891,801,l)
);
}
);
width = 1120;
}
);
unicode = 128517;
},
{
glyphname = smilingFaceWithOpenMouthAndTightlyClosedEyes;
kernLeft = emojiRound;
kernRight = emojiRound;
lastChange = "2023-12-29 20:43:55 +0000";
layers = (
{
layerId = m01;
shapes = (
{
attr = {
strokeWidth = 100;
};
closed = 1;
nodes = (
(815,-70,o),
(1020,136,o),
(1020,391,c),
(1020,645,o),
(815,850,o),
(561,850,c),
(306,850,o),
(100,645,o),
(100,391,c),
(100,136,o),
(306,-70,o),
(561,-70,c)
);
},
{
attr = {
lineCapEnd = 1;
lineCapStart = 1;
strokeWidth = 100;
};
closed = 0;
nodes = (
(268,391,l),
(268,229,o),
(399,98,o),
(561,98,c),
(722,98,o),
(852,229,o),
(852,391,c)
);
},
{
attr = {
lineCapEnd = 1;
lineCapStart = 1;
strokeWidth = 100;
};
closed = 0;
nodes = (
(852,391,l),
(852,391,o),
(734,296,o),
(561,296,c),
(388,296,o),
(268,391,o),
(268,391,c)
);
},
{
attr = {
lineCapEnd = 1;
lineCapStart = 1;
strokeWidth = 100;
};
closed = 0;
nodes = (
(473,576,l),
(351,653,l)
);
},
{
attr = {
lineCapEnd = 1;
lineCapStart = 1;
strokeWidth = 100;
};
closed = 0;
nodes = (
(771,653,l),
(648,576,l)
);
},
{
attr = {
lineCapEnd = 1;
lineCapStart = 1;
strokeWidth = 100;
};
closed = 0;
nodes = (
(351,499,l),
(473,576,l)
);
},
{
attr = {
lineCapEnd = 1;
lineCapStart = 1;
strokeWidth = 100;
};
closed = 0;
nodes = (
(648,576,l),
(771,499,l)
);
}
);
width = 1120;
}
);
unicode = 128518;
},
{
glyphname = smilingFaceWithSmilingEyes;
kernLeft = emojiRound;
kernRight = emojiRound;
lastChange = "2023-12-29 20:43:55 +0000";
layers = (
{
layerId = m01;
shapes = (
{
attr = {
strokeWidth = 100;
};
closed = 1;
nodes = (
(815,-70,o),
(1020,136,o),
(1020,391,c),
(1020,645,o),
(815,850,o),
(561,850,c),
(306,850,o),
(100,645,o),
(100,391,c),
(100,136,o),
(306,-70,o),
(561,-70,c)
);
},
{
attr = {
lineCapEnd = 1;
lineCapStart = 1;
strokeWidth = 100;
};
closed = 0;
nodes = (
(852,313,l),
(852,313,o),
(734,218,o),
(561,218,c),
(388,218,o),
(268,313,o),
(268,313,c)
);
},
{
attr = {
lineCapEnd = 1;
lineCapStart = 1;
strokeWidth = 100;
};
closed = 0;
nodes = (
(485,520,l),
(446,608,l),
(431,640,o),
(385,640,o),
(370,608,c),
(331,520,l)
);
},
{
attr = {
lineCapEnd = 1;
lineCapStart = 1;
strokeWidth = 100;
};
closed = 0;
nodes = (
(791,520,l),
(752,608,l),
(737,640,o),
(691,640,o),
(676,608,c),
(637,520,l)
);
}
);
width = 1120;
}
);
unicode = 128522;
},
{
glyphname = relievedFace;
kernLeft = emojiRound;
kernRight = emojiRound;
lastChange = "2023-12-29 20:43:55 +0000";
layers = (
{
layerId = m01;
shapes = (
{
attr = {
strokeWidth = 100;
};
closed = 1;
nodes = (
(815,-70,o),
(1020,136,o),
(1020,391,c),
(1020,645,o),
(815,850,o),
(561,850,c),
(306,850,o),
(100,645,o),
(100,391,c),
(100,136,o),
(306,-70,o),
(561,-70,c)
);
},
{
attr = {
lineCapEnd = 1;
lineCapStart = 1;
strokeWidth = 100;
};
closed = 0;
nodes = (
(832,505,l),
(832,505,o),
(800,479,o),
(752,479,c),
(705,479,o),
(672,505,o),
(672,505,c)
);
},
{
attr = {
lineCapEnd = 1;
lineCapStart = 1;
strokeWidth = 100;
};
closed = 0;
nodes = (
(448,505,l),
(448,505,o),
(416,479,o),
(368,479,c),
(321,479,o),
(288,505,o),
(288,505,c)
);
},
{
attr = {
lineCapEnd = 1;
lineCapStart = 1;
strokeWidth = 100;
};
closed = 0;
nodes = (
(660,237,l),
(660,237,o),
(620,201,o),
(560,201,c),
(501,201,o),
(460,237,o),
(460,237,c)
);
}
);
width = 1120;
}
);
unicode = 128524;
},
{
glyphname = neutralFace;
kernLeft = emojiRound;
kernRight = emojiRound;
lastChange = "2023-12-29 20:43:55 +0000";
layers = (
{
layerId = m01;
shapes = (
{
attr = {
lineCapEnd = 1;
lineCapStart = 1;
strokeWidth = 100;
};
closed = 0;
nodes = (
(714,580,l),
(714,520,l)
);
},
{
attr = {
lineCapEnd = 1;
lineCapStart = 1;
strokeWidth = 100;
};
closed = 0;
nodes = (
(408,580,l),
(408,520,l)
);
},
{
attr = {
strokeWidth = 100;
};
closed = 1;
nodes = (
(815,-70,o),
(1020,136,o),
(1020,391,c),
(1020,645,o),
(815,850,o),
(561,850,c),
(306,850,o),
(100,645,o),
(100,391,c),
(100,136,o),
(306,-70,o),
(561,-70,c)
);
},
{
attr = {
lineCapEnd = 1;
lineCapStart = 1;
strokeWidth = 100;
};
closed = 0;
nodes = (
(305,293,l),
(815,293,l)
);
}
);
width = 1120;
}
);
unicode = 128528;
},
{
glyphname = expressionlessFace;
kernLeft = emojiRound;
kernRight = emojiRound;
lastChange = "2023-12-29 20:43:55 +0000";
layers = (
{
layerId = m01;
shapes = (
{
attr = {
lineCapEnd = 1;
lineCapStart = 1;
strokeWidth = 100;
};
closed = 0;
nodes = (
(764,550,l),
(644,550,l)
);
},
{
attr = {
lineCapEnd = 1;
lineCapStart = 1;
strokeWidth = 100;
};
closed = 0;
nodes = (
(478,550,l),
(358,550,l)
);
},
{
attr = {
strokeWidth = 100;
};
closed = 1;
nodes = (
(815,-70,o),
(1020,136,o),
(1020,391,c),
(1020,645,o),
(815,850,o),
(561,850,c),
(306,850,o),
(100,645,o),
(100,391,c),
(100,136,o),
(306,-70,o),
(561,-70,c)
);
},
{
attr = {
lineCapEnd = 1;
lineCapStart = 1;
strokeWidth = 100;
};
closed = 0;
nodes = (
(305,293,l),
(815,293,l)
);
}
);
width = 1120;
}
);
unicode = 128529;
},
{
glyphname = pensiveFace;
kernLeft = emojiRound;
kernRight = emojiRound;
lastChange = "2023-12-29 20:43:55 +0000";
layers = (
{
layerId = m01;
shapes = (
{
attr = {
strokeWidth = 100;
};
closed = 1;
nodes = (
(815,-70,o),
(1020,136,o),
(1020,391,c),
(1020,645,o),
(815,850,o),
(561,850,c),
(306,850,o),
(100,645,o),
(100,391,c),
(100,136,o),
(306,-70,o),
(561,-70,c)
);
},
{
attr = {
lineCapEnd = 1;
lineCapStart = 1;
strokeWidth = 100;
};
closed = 0;
nodes = (
(832,505,l),
(832,505,o),
(799,479,o),
(752,479,c),
(705,479,o),
(672,505,o),
(672,505,c)
);
},
{
attr = {
lineCapEnd = 1;
lineCapStart = 1;
strokeWidth = 100;
};
closed = 0;
nodes = (
(448,505,l),
(448,505,o),
(415,479,o),
(368,479,c),
(321,479,o),
(288,505,o),
(288,505,c)
);
},
{
attr = {
lineCapEnd = 1;
lineCapStart = 1;
strokeWidth = 100;
};
closed = 0;
nodes = (
(460,224,l),
(660,224,l)
);
}
);
width = 1120;
}
);
unicode = 128532;
},
{
glyphname = faceWithStuckOutTongue;
kernLeft = emojiRound;
kernRight = emojiRound;
lastChange = "2023-12-29 20:43:55 +0000";
layers = (
{
layerId = m01;
shapes = (
{
attr = {
strokeWidth = 100;
};
closed = 0;
nodes = (
(446,-56,l),
(247,-5,o),
(100,176,o),
(100,391,c),
(100,645,o),
(306,850,o),
(561,850,c),
(815,850,o),
(1020,645,o),
(1020,391,c),
(1020,175,o),
(873,-6,o),
(674,-56,c)
);
},
{
attr = {
lineCapEnd = 1;
lineCapStart = 1;
strokeWidth = 100;
};
closed = 0;
nodes = (
(852,343,l),
(852,343,o),
(734,248,o),
(561,248,c),
(388,248,o),
(268,343,o),
(268,343,c)
);
},
{
attr = {
lineCapEnd = 1;
lineCapStart = 1;
strokeWidth = 100;
};
closed = 0;
nodes = (
(707,90,l),
(794,140,o),
(852,235,o),
(852,343,c)
);
},
{
attr = {
lineCapEnd = 1;
lineCapStart = 1;
strokeWidth = 100;
};
closed = 0;
nodes = (
(268,343,l),
(268,235,o),
(327,141,o),
(414,90,c)
);
},
{
attr = {
lineCapEnd = 1;
lineCapStart = 1;
strokeWidth = 100;
};
closed = 0;
nodes = (
(714,530,l),
(714,470,l)
);
},
{
attr = {
lineCapEnd = 1;
lineCapStart = 1;
strokeWidth = 100;
};
closed = 0;
nodes = (
(408,530,l),
(408,470,l)
);
},
{
attr = {
lineCapEnd = 1;
lineCapStart = 1;
strokeWidth = 100;
};
closed = 0;
nodes = (
(655,258,l),
(655,258,o),
(707,221,o),
(707,157,c),
(707,36,l),
(707,-44,o),
(641,-110,o),
(560,-110,c),
(479,-110,o),
(414,-44,o),
(414,36,c),
(414,157,l),
(414,221,o),
(466,258,o),
(466,258,c)
);
},
{
attr = {
lineCapEnd = 1;
lineCapStart = 1;
strokeWidth = 100;
};
closed = 0;
nodes = (
(560,248,l),
(560,43,l)
);
}
);
width = 1120;
}
);
unicode = 128539;
},
{
glyphname = faceWithStuckOutTongueAndTightlyClosedEyes;
kernLeft = emojiRound;
kernRight = emojiRound;
lastChange = "2023-12-29 20:43:55 +0000";
layers = (
{
layerId = m01;
shapes = (
{
attr = {
lineCapEnd = "1";
lineCapStart = "1";
strokeWidth = 100;
};
closed = 0;
nodes = (
(473,576,l),
(351,653,l)
);
},
{
attr = {
lineCapEnd = "1";
lineCapStart = "1";
strokeWidth = 100;
};
closed = 0;
nodes = (
(771,653,l),
(648,576,l)
);
},
{
attr = {
lineCapEnd = "1";
lineCapStart = "1";
strokeWidth = 100;
};
closed = 0;
nodes = (
(351,499,l),
(473,576,l)
);
},
{
attr = {
lineCapEnd = "1";
lineCapStart = "1";
strokeWidth = 100;
};
closed = 0;
nodes = (
(648,576,l),
(771,499,l)
);
},
{
attr = {
strokeWidth = 100;
};
closed = 0;
nodes = (
(446,-56,l),
(247,-5,o),
(100,176,o),
(100,391,c),
(100,645,o),
(306,850,o),
(561,850,c),
(815,850,o),
(1020,645,o),
(1020,391,c),
(1020,175,o),
(873,-6,o),
(673,-56,c)
);
},
{
attr = {
lineCapEnd = "1";
lineCapStart = "1";
strokeWidth = 100;
};
closed = 0;
nodes = (
(852,343,l),
(852,343,o),
(734,248,o),
(561,248,c),
(388,248,o),
(268,343,o),
(268,343,c)
);
},
{
attr = {
lineCapEnd = "1";
lineCapStart = "1";
strokeWidth = 100;
};
closed = 0;
nodes = (
(706,90,l),
(793,140,o),
(852,235,o),
(852,343,c)
);
},
{
attr = {
lineCapEnd = "1";
lineCapStart = "1";
strokeWidth = 100;
};
closed = 0;
nodes = (
(268,343,l),
(268,235,o),
(326,141,o),
(413,90,c)
);
},
{
attr = {
lineCapEnd = "1";
lineCapStart = "1";
strokeWidth = 100;
};
closed = 0;
nodes = (
(655,258,l),
(655,258,o),
(706,221,o),
(706,157,c),
(706,36,l),
(706,-44,o),
(641,-110,o),
(560,-110,c),
(479,-110,o),
(413,-44,o),
(413,36,c),
(413,157,l),
(413,221,o),
(465,258,o),
(465,258,c)
);
},
{
attr = {
lineCapEnd = "1";
lineCapStart = "1";
strokeWidth = 100;
};
closed = 0;
nodes = (
(561,248,l),
(561,43,l)
);
}
);
width = 1120;
}
);
unicode = 128541;
},
{
glyphname = disappointedFace;
kernLeft = emojiRound;
kernRight = emojiRound;
lastChange = "2023-12-29 20:43:55 +0000";
layers = (
{
layerId = m01;
shapes = (
{
attr = {
strokeWidth = 100;
};
closed = 1;
nodes = (
(815,-70,o),
(1020,136,o),
(1020,391,c),
(1020,645,o),
(815,850,o),
(561,850,c),
(306,850,o),
(100,645,o),
(100,391,c),
(100,136,o),
(306,-70,o),
(561,-70,c)
);
},
{
attr = {
lineCapEnd = 1;
lineCapStart = 1;
strokeWidth = 100;
};
closed = 0;
nodes = (
(832,477,l),
(832,477,o),
(793,464,o),
(748,480,c),
(703,496,o),
(681,532,o),
(681,532,c)
);
},
{
attr = {
lineCapEnd = 1;
lineCapStart = 1;
strokeWidth = 100;
};
closed = 0;
nodes = (
(439,532,l),
(439,532,o),
(417,496,o),
(373,480,c),
(328,464,o),
(289,477,o),
(289,477,c)
);
},
{
attr = {
lineCapEnd = 1;
lineCapStart = 1;
strokeWidth = 100;
};
closed = 0;
nodes = (
(660,201,l),
(660,201,o),
(620,237,o),
(560,237,c),
(501,237,o),
(460,201,o),
(460,201,c)
);
}
);
width = 1120;
}
);
unicode = 128542;
},
{
glyphname = faceWithOpenMouth;
kernLeft = emojiRound;
kernRight = emojiRound;
lastChange = "2023-12-29 20:43:55 +0000";
layers = (
{
layerId = m01;
shapes = (
{
attr = {
lineCapEnd = 1;
lineCapStart = 1;
strokeWidth = 100;
};
closed = 0;
nodes = (
(714,580,l),
(714,520,l)
);
},
{
attr = {
lineCapEnd = 1;
lineCapStart = 1;
strokeWidth = 100;
};
closed = 0;
nodes = (
(408,580,l),
(408,520,l)
);
},
{
attr = {
strokeWidth = 100;
};
closed = 1;
nodes = (
(815,-70,o),
(1020,136,o),
(1020,391,c),
(1020,645,o),
(815,850,o),
(561,850,c),
(306,850,o),
(100,645,o),
(100,391,c),
(100,136,o),
(306,-70,o),
(561,-70,c)
);
},
{
attr = {
strokeWidth = 100;
};
closed = 1;
nodes = (
(666,157,o),
(619,110,o),
(561,110,c),
(503,110,o),
(456,157,o),
(456,215,c),
(456,273,o),
(503,320,o),
(561,320,c),
(619,320,o),
(666,273,o),
(666,215,c)
);
}
);
width = 1120;
}
);
unicode = 128558;
},
{
glyphname = dizzyFace;
kernLeft = emojiRound;
kernRight = emojiRound;
lastChange = "2023-12-29 20:43:55 +0000";
layers = (
{
layerId = m01;
shapes = (
{
attr = {
lineCapEnd = 1;
lineCapStart = 1;
strokeWidth = 100;
};
closed = 0;
nodes = (
(799,465,l),
(669,595,l)
);
},
{
attr = {
strokeWidth = 100;
};
closed = 1;
nodes = (
(815,-70,o),
(1020,136,o),
(1020,391,c),
(1020,645,o),
(815,850,o),
(561,850,c),
(306,850,o),
(100,645,o),
(100,391,c),
(100,136,o),
(306,-70,o),
(561,-70,c)
);
},
{
attr = {
lineCapEnd = 1;
lineCapStart = 1;
strokeWidth = 100;
};
closed = 0;
nodes = (
(799,595,l),
(669,465,l)
);
},
{
attr = {
lineCapEnd = 1;
lineCapStart = 1;
strokeWidth = 100;
};
closed = 0;
nodes = (
(453,465,l),
(323,595,l)
);
},
{
attr = {
lineCapEnd = 1;
lineCapStart = 1;
strokeWidth = 100;
};
closed = 0;
nodes = (
(453,595,l),
(323,465,l)
);
},
{
attr = {
strokeWidth = 100;
};
closed = 1;
nodes = (
(666,157,o),
(619,110,o),
(561,110,c),
(503,110,o),
(456,157,o),
(456,215,c),
(456,273,o),
(503,320,o),
(561,320,c),
(619,320,o),
(666,273,o),
(666,215,c)
);
}
);
width = 1120;
}
);
unicode = 128565;
},
{
glyphname = faceWithoutMouth;
kernLeft = emojiRound;
kernRight = emojiRound;
lastChange = "2023-12-29 20:43:55 +0000";
layers = (
{
layerId = m01;
shapes = (
{
attr = {
lineCapEnd = "1";
lineCapStart = "1";
strokeWidth = 100;
};
closed = 0;
nodes = (
(714,580,l),
(714,520,l)
);
},
{
attr = {
lineCapEnd = "1";
lineCapStart = "1";
strokeWidth = 100;
};
closed = 0;
nodes = (
(408,580,l),
(408,520,l)
);
},
{
attr = {
strokeWidth = 100;
};
closed = 1;
nodes = (
(815,-70,o),
(1020,136,o),
(1020,391,c),
(1020,645,o),
(815,850,o),
(561,850,c),
(306,850,o),
(100,645,o),
(100,391,c),
(100,136,o),
(306,-70,o),
(561,-70,c)
);
},
{
attr = {
lineCapEnd = "1";
lineCapStart = "1";
strokeWidth = 100;
};
closed = 0;
nodes = (
(305,293,l),
(815,293,l)
);
}
);
width = 1120;
}
);
unicode = 128566;
},
{
glyphname = slightlySmilingFace;
kernLeft = emojiRound;
kernRight = emojiRound;
lastChange = "2023-12-29 20:43:55 +0000";
layers = (
{
layerId = m01;
shapes = (
{
attr = {
lineCapEnd = 1;
lineCapStart = 1;
strokeWidth = 100;
};
closed = 0;
nodes = (
(714,580,l),
(714,520,l)
);
},
{
attr = {
lineCapEnd = 1;
lineCapStart = 1;
strokeWidth = 100;
};
closed = 0;
nodes = (
(408,580,l),
(408,520,l)
);
},
{
attr = {
strokeWidth = 100;
};
closed = 1;
nodes = (
(815,-70,o),
(1020,136,o),
(1020,391,c),
(1020,645,o),
(815,850,o),
(561,850,c),
(306,850,o),
(100,645,o),
(100,391,c),
(100,136,o),
(306,-70,o),
(561,-70,c)
);
},
{
attr = {
lineCapEnd = 1;
lineCapStart = 1;
strokeWidth = 100;
};
closed = 0;
nodes = (
(271,347,l),
(292,206,o),
(414,98,o),
(561,98,c),
(707,98,o),
(828,206,o),
(849,347,c)
);
}
);
width = 1120;
}
);
unicode = 128578;
},
{
glyphname = upsideDownFace;
kernLeft = emojiRound;
kernRight = emojiRound;
lastChange = "2023-12-29 20:43:55 +0000";
layers = (
{
layerId = m01;
shapes = (
{
attr = {
lineCapEnd = "1";
lineCapStart = "1";
strokeWidth = 100;
};
closed = 0;
nodes = (
(714,260,l),
(714,200,l)
);
},
{
attr = {
lineCapEnd = "1";
lineCapStart = "1";
strokeWidth = 100;
};
closed = 0;
nodes = (
(408,260,l),
(408,200,l)
);
},
{
attr = {
strokeWidth = 100;
};
closed = 1;
nodes = (
(306,850,o),
(100,644,o),
(100,389,c),
(100,135,o),
(306,-70,o),
(561,-70,c),
(815,-70,o),
(1020,135,o),
(1020,389,c),
(1020,644,o),
(815,850,o),
(561,850,c)
);
},
{
attr = {
lineCapEnd = "1";
lineCapStart = "1";
strokeWidth = 100;
};
closed = 0;
nodes = (
(849,433,l),
(828,574,o),
(707,682,o),
(561,682,c),
(414,682,o),
(292,574,o),
(271,433,c)
);
}
);
width = 1120;
}
);
unicode = 128579;
},
{
glyphname = faceWithRollingEyes;
kernLeft = emojiRound;
kernRight = emojiRound;
lastChange = "2023-12-29 20:07:52 +0000";
layers = (
{
layerId = m01;
shapes = (
{
attr = {
lineCapEnd = 1;
lineCapStart = 1;
strokeWidth = 100;
};
closed = 0;
nodes = (
(367,700,l),
(367,610,l)
);
},
{
attr = {
strokeWidth = 100;
};
closed = 1;
nodes = (
(815,50,o),
(1020,256,o),
(1020,511,c),
(1020,765,o),
(815,970,o),
(561,970,c),
(306,970,o),
(100,765,o),
(100,511,c),
(100,256,o),
(306,50,o),
(561,50,c)
);
},
{
attr = {
strokeWidth = 100;
};
closed = 1;
nodes = (
(244,645,o),
(299,700,o),
(367,700,c),
(435,700,o),
(490,645,o),
(490,577,c),
(490,509,o),
(435,454,o),
(367,454,c),
(299,454,o),
(244,509,o),
(244,577,c)
);
},
{
attr = {
lineCapEnd = 1;
lineCapStart = 1;
strokeWidth = 100;
};
closed = 0;
nodes = (
(753,700,l),
(753,610,l)
);
},
{
attr = {
strokeWidth = 100;
};
closed = 1;
nodes = (
(630,645,o),
(685,700,o),
(753,700,c),
(821,700,o),
(876,645,o),
(876,577,c),
(876,509,o),
(821,454,o),
(753,454,c),
(685,454,o),
(630,509,o),
(630,577,c)
);
},
{
attr = {
lineCapEnd = 1;
lineCapStart = 1;
strokeWidth = 100;
};
closed = 0;
nodes = (
(460,344,l),
(660,344,l)
);
}
);
width = 1120;
}
);
unicode = 128580;
},
{
glyphname = noEntrySign;
kernLeft = emojiRound;
kernRight = emojiRound;
lastChange = "2023-12-29 20:43:59 +0000";
layers = (
{
layerId = m01;
shapes = (
{
attr = {
strokeWidth = 100;
};
closed = 1;
nodes = (
(815,850,o),
(1020,644,o),
(1020,389,c),
(1020,135,o),
(815,-70,o),
(561,-70,c),
(306,-70,o),
(100,135,o),
(100,389,c),
(100,644,o),
(306,850,o),
(561,850,c)
);
},
{
attr = {
strokeWidth = 100;
};
closed = 0;
nodes = (
(959,160,l),
(162,620,l)
);
}
);
width = 1120;
}
);
unicode = 128683;
},
{
glyphname = octagonalSign;
lastChange = "2023-12-29 20:41:39 +0000";
layers = (
{
layerId = m01;
shapes = (
{
attr = {
lineCapEnd = 1;
lineCapStart = 1;
strokeWidth = 100;
};
closed = 0;
nodes = (
(751,850,l),
(370,850,l)
);
},
{
attr = {
lineCapEnd = 1;
lineCapStart = 1;
strokeWidth = 100;
};
closed = 0;
nodes = (
(370,-70,l),
(751,-70,l)
);
},
{
attr = {
lineCapEnd = 1;
lineCapStart = 1;
strokeWidth = 100;
};
closed = 0;
nodes = (
(1020,199,l),
(1020,581,l)
);
},
{
attr = {
lineCapEnd = 1;
lineCapStart = 1;
strokeWidth = 100;
};
closed = 0;
nodes = (
(100,581,l),
(100,199,l)
);
},
{
attr = {
lineCapEnd = 1;
lineCapStart = 1;
strokeWidth = 100;
};
closed = 0;
nodes = (
(370,850,l),
(100,581,l)
);
},
{
attr = {
lineCapEnd = 1;
lineCapStart = 1;
strokeWidth = 100;
};
closed = 0;
nodes = (
(1020,581,l),
(751,850,l)
);
},
{
attr = {
lineCapEnd = 1;
lineCapStart = 1;
strokeWidth = 100;
};
closed = 0;
nodes = (
(751,-70,l),
(1020,199,l)
);
},
{
attr = {
lineCapEnd = 1;
lineCapStart = 1;
strokeWidth = 100;
};
closed = 0;
nodes = (
(100,199,l),
(370,-70,l)
);
}
);
width = 1120;
}
);
unicode = 128721;
},
{
glyphname = keycapNumberSign;
kernLeft = emojiSquare;
kernRight = emojiSquare;
lastChange = "2023-12-29 20:44:51 +0000";
layers = (
{
layerId = m01;
shapes = (
{
attr = {
strokeWidth = 100;
};
closed = 1;
nodes = (
(240,850,l),
(163,850,o),
(100,787,o),
(100,710,c),
(100,70,l),
(100,-7,o),
(163,-70,o),
(240,-70,c),
(880,-70,l),
(958,-70,o),
(1020,-7,o),
(1020,70,c),
(1020,710,l),
(1020,787,o),
(958,850,o),
(880,850,c)
);
},
{
attr = {
lineCapEnd = 1;
lineCapStart = 1;
strokeWidth = 100;
};
closed = 0;
nodes = (
(414,110,l),
(512,670,l)
);
},
{
attr = {
lineCapEnd = 1;
lineCapStart = 1;
strokeWidth = 100;
};
closed = 0;
nodes = (
(609,110,l),
(708,670,l)
);
},
{
attr = {
lineCapEnd = 1;
lineCapStart = 1;
strokeWidth = 100;
};
closed = 0;
nodes = (
(363,272,l),
(716,272,l)
);
},
{
attr = {
lineCapEnd = 1;
lineCapStart = 1;
strokeWidth = 100;
};
closed = 0;
nodes = (
(405,508,l),
(758,508,l)
);
}
);
width = 1120;
}
);
},
{
glyphname = keycapAsterisk;
kernLeft = emojiSquare;
kernRight = emojiSquare;
lastChange = "2023-12-29 20:44:51 +0000";
layers = (
{
layerId = m01;
shapes = (
{
attr = {
strokeWidth = 100;
};
closed = 1;
nodes = (
(240,850,l),
(162,850,o),
(100,787,o),
(100,710,c),
(100,70,l),
(100,-7,o),
(162,-70,o),
(240,-70,c),
(880,-70,l),
(957,-70,o),
(1020,-7,o),
(1020,70,c),
(1020,710,l),
(1020,787,o),
(957,850,o),
(880,850,c)
);
},
{
attr = {
lineCapEnd = 1;
lineCapStart = 1;
strokeWidth = 100;
};
closed = 0;
nodes = (
(560,640,l),
(560,140,l)
);
},
{
attr = {
lineCapEnd = 1;
lineCapStart = 1;
strokeWidth = 100;
};
closed = 0;
nodes = (
(343,515,l),
(776,265,l)
);
},
{
attr = {
lineCapEnd = 1;
lineCapStart = 1;
strokeWidth = 100;
};
closed = 0;
nodes = (
(343,265,l),
(776,515,l)
);
}
);
width = 1120;
}
);
},
{
glyphname = keycapDigitZero;
kernLeft = emojiSquare;
kernRight = emojiSquare;
lastChange = "2023-12-29 20:44:51 +0000";
layers = (
{
layerId = m01;
shapes = (
{
attr = {
strokeWidth = 100;
};
closed = 1;
nodes = (
(241,850,l),
(164,850,o),
(101,787,o),
(101,710,c),
(101,70,l),
(101,-7,o),
(164,-70,o),
(241,-70,c),
(881,-70,l),
(958,-70,o),
(1021,-7,o),
(1021,70,c),
(1021,710,l),
(1021,787,o),
(958,850,o),
(881,850,c)
);
},
{
attr = {
strokeWidth = 100;
};
closed = 0;
nodes = (
(703,604,l),
(419,176,l)
);
},
{
attr = {
strokeWidth = 100;
};
closed = 1;
nodes = (
(459,110,o),
(376,193,o),
(376,296,c),
(376,485,l),
(376,587,o),
(459,670,o),
(561,670,c),
(561,670,l),
(664,670,o),
(747,587,o),
(747,485,c),
(747,296,l),
(747,193,o),
(664,110,o),
(561,110,c)
);
}
);
width = 1120;
}
);
},
{
glyphname = keycapDigitOne;
kernLeft = emojiSquare;
kernRight = emojiSquare;
lastChange = "2023-12-29 20:44:51 +0000";
layers = (
{
layerId = m01;
shapes = (
{
attr = {
strokeWidth = 100;
};
closed = 1;
nodes = (
(240,850,l),
(163,850,o),
(100,787,o),
(100,710,c),
(100,70,l),
(100,-7,o),
(163,-70,o),
(240,-70,c),
(880,-70,l),
(958,-70,o),
(1020,-7,o),
(1020,70,c),
(1020,710,l),
(1020,787,o),
(958,850,o),
(880,850,c)
);
},
{
attr = {
lineCapEnd = 1;
lineCapStart = 1;
strokeWidth = 100;
};
closed = 0;
nodes = (
(560,670,l),
(560,110,l)
);
},
{
attr = {
lineCapEnd = 1;
lineCapStart = 1;
strokeWidth = 100;
};
closed = 0;
nodes = (
(420,594,l),
(560,670,l)
);
}
);
width = 1120;
}
);
},
{
glyphname = keycapDigitTwo;
kernLeft = emojiSquare;
kernRight = emojiSquare;
lastChange = "2023-12-29 20:44:51 +0000";
layers = (
{
layerId = m01;
shapes = (
{
attr = {
strokeWidth = 100;
};
closed = 1;
nodes = (
(240,850,l),
(163,850,o),
(100,787,o),
(100,710,c),
(100,70,l),
(100,-7,o),
(163,-70,o),
(240,-70,c),
(880,-70,l),
(958,-70,o),
(1020,-7,o),
(1020,70,c),
(1020,710,l),
(1020,787,o),
(958,850,o),
(880,850,c)
);
},
{
attr = {
lineCapEnd = 1;
lineCapStart = 1;
strokeWidth = 100;
};
closed = 0;
nodes = (
(375,485,l),
(375,599,o),
(479,689,o),
(597,666,c),
(675,652,o),
(737,584,o),
(745,505,c),
(751,447,o),
(732,389,o),
(692,353,c),
(617,287,o),
(375,110,o),
(375,110,c)
);
},
{
attr = {
lineCapEnd = 1;
lineCapStart = 1;
strokeWidth = 100;
};
closed = 0;
nodes = (
(375,110,l),
(746,110,l)
);
}
);
width = 1120;
}
);
},
{
glyphname = keycapDigitThree;
kernLeft = emojiSquare;
kernRight = emojiSquare;
lastChange = "2023-12-29 20:44:51 +0000";
layers = (
{
layerId = m01;
shapes = (
{
attr = {
strokeWidth = 100;
};
closed = 1;
nodes = (
(240,850,l),
(162,850,o),
(100,787,o),
(100,710,c),
(100,70,l),
(100,-7,o),
(162,-70,o),
(240,-70,c),
(880,-70,l),
(957,-70,o),
(1020,-7,o),
(1020,70,c),
(1020,710,l),
(1020,787,o),
(957,850,o),
(880,850,c)
);
},
{
attr = {
lineCapEnd = 1;
lineCapStart = 1;
strokeWidth = 100;
};
closed = 0;
nodes = (
(392,157,l),
(430,125,o),
(472,110,o),
(566,110,c),
(588,110,l),
(665,110,o),
(728,173,o),
(728,250,c),
(728,250,l),
(728,327,o),
(665,390,o),
(588,390,c)
);
},
{
attr = {
lineCapEnd = 1;
lineCapStart = 1;
strokeWidth = 100;
};
closed = 0;
nodes = (
(392,623,l),
(430,656,o),
(472,670,o),
(566,670,c),
(588,670,l),
(665,670,o),
(728,607,o),
(728,530,c),
(728,530,l),
(728,453,o),
(665,390,o),
(588,390,c)
);
},
{
attr = {
lineCapEnd = 1;
lineCapStart = 1;
strokeWidth = 100;
};
closed = 0;
nodes = (
(480,390,l),
(588,390,l)
);
}
);
width = 1120;
}
);
},
{
glyphname = keycapDigitFour;
kernLeft = emojiSquare;
kernRight = emojiSquare;
lastChange = "2023-12-29 20:44:51 +0000";
layers = (
{
layerId = m01;
shapes = (
{
attr = {
strokeWidth = 100;
};
closed = 1;
nodes = (
(240,850,l),
(162,850,o),
(100,787,o),
(100,710,c),
(100,70,l),
(100,-7,o),
(162,-70,o),
(240,-70,c),
(880,-70,l),
(957,-70,o),
(1020,-7,o),
(1020,70,c),
(1020,710,l),
(1020,787,o),
(957,850,o),
(880,850,c)
);
},
{
attr = {
lineCapEnd = 1;
lineCapStart = 1;
strokeWidth = 100;
};
closed = 0;
nodes = (
(675,670,l),
(374,294,l)
);
},
{
attr = {
lineCapEnd = 1;
lineCapStart = 1;
strokeWidth = 100;
};
closed = 0;
nodes = (
(675,110,l),
(675,670,l)
);
},
{
attr = {
lineCapEnd = 1;
lineCapStart = 1;
strokeWidth = 100;
};
closed = 0;
nodes = (
(374,294,l),
(745,294,l)
);
}
);
width = 1120;
}
);
},
{
glyphname = keycapDigitFive;
kernLeft = emojiSquare;
kernRight = emojiSquare;
lastChange = "2023-12-29 20:44:51 +0000";
layers = (
{
layerId = m01;
shapes = (
{
attr = {
strokeWidth = 100;
};
closed = 1;
nodes = (
(240,850,l),
(163,850,o),
(100,787,o),
(100,710,c),
(100,70,l),
(100,-7,o),
(163,-70,o),
(240,-70,c),
(880,-70,l),
(957,-70,o),
(1020,-7,o),
(1020,70,c),
(1020,710,l),
(1020,787,o),
(957,850,o),
(880,850,c)
);
},
{
attr = {
lineCapEnd = 1;
lineCapStart = 1;
strokeWidth = 100;
};
closed = 0;
nodes = (
(388,157,l),
(427,125,o),
(465,110,o),
(558,110,c),
(574,110,l),
(661,110,o),
(731,180,o),
(731,267,c),
(731,267,l),
(731,354,o),
(661,424,o),
(574,424,c),
(388,424,l)
);
},
{
attr = {
lineCapEnd = 1;
lineCapStart = 1;
strokeWidth = 100;
};
closed = 0;
nodes = (
(388,670,l),
(731,670,l)
);
},
{
attr = {
lineCapEnd = 1;
lineCapStart = 1;
strokeWidth = 100;
};
closed = 0;
nodes = (
(388,424,l),
(388,670,l)
);
}
);
width = 1120;
}
);
},
{
glyphname = keycapDigitSix;
kernLeft = emojiSquare;
kernRight = emojiSquare;
lastChange = "2023-12-29 20:44:51 +0000";
layers = (
{
layerId = m01;
shapes = (
{
attr = {
strokeWidth = 100;
};
closed = 1;
nodes = (
(240,850,l),
(163,850,o),
(100,787,o),
(100,710,c),
(100,70,l),
(100,-7,o),
(163,-70,o),
(240,-70,c),
(880,-70,l),
(957,-70,o),
(1020,-7,o),
(1020,70,c),
(1020,710,l),
(1020,787,o),
(957,850,o),
(880,850,c)
);
},
{
attr = {
strokeWidth = 100;
};
closed = 1;
nodes = (
(746,193,o),
(662,110,o),
(560,110,c),
(458,110,o),
(375,193,o),
(375,296,c),
(375,398,o),
(458,481,o),
(560,481,c),
(662,481,o),
(746,398,o),
(746,296,c)
);
},
{
attr = {
lineCapEnd = 1;
lineCapStart = 1;
strokeWidth = 100;
};
closed = 0;
nodes = (
(729,602,l),
(698,642,o),
(651,670,o),
(573,670,c),
(560,670,l),
(458,670,o),
(375,587,o),
(375,484,c),
(375,295,l)
);
}
);
width = 1120;
}
);
},
{
glyphname = keycapDigitSeven;
kernLeft = emojiSquare;
kernRight = emojiSquare;
lastChange = "2023-12-29 20:44:51 +0000";
layers = (
{
layerId = m01;
shapes = (
{
attr = {
strokeWidth = 100;
};
closed = 1;
nodes = (
(240,850,l),
(163,850,o),
(100,787,o),
(100,710,c),
(100,70,l),
(100,-7,o),
(163,-70,o),
(240,-70,c),
(880,-70,l),
(958,-70,o),
(1020,-7,o),
(1020,70,c),
(1020,710,l),
(1020,787,o),
(958,850,o),
(880,850,c)
);
},
{
attr = {
lineCapEnd = 1;
lineCapStart = 1;
strokeWidth = 100;
};
closed = 0;
nodes = (
(444,110,l),
(746,670,l)
);
},
{
attr = {
lineCapEnd = 1;
lineCapStart = 1;
strokeWidth = 100;
};
closed = 0;
nodes = (
(746,670,l),
(375,670,l)
);
}
);
width = 1120;
}
);
},
{
glyphname = keycapDigitEight;
kernLeft = emojiSquare;
kernRight = emojiSquare;
lastChange = "2023-12-29 20:44:51 +0000";
layers = (
{
layerId = m01;
shapes = (
{
attr = {
strokeWidth = 100;
};
closed = 1;
nodes = (
(240,850,l),
(163,850,o),
(100,787,o),
(100,710,c),
(100,70,l),
(100,-7,o),
(163,-70,o),
(240,-70,c),
(880,-70,l),
(958,-70,o),
(1020,-7,o),
(1020,70,c),
(1020,710,l),
(1020,787,o),
(958,850,o),
(880,850,c)
);
},
{
attr = {
strokeWidth = 100;
};
closed = 0;
nodes = (
(515,390,l),
(438,390,o),
(375,327,o),
(375,250,c),
(375,250,l),
(375,173,o),
(438,110,o),
(515,110,c),
(606,110,l),
(683,110,o),
(746,173,o),
(746,250,c),
(746,250,l),
(746,327,o),
(683,390,o),
(606,390,c)
);
},
{
attr = {
strokeWidth = 100;
};
closed = 0;
nodes = (
(606,390,l),
(683,390,o),
(746,453,o),
(746,530,c),
(746,530,l),
(746,607,o),
(683,670,o),
(606,670,c),
(515,670,l),
(438,670,o),
(375,607,o),
(375,530,c),
(375,530,l),
(375,453,o),
(438,390,o),
(515,390,c)
);
},
{
attr = {
strokeWidth = 100;
};
closed = 0;
nodes = (
(515,390,l),
(606,390,l)
);
}
);
width = 1120;
}
);
},
{
glyphname = keycapDigitNine;
kernLeft = emojiSquare;
kernRight = emojiSquare;
lastChange = "2023-12-29 20:44:51 +0000";
layers = (
{
layerId = m01;
shapes = (
{
attr = {
strokeWidth = 100;
};
closed = 1;
nodes = (
(240,850,l),
(162,850,o),
(100,787,o),
(100,710,c),
(100,70,l),
(100,-7,o),
(162,-70,o),
(240,-70,c),
(880,-70,l),
(957,-70,o),
(1020,-7,o),
(1020,70,c),
(1020,710,l),
(1020,787,o),
(957,850,o),
(880,850,c)
);
},
{
attr = {
strokeWidth = 100;
};
closed = 1;
nodes = (
(374,587,o),
(457,670,o),
(560,670,c),
(662,670,o),
(745,587,o),
(745,485,c),
(745,382,o),
(662,299,o),
(560,299,c),
(457,299,o),
(374,382,o),
(374,485,c)
);
},
{
attr = {
lineCapEnd = 1;
lineCapStart = 1;
strokeWidth = 100;
};
closed = 0;
nodes = (
(390,178,l),
(421,138,o),
(468,110,o),
(546,110,c),
(560,110,l),
(662,110,o),
(745,193,o),
(745,296,c),
(745,485,l)
);
}
);
width = 1120;
}
);
},
{
glyphname = whiteHeavyCheckMark;
lastChange = "2023-12-29 20:38:52 +0000";
layers = (
{
layerId = m01;
shapes = (
{
attr = {
strokeWidth = 100;
};
closed = 1;
nodes = (
(240,850,l),
(162,850,o),
(100,787,o),
(100,710,c),
(100,70,l),
(100,-7,o),
(162,-70,o),
(240,-70,c),
(880,-70,l),
(957,-70,o),
(1020,-7,o),
(1020,70,c),
(1020,710,l),
(1020,787,o),
(957,850,o),
(880,850,c)
);
},
{
attr = {
lineCapEnd = 1;
lineCapStart = 1;
strokeWidth = 100;
};
closed = 0;
nodes = (
(476,140,l),
(310,364,l)
);
},
{
attr = {
lineCapEnd = 1;
lineCapStart = 1;
strokeWidth = 100;
};
closed = 0;
nodes = (
(810,588,l),
(476,140,l)
);
}
);
width = 1120;
}
);
unicode = 9989;
},
{
glyphname = snowflake;
kernLeft = emojiRound;
kernRight = emojiRound;
lastChange = "2023-12-29 19:51:15 +0000";
layers = (
{
layerId = m01;
shapes = (
{
attr = {
lineCapEnd = 1;
lineCapStart = 1;
strokeWidth = 100;
};
closed = 0;
nodes = (
(499,850,l),
(499,-70,l)
);
},
{
attr = {
lineCapEnd = 1;
lineCapStart = 1;
strokeWidth = 100;
};
closed = 0;
nodes = (
(649,16,l),
(499,166,l),
(349,16,l)
);
},
{
attr = {
lineCapEnd = 1;
lineCapStart = 1;
strokeWidth = 100;
};
closed = 0;
nodes = (
(349,764,l),
(499,614,l),
(649,764,l)
);
},
{
attr = {
lineCapEnd = 1;
lineCapStart = 1;
strokeWidth = 100;
};
closed = 0;
nodes = (
(101,620,l),
(897,160,l)
);
},
{
attr = {
lineCapEnd = 1;
lineCapStart = 1;
strokeWidth = 100;
};
closed = 0;
nodes = (
(897,333,l),
(693,278,l),
(747,73,l)
);
},
{
attr = {
lineCapEnd = 1;
lineCapStart = 1;
strokeWidth = 100;
};
closed = 0;
nodes = (
(100,447,l),
(305,502,l),
(250,707,l)
);
},
{
attr = {
lineCapEnd = 1;
lineCapStart = 1;
strokeWidth = 100;
};
closed = 0;
nodes = (
(101,160,l),
(897,620,l)
);
},
{
attr = {
lineCapEnd = 1;
lineCapStart = 1;
strokeWidth = 100;
};
closed = 0;
nodes = (
(747,707,l),
(693,502,l),
(897,447,l)
);
},
{
attr = {
lineCapEnd = 1;
lineCapStart = 1;
strokeWidth = 100;
};
closed = 0;
nodes = (
(250,73,l),
(305,278,l),
(100,333,l)
);
}
);
width = 997;
}
);
unicode = 10052;
},
{
glyphname = crossMark;
lastChange = "2023-12-29 20:38:21 +0000";
layers = (
{
layerId = m01;
shapes = (
{
attr = {
lineCapEnd = 1;
lineCapStart = 1;
strokeWidth = 100;
};
closed = 0;
nodes = (
(100,-70,l),
(1020,850,l)
);
},
{
attr = {
lineCapEnd = 1;
lineCapStart = 1;
strokeWidth = 100;
};
closed = 0;
nodes = (
(100,850,l),
(1020,-70,l)
);
}
);
width = 1120;
}
);
unicode = 10060;
},
{
glyphname = blackCrossSquare;
lastChange = "2023-12-29 20:38:35 +0000";
layers = (
{
layerId = m01;
shapes = (
{
attr = {
strokeWidth = 100;
};
closed = 1;
nodes = (
(240,850,l),
(163,850,o),
(100,787,o),
(100,710,c),
(100,70,l),
(100,-7,o),
(163,-70,o),
(240,-70,c),
(880,-70,l),
(957,-70,o),
(1020,-7,o),
(1020,70,c),
(1020,710,l),
(1020,787,o),
(957,850,o),
(880,850,c)
);
},
{
attr = {
lineCapEnd = 1;
lineCapStart = 1;
strokeWidth = 100;
};
closed = 0;
nodes = (
(310,140,l),
(810,640,l)
);
},
{
attr = {
lineCapEnd = 1;
lineCapStart = 1;
strokeWidth = 100;
};
closed = 0;
nodes = (
(310,640,l),
(810,140,l)
);
}
);
width = 1120;
}
);
unicode = 10062;
},
{
glyphname = at;
lastChange = "2023-12-18 20:44:20 +0000";
layers = (
{
layerId = m01;
shapes = (
{
attr = {
lineCapEnd = 1;
lineCapStart = 1;
strokeWidth = 100;
};
closed = 0;
nodes = (
(715,563,l),
(715,563,o),
(692,323,o),
(686,235,c),
(682,177,o),
(745,142,o),
(799,142,c),
(921,142,o),
(991,249,o),
(998,399,c),
(1014,706,o),
(826,850,o),
(570,850,c),
(324,850,o),
(126,659,o),
(102,399,c),
(83,182,o),
(201,-110,o),
(513,-110,c),
(624,-110,o),
(716,-96,o),
(787,-48,c)
);
},
{
attr = {
lineCapEnd = 1;
lineCapStart = 1;
strokeWidth = 100;
};
closed = 0;
nodes = (
(693,323,l),
(686,242,o),
(615,177,o),
(535,177,c),
(535,177,l),
(454,177,o),
(394,242,o),
(401,323,c),
(409,417,l),
(417,498,o),
(488,563,o),
(569,563,c),
(569,563,l),
(649,563,o),
(709,499,o),
(701,418,c)
);
}
);
width = 1099;
}
);
unicode = 64;
},
{
glyphname = ampersand;
lastChange = "2023-12-18 20:44:20 +0000";
layers = (
{
layerId = m01;
shapes = (
{
attr = {
lineCapEnd = 1;
lineCapStart = 1;
strokeWidth = 100;
};
closed = 0;
nodes = (
(785,50,l),
(718,50,l),
(673,50,o),
(631,71,o),
(605,108,c),
(327,489,l),
(292,536,o),
(229,598,o),
(229,689,c),
(229,775,o),
(299,850,o),
(396,850,c),
(491,850,o),
(558,775,o),
(558,689,c),
(558,598,o),
(484,519,o),
(348,494,c),
(195,465,o),
(100,381,o),
(100,243,c),
(100,132,o),
(170,50,o),
(311,50,c),
(495,50,o),
(604,225,o),
(764,440,c)
);
}
);
width = 885;
}
);
unicode = 38;
},
{
glyphname = copyright;
lastChange = "2023-12-18 20:44:20 +0000";
layers = (
{
layerId = m01;
shapes = (
{
attr = {
lineCapEnd = 1;
lineCapStart = 1;
strokeWidth = 100;
};
closed = 0;
nodes = (
(627,330,l),
(601,286,o),
(554,257,o),
(500,257,c),
(500,257,l),
(419,257,o),
(354,322,o),
(354,403,c),
(354,497,l),
(354,578,o),
(419,643,o),
(500,643,c),
(500,643,l),
(554,643,o),
(601,614,o),
(626,570,c)
);
},
{
attr = {
strokeWidth = 100;
};
closed = 1;
nodes = (
(100,671,o),
(279,850,o),
(500,850,c),
(721,850,o),
(900,671,o),
(900,450,c),
(900,229,o),
(721,50,o),
(500,50,c),
(279,50,o),
(100,229,o),
(100,450,c)
);
}
);
width = 1000;
}
);
unicode = 169;
},
{
glyphname = registered;
lastChange = "2023-12-18 20:44:20 +0000";
layers = (
{
layerId = m01;
shapes = (
{
attr = {
lineCapEnd = 1;
lineCapStart = 1;
strokeWidth = 100;
};
closed = 0;
nodes = (
(372,643,l),
(498,643,l),
(570,643,o),
(628,585,o),
(628,513,c),
(628,442,o),
(570,384,o),
(498,384,c),
(372,384,l)
);
},
{
attr = {
lineCapEnd = 1;
lineCapStart = 1;
strokeWidth = 100;
};
closed = 0;
nodes = (
(498,384,l),
(625,257,l)
);
},
{
attr = {
strokeWidth = 100;
};
closed = 1;
nodes = (
(100,671,o),
(279,850,o),
(500,850,c),
(721,850,o),
(900,671,o),
(900,450,c),
(900,229,o),
(721,50,o),
(500,50,c),
(279,50,o),
(100,229,o),
(100,450,c)
);
},
{
attr = {
lineCapEnd = 1;
lineCapStart = 1;
strokeWidth = 100;
};
closed = 0;
nodes = (
(372,257,l),
(372,643,l)
);
}
);
width = 1000;
}
);
unicode = 174;
},
{
glyphname = trademark;
lastChange = "2023-12-18 20:44:20 +0000";
layers = (
{
layerId = m01;
shapes = (
{
attr = {
lineCapEnd = 1;
lineCapStart = 1;
strokeWidth = 100;
};
closed = 0;
nodes = (
(451,850,l),
(625,550,l)
);
},
{
attr = {
lineCapEnd = 1;
lineCapStart = 1;
strokeWidth = 100;
};
closed = 0;
nodes = (
(100,850,l),
(331,850,l)
);
},
{
attr = {
lineCapEnd = 1;
lineCapStart = 1;
strokeWidth = 100;
};
closed = 0;
nodes = (
(215,550,l),
(215,850,l)
);
},
{
attr = {
lineCapEnd = 1;
lineCapStart = 1;
strokeWidth = 100;
};
closed = 0;
nodes = (
(800,850,l),
(800,550,l)
);
},
{
attr = {
lineCapEnd = 1;
lineCapStart = 1;
strokeWidth = 100;
};
closed = 0;
nodes = (
(451,550,l),
(451,850,l)
);
},
{
attr = {
lineCapEnd = 1;
lineCapStart = 1;
strokeWidth = 100;
};
closed = 0;
nodes = (
(625,550,l),
(800,850,l)
);
}
);
width = 900;
}
);
unicode = 8482;
},
{
glyphname = bar;
kernLeft = straightLine;
kernRight = straightLine;
lastChange = "2023-12-21 12:57:59 +0000";
layers = (
{
layerId = m01;
shapes = (
{
attr = {
lineCapEnd = 1;
lineCapStart = 1;
strokeHeight = 100;
strokeWidth = 100;
};
closed = 0;
nodes = (
(100,-271,l),
(100,1015,l)
);
}
);
width = 200;
}
);
unicode = 124;
},
{
glyphname = brokenbar;
kernLeft = straightLine;
kernRight = straightLine;
lastChange = "2023-12-21 13:01:12 +0000";
layers = (
{
layerId = m01;
shapes = (
{
attr = {
lineCapEnd = "1";
lineCapStart = "1";
strokeHeight = 100;
strokeWidth = 100;
};
closed = 0;
nodes = (
(101,560,l),
(100,1015,l)
);
},
{
attr = {
lineCapEnd = "1";
lineCapStart = "1";
strokeHeight = 100;
strokeWidth = 100;
};
closed = 0;
nodes = (
(100,-270,l),
(100,185,l)
);
}
);
width = 200;
}
);
unicode = 166;
},
{
glyphname = blackLargeSquare;
kernLeft = emojiSquare;
kernRight = emojiSquare;
lastChange = "2023-12-29 20:14:48 +0000";
layers = (
{
layerId = m01;
shapes = (
{
attr = {
strokeWidth = 100;
};
closed = 1;
nodes = (
(240,850,l),
(163,850,o),
(100,787,o),
(100,710,c),
(100,70,l),
(100,-7,o),
(163,-70,o),
(240,-70,c),
(880,-70,l),
(957,-70,o),
(1020,-7,o),
(1020,70,c),
(1020,710,l),
(1020,787,o),
(957,850,o),
(880,850,c)
);
}
);
width = 1120;
}
);
unicode = 11035;
},
{
glyphname = whiteMediumStar;
lastChange = "2023-12-29 20:28:16 +0000";
layers = (
{
layerId = m01;
shapes = (
{
attr = {
strokeWidth = 100;
};
closed = 1;
nodes = (
(661,533,l),
(666,519,o),
(679,510,o),
(694,510,c),
(960,510,l),
(993,510,o),
(1007,468,o),
(980,448,c),
(765,292,l),
(753,283,o),
(748,268,o),
(752,254,c),
(835,1,l),
(845,-31,o),
(809,-57,o),
(782,-38,c),
(567,119,l),
(555,128,o),
(539,128,o),
(527,119,c),
(311,-38,l),
(285,-57,o),
(249,-31,o),
(259,1,c),
(341,254,l),
(346,268,o),
(341,283,o),
(329,292,c),
(114,448,l),
(87,468,o),
(101,510,o),
(134,510,c),
(400,510,l),
(414,510,o),
(428,519,o),
(432,533,c),
(514,786,l),
(525,818,o),
(569,818,o),
(579,786,c)
);
}
);
width = 1094;
}
);
unicode = 11088;
},
{
glyphname = dollar;
lastChange = "2023-12-18 21:03:17 +0000";
layers = (
{
layerId = m01;
shapes = (
{
attr = {
lineCapEnd = 1;
lineCapStart = 1;
strokeWidth = 100;
};
closed = 0;
nodes = (
(115,137,l),
(165,73,o),
(226,50,o),
(312,50,c),
(430,50,l),
(540,50,o),
(630,139,o),
(630,250,c),
(630,250,l),
(630,360,o),
(540,450,o),
(430,450,c),
(299,450,l),
(189,450,o),
(100,539,o),
(100,650,c),
(100,650,l),
(100,760,o),
(189,850,o),
(299,850,c),
(418,850,l),
(503,850,o),
(565,826,o),
(614,762,c)
);
},
{
attr = {
lineCapEnd = 1;
lineCapStart = 1;
strokeWidth = 100;
};
closed = 0;
nodes = (
(365,-50,l),
(365,950,l)
);
}
);
width = 730;
}
);
unicode = 36;
},
